Bungee_Layers-Outline.ufo
<glyph name="exclam" format="1">
  <advance width="424"/>
  <unicode hex="0021"/>
  <outline>
    <contour>
      <point x="337.0" y="298" type="curve" smooth="yes"/>
      <point x="351.0" y="684" type="line" smooth="yes"/>
      <point x="352.0" y="716"/>
      <point x="339.0" y="730"/>
      <point x="307.0" y="730" type="curve" smooth="yes"/>
      <point x="116.0" y="730" type="line" smooth="yes"/>
      <point x="84.0" y="730"/>
      <point x="71.0" y="716"/>
      <point x="72.0" y="684" type="curve" smooth="yes"/>
      <point x="87.0" y="298" type="line" smooth="yes"/>
      <point x="88.0" y="266"/>
      <point x="102.0" y="252"/>
      <point x="134.0" y="252" type="curve" smooth="yes"/>
      <point x="289.0" y="252" type="line" smooth="yes"/>
      <point x="321.0" y="252"/>
      <point x="336.0" y="266"/>
    </contour>
    <contour>
      <point x="350.0" y="36" type="curve" smooth="yes"/>
      <point x="350.0" y="167" type="line" smooth="yes"/>
      <point x="350.0" y="200"/>
      <point x="336.0" y="213"/>
      <point x="304.0" y="213" type="curve" smooth="yes"/>
      <point x="120.0" y="213" type="line" smooth="yes"/>
      <point x="88.0" y="213"/>
      <point x="74.0" y="200"/>
      <point x="74.0" y="167" type="curve" smooth="yes"/>
      <point x="74.0" y="36" type="line" smooth="yes"/>
      <point x="74.0" y="4"/>
      <point x="88.0" y="-10"/>
      <point x="120.0" y="-10" type="curve" smooth="yes"/>
      <point x="304.0" y="-10" type="line" smooth="yes"/>
      <point x="336.0" y="-10"/>
      <point x="350.0" y="4"/>
    </contour>
  </outline>
</glyph>
<glyph name="quotedbl" format="1">
  <advance width="646"/>
  <unicode hex="0022"/>
  <outline>
    <contour>
      <point x="602.0" y="385" type="curve" smooth="yes"/>
      <point x="610.0" y="679" type="line" smooth="yes"/>
      <point x="611.0" y="723"/>
      <point x="604.0" y="730"/>
      <point x="561.0" y="730" type="curve" smooth="yes"/>
      <point x="396.0" y="730" type="line" smooth="yes"/>
      <point x="352.0" y="730"/>
      <point x="345.0" y="722"/>
      <point x="346.0" y="679" type="curve" smooth="yes"/>
      <point x="354.0" y="386" type="line" smooth="yes"/>
      <point x="355.0" y="342"/>
      <point x="363.0" y="335"/>
      <point x="406.0" y="335" type="curve" smooth="yes"/>
      <point x="550.0" y="335" type="line" smooth="yes"/>
      <point x="593.0" y="335"/>
      <point x="600.0" y="342"/>
    </contour>
    <contour>
      <point x="292.0" y="385" type="curve" smooth="yes"/>
      <point x="300.0" y="679" type="line" smooth="yes"/>
      <point x="301.0" y="723"/>
      <point x="294.0" y="730"/>
      <point x="251.0" y="730" type="curve" smooth="yes"/>
      <point x="86.0" y="730" type="line" smooth="yes"/>
      <point x="42.0" y="730"/>
      <point x="35.0" y="722"/>
      <point x="36.0" y="679" type="curve" smooth="yes"/>
      <point x="44.0" y="386" type="line" smooth="yes"/>
      <point x="45.0" y="342"/>
      <point x="53.0" y="335"/>
      <point x="96.0" y="335" type="curve" smooth="yes"/>
      <point x="240.0" y="335" type="line" smooth="yes"/>
      <point x="283.0" y="335"/>
      <point x="290.0" y="342"/>
    </contour>
  </outline>
</glyph>
<glyph name="numbersign" format="1">
  <advance width="750"/>
  <unicode hex="0023"/>
  <outline>
    <contour>
      <point x="427.0" y="401" type="line"/>
      <point x="416.0" y="324" type="line"/>
      <point x="323.0" y="324" type="line"/>
      <point x="335.0" y="401" type="line"/>
    </contour>
    <contour>
      <point x="131.0" y="-10" type="curve" smooth="yes"/>
      <point x="236.0" y="-10" type="line" smooth="yes"/>
      <point x="267.0" y="-10"/>
      <point x="278.0" y="3"/>
      <point x="282.0" y="35" type="curve" smooth="yes"/>
      <point x="295.0" y="125" type="line"/>
      <point x="388.0" y="125" type="line"/>
      <point x="375.0" y="37" type="line" smooth="yes"/>
      <point x="371.0" y="5"/>
      <point x="388.0" y="-10"/>
      <point x="421.0" y="-10" type="curve" smooth="yes"/>
      <point x="526.0" y="-10" type="line" smooth="yes"/>
      <point x="557.0" y="-10"/>
      <point x="568.0" y="3"/>
      <point x="572.0" y="35" type="curve" smooth="yes"/>
      <point x="585.0" y="125" type="line"/>
      <point x="643.0" y="125" type="line" smooth="yes"/>
      <point x="675.0" y="125"/>
      <point x="689.0" y="138"/>
      <point x="689.0" y="171" type="curve" smooth="yes"/>
      <point x="689.0" y="278" type="line" smooth="yes"/>
      <point x="689.0" y="311"/>
      <point x="675.0" y="324"/>
      <point x="643.0" y="324" type="curve" smooth="yes"/>
      <point x="613.0" y="324" type="line"/>
      <point x="625.0" y="401" type="line"/>
      <point x="679.0" y="401" type="line" smooth="yes"/>
      <point x="711.0" y="401"/>
      <point x="725.0" y="414"/>
      <point x="725.0" y="447" type="curve" smooth="yes"/>
      <point x="725.0" y="554" type="line" smooth="yes"/>
      <point x="725.0" y="587"/>
      <point x="711.0" y="600"/>
      <point x="679.0" y="600" type="curve" smooth="yes"/>
      <point x="653.0" y="600" type="line"/>
      <point x="665.0" y="683" type="line" smooth="yes"/>
      <point x="669.0" y="715"/>
      <point x="652.0" y="730"/>
      <point x="619.0" y="730" type="curve" smooth="yes"/>
      <point x="514.0" y="730" type="line" smooth="yes"/>
      <point x="483.0" y="730"/>
      <point x="472.0" y="717"/>
      <point x="468.0" y="685" type="curve" smooth="yes"/>
      <point x="456.0" y="600" type="line"/>
      <point x="363.0" y="600" type="line"/>
      <point x="375.0" y="683" type="line" smooth="yes"/>
      <point x="379.0" y="715"/>
      <point x="362.0" y="730"/>
      <point x="329.0" y="730" type="curve" smooth="yes"/>
      <point x="224.0" y="730" type="line" smooth="yes"/>
      <point x="193.0" y="730"/>
      <point x="182.0" y="717"/>
      <point x="178.0" y="685" type="curve" smooth="yes"/>
      <point x="166.0" y="600" type="line"/>
      <point x="107.0" y="600" type="line" smooth="yes"/>
      <point x="75.0" y="600"/>
      <point x="61.0" y="586"/>
      <point x="61.0" y="554" type="curve" smooth="yes"/>
      <point x="61.0" y="447" type="line" smooth="yes"/>
      <point x="61.0" y="414"/>
      <point x="75.0" y="401"/>
      <point x="107.0" y="401" type="curve" smooth="yes"/>
      <point x="137.0" y="401" type="line"/>
      <point x="126.0" y="324" type="line"/>
      <point x="71.0" y="324" type="line" smooth="yes"/>
      <point x="39.0" y="324"/>
      <point x="25.0" y="310"/>
      <point x="25.0" y="278" type="curve" smooth="yes"/>
      <point x="25.0" y="171" type="line"/>
      <point x="25.0" y="138"/>
      <point x="39.0" y="125"/>
      <point x="71.0" y="125" type="curve" smooth="yes"/>
      <point x="98.0" y="125" type="line"/>
      <point x="85.0" y="37" type="line" smooth="yes"/>
      <point x="81.0" y="5"/>
      <point x="98.0" y="-10"/>
    </contour>
  </outline>
</glyph>
<glyph name="dollar" format="1">
  <advance width="650"/>
  <unicode hex="0024"/>
  <outline>
    <contour>
      <point x="214.0" y="612" type="line"/>
      <point x="451.0" y="612" type="line"/>
      <point x="451.0" y="774" type="line" smooth="yes"/>
      <point x="451.0" y="806"/>
      <point x="437.0" y="820"/>
      <point x="405.0" y="820" type="curve" smooth="yes"/>
      <point x="260.0" y="820" type="line" smooth="yes"/>
      <point x="228.0" y="820"/>
      <point x="214.0" y="806"/>
      <point x="214.0" y="774" type="curve" smooth="yes"/>
    </contour>
    <contour>
      <point x="260.0" y="-100" type="curve" smooth="yes"/>
      <point x="405.0" y="-100" type="line" smooth="yes"/>
      <point x="437.0" y="-100"/>
      <point x="451.0" y="-86"/>
      <point x="451.0" y="-54" type="curve" smooth="yes"/>
      <point x="451.0" y="93" type="line"/>
      <point x="214.0" y="93" type="line"/>
      <point x="214.0" y="-54" type="line" smooth="yes"/>
      <point x="214.0" y="-86"/>
      <point x="228.0" y="-100"/>
    </contour>
    <component base="S"/>
  </outline>
</glyph>
<glyph name="percent" format="2">
  <advance width="1031"/>
  <unicode hex="0025"/>
  <outline>
    <contour>
      <point x="408.0" y="606" type="line" smooth="yes"/>
      <point x="408.0" y="681"/>
      <point x="376.0" y="735"/>
      <point x="221.0" y="735" type="curve" smooth="yes"/>
      <point x="66.0" y="735"/>
      <point x="32.0" y="681"/>
      <point x="32.0" y="606" type="curve" smooth="yes"/>
      <point x="32.0" y="416" type="line"/>
      <point x="32.0" y="341"/>
      <point x="66.0" y="287"/>
      <point x="221.0" y="287" type="curve" smooth="yes"/>
      <point x="376.0" y="287"/>
      <point x="408.0" y="341"/>
      <point x="408.0" y="416" type="curve" smooth="yes"/>
    </contour>
    <contour>
      <point x="383.0" y="-10" type="curve" smooth="yes"/>
      <point x="488.0" y="-10" type="line" smooth="yes"/>
      <point x="518.0" y="-10"/>
      <point x="531.0" y="4"/>
      <point x="539.0" y="34" type="curve" smooth="yes"/>
      <point x="699.0" y="682" type="line" smooth="yes"/>
      <point x="707.0" y="713"/>
      <point x="692.0" y="730"/>
      <point x="658.0" y="730" type="curve" smooth="yes"/>
      <point x="553.0" y="730" type="line" smooth="yes"/>
      <point x="523.0" y="730"/>
      <point x="510.0" y="716"/>
      <point x="502.0" y="686" type="curve" smooth="yes"/>
      <point x="342.0" y="38" type="line"/>
      <point x="334.0" y="7"/>
      <point x="349.0" y="-10"/>
    </contour>
    <contour>
      <point x="197.0" y="575" type="line" smooth="yes"/>
      <point x="197.0" y="581"/>
      <point x="209.0" y="582"/>
      <point x="221.0" y="582" type="curve" smooth="yes"/>
      <point x="233.0" y="582"/>
      <point x="244.0" y="581"/>
      <point x="244.0" y="575" type="curve" smooth="yes"/>
      <point x="244.0" y="447" type="line" smooth="yes"/>
      <point x="244.0" y="440"/>
      <point x="233.0" y="439"/>
      <point x="221.0" y="439" type="curve" smooth="yes"/>
      <point x="208.0" y="439"/>
      <point x="197.0" y="440"/>
      <point x="197.0" y="447" type="curve" smooth="yes"/>
    </contour>
    <contour>
      <point x="1006.0" y="303" type="line" smooth="yes"/>
      <point x="1006.0" y="378"/>
      <point x="974.0" y="432"/>
      <point x="819.0" y="432" type="curve" smooth="yes"/>
      <point x="664.0" y="432"/>
      <point x="630.0" y="378"/>
      <point x="630.0" y="303" type="curve" smooth="yes"/>
      <point x="630.0" y="113" type="line" smooth="yes"/>
      <point x="630.0" y="38"/>
      <point x="664.0" y="-16"/>
      <point x="819.0" y="-16" type="curve" smooth="yes"/>
      <point x="974.0" y="-16"/>
      <point x="1006.0" y="38"/>
      <point x="1006.0" y="113" type="curve" smooth="yes"/>
    </contour>
    <contour>
      <point x="795.0" y="272" type="line" smooth="yes"/>
      <point x="795.0" y="278"/>
      <point x="807.0" y="279"/>
      <point x="819.0" y="279" type="curve" smooth="yes"/>
      <point x="831.0" y="279"/>
      <point x="842.0" y="278"/>
      <point x="842.0" y="272" type="curve" smooth="yes"/>
      <point x="842.0" y="144" type="line" smooth="yes"/>
      <point x="842.0" y="137"/>
      <point x="831.0" y="136"/>
      <point x="819.0" y="136" type="curve" smooth="yes"/>
      <point x="806.0" y="136"/>
      <point x="795.0" y="137"/>
      <point x="795.0" y="144" type="curve" smooth="yes"/>
    </contour>
  </outline>
</glyph>
<glyph name="ampersand" format="2">
  <advance width="766"/>
  <unicode hex="0026"/>
  <outline>
    <contour>
      <point x="226.0" y="-10" type="curve" smooth="yes"/>
      <point x="504.0" y="-10" type="line" smooth="yes"/>
      <point x="627.0" y="-10"/>
      <point x="693.0" y="63"/>
      <point x="693.0" y="176" type="curve" smooth="yes"/>
      <point x="693.0" y="211" type="line"/>
      <point x="706.0" y="211" type="line" smooth="yes"/>
      <point x="738.0" y="211"/>
      <point x="752.0" y="225"/>
      <point x="752.0" y="257" type="curve" smooth="yes"/>
      <point x="752.0" y="365" type="line" smooth="yes"/>
      <point x="752.0" y="398"/>
      <point x="738.0" y="411"/>
      <point x="706.0" y="411" type="curve" smooth="yes"/>
      <point x="512.0" y="411" type="line" smooth="yes"/>
      <point x="480.0" y="411"/>
      <point x="466.0" y="397"/>
      <point x="466.0" y="365" type="curve" smooth="yes"/>
      <point x="466.0" y="227" type="line" smooth="yes"/>
      <point x="466.0" y="207"/>
      <point x="460.0" y="197"/>
      <point x="438.0" y="197" type="curve" smooth="yes"/>
      <point x="296.0" y="197" type="line" smooth="yes"/>
      <point x="275.0" y="197"/>
      <point x="268.0" y="205"/>
      <point x="268.0" y="217" type="curve" smooth="yes"/>
      <point x="268.0" y="248" type="line" smooth="yes"/>
      <point x="268.0" y="260"/>
      <point x="275.0" y="267"/>
      <point x="296.0" y="267" type="curve" smooth="yes"/>
      <point x="376.0" y="267" type="line" smooth="yes"/>
      <point x="408.0" y="267"/>
      <point x="422.0" y="281"/>
      <point x="422.0" y="313" type="curve" smooth="yes"/>
      <point x="422.0" y="416" type="line" smooth="yes"/>
      <point x="422.0" y="448"/>
      <point x="408.0" y="462"/>
      <point x="376.0" y="462" type="curve" smooth="yes"/>
      <point x="361.0" y="462" type="line" smooth="yes"/>
      <point x="340.0" y="462"/>
      <point x="333.0" y="470"/>
      <point x="333.0" y="482" type="curve" smooth="yes"/>
      <point x="333.0" y="503" type="line" smooth="yes"/>
      <point x="333.0" y="515"/>
      <point x="340.0" y="523"/>
      <point x="361.0" y="523" type="curve" smooth="yes"/>
      <point x="507.0" y="523" type="line" smooth="yes"/>
      <point x="539.0" y="523"/>
      <point x="553.0" y="537"/>
      <point x="553.0" y="569" type="curve" smooth="yes"/>
      <point x="553.0" y="684" type="line" smooth="yes"/>
      <point x="553.0" y="716"/>
      <point x="539.0" y="730"/>
      <point x="507.0" y="730" type="curve" smooth="yes"/>
      <point x="296.0" y="730" type="line" smooth="yes"/>
      <point x="151.0" y="730"/>
      <point x="94.0" y="660"/>
      <point x="94.0" y="567" type="curve" smooth="yes"/>
      <point x="94.0" y="519" type="line" smooth="yes"/>
      <point x="94.0" y="474"/>
      <point x="105.0" y="439"/>
      <point x="134.0" y="416" type="curve"/>
      <point x="72.0" y="399"/>
      <point x="27.0" y="344"/>
      <point x="27.0" y="256" type="curve" smooth="yes"/>
      <point x="27.0" y="176" type="line"/>
      <point x="27.0" y="63"/>
      <point x="96.0" y="-10"/>
    </contour>
  </outline>
</glyph>
<glyph name="quotesingle" format="1">
  <advance width="356"/>
  <unicode hex="0027"/>
  <outline>
    <contour>
      <point x="302.0" y="385" type="curve" smooth="yes"/>
      <point x="310.0" y="679" type="line" smooth="yes"/>
      <point x="311.0" y="723"/>
      <point x="304.0" y="730"/>
      <point x="261.0" y="730" type="curve" smooth="yes"/>
      <point x="96.0" y="730" type="line" smooth="yes"/>
      <point x="52.0" y="730"/>
      <point x="45.0" y="722"/>
      <point x="46.0" y="679" type="curve" smooth="yes"/>
      <point x="54.0" y="386" type="line" smooth="yes"/>
      <point x="55.0" y="342"/>
      <point x="63.0" y="335"/>
      <point x="106.0" y="335" type="curve" smooth="yes"/>
      <point x="250.0" y="335" type="line" smooth="yes"/>
      <point x="293.0" y="335"/>
      <point x="300.0" y="342"/>
    </contour>
  </outline>
</glyph>
<glyph name="parenleft" format="1">
  <advance width="429"/>
  <unicode hex="0028"/>
  <outline>
    <contour>
      <point x="394.0" y="-44" type="curve" smooth="yes"/>
      <point x="394.0" y="75" type="line" smooth="yes"/>
      <point x="394.0" y="107"/>
      <point x="380.0" y="121"/>
      <point x="348.0" y="121" type="curve" smooth="yes"/>
      <point x="317.0" y="121" type="line" smooth="yes"/>
      <point x="291.0" y="121"/>
      <point x="286.0" y="135"/>
      <point x="286.0" y="161" type="curve" smooth="yes"/>
      <point x="286.0" y="557" type="line" smooth="yes"/>
      <point x="286.0" y="583"/>
      <point x="291.0" y="597"/>
      <point x="317.0" y="597" type="curve" smooth="yes"/>
      <point x="348.0" y="597" type="line" smooth="yes"/>
      <point x="380.0" y="597"/>
      <point x="394.0" y="611"/>
      <point x="394.0" y="643" type="curve" smooth="yes"/>
      <point x="394.0" y="764" type="line" smooth="yes"/>
      <point x="394.0" y="796"/>
      <point x="380.0" y="810"/>
      <point x="348.0" y="810" type="curve" smooth="yes"/>
      <point x="294.0" y="810" type="line" smooth="yes"/>
      <point x="96.0" y="810"/>
      <point x="38.0" y="722"/>
      <point x="38.0" y="595" type="curve" smooth="yes"/>
      <point x="38.0" y="124" type="line" smooth="yes"/>
      <point x="38.0" y="-2"/>
      <point x="96.0" y="-90"/>
      <point x="294.0" y="-90" type="curve" smooth="yes"/>
      <point x="348.0" y="-90" type="line" smooth="yes"/>
      <point x="380.0" y="-90"/>
      <point x="394.0" y="-76"/>
    </contour>
  </outline>
</glyph>
<glyph name="asterisk" format="2">
  <advance width="718"/>
  <unicode hex="002A"/>
  <outline>
    <contour>
      <point x="490.0" y="145" type="curve" smooth="yes"/>
      <point x="585.0" y="213" type="line" smooth="yes"/>
      <point x="621.0" y="238"/>
      <point x="622.0" y="250"/>
      <point x="592.0" y="282" type="curve" smooth="yes"/>
      <point x="495.0" y="383" type="line"/>
      <point x="630.0" y="405" type="line" smooth="yes"/>
      <point x="673.0" y="413"/>
      <point x="680.0" y="422"/>
      <point x="665.0" y="464" type="curve" smooth="yes"/>
      <point x="628.0" y="575" type="line" smooth="yes"/>
      <point x="614.0" y="618"/>
      <point x="604.0" y="622"/>
      <point x="566.0" y="603" type="curve" smooth="yes"/>
      <point x="445.0" y="547" type="line"/>
      <point x="463.0" y="678" type="line" smooth="yes"/>
      <point x="471.0" y="721"/>
      <point x="463.0" y="730"/>
      <point x="419.0" y="730" type="curve" smooth="yes"/>
      <point x="302.0" y="730" type="line" smooth="yes"/>
      <point x="258.0" y="730"/>
      <point x="250.0" y="721"/>
      <point x="256.0" y="678" type="curve" smooth="yes"/>
      <point x="276.0" y="547" type="line"/>
      <point x="151.0" y="603" type="line" smooth="yes"/>
      <point x="113.0" y="622"/>
      <point x="101.0" y="617"/>
      <point x="88.0" y="575" type="curve" smooth="yes"/>
      <point x="52.0" y="464" type="line" smooth="yes"/>
      <point x="38.0" y="422"/>
      <point x="45.0" y="413"/>
      <point x="88.0" y="405" type="curve" smooth="yes"/>
      <point x="222.0" y="383" type="line"/>
      <point x="126.0" y="282" type="line" smooth="yes"/>
      <point x="96.0" y="250"/>
      <point x="97.0" y="238"/>
      <point x="133.0" y="213" type="curve" smooth="yes"/>
      <point x="227.0" y="145" type="line" smooth="yes"/>
      <point x="264.0" y="120"/>
      <point x="274.0" y="125"/>
      <point x="295.0" y="160" type="curve" smooth="yes"/>
      <point x="359.0" y="284" type="line"/>
      <point x="424.0" y="160" type="line" smooth="yes"/>
      <point x="445.0" y="124"/>
      <point x="453.0" y="120"/>
    </contour>
  </outline>
</glyph>
<glyph name="plus" format="1">
  <advance width="734"/>
  <unicode hex="002B"/>
  <outline>
    <contour>
      <point x="305.0" y="53" type="curve" smooth="yes"/>
      <point x="429.0" y="53" type="line" smooth="yes"/>
      <point x="462.0" y="53"/>
      <point x="475.0" y="67"/>
      <point x="475.0" y="99" type="curve" smooth="yes"/>
      <point x="475.0" y="257" type="line"/>
      <point x="628.0" y="257" type="line" smooth="yes"/>
      <point x="660.0" y="257"/>
      <point x="674.0" y="270"/>
      <point x="674.0" y="303" type="curve" smooth="yes"/>
      <point x="674.0" y="417" type="line" smooth="yes"/>
      <point x="674.0" y="450"/>
      <point x="660.0" y="463"/>
      <point x="628.0" y="463" type="curve" smooth="yes"/>
      <point x="475.0" y="463" type="line"/>
      <point x="475.0" y="621" type="line" smooth="yes"/>
      <point x="475.0" y="653"/>
      <point x="461.0" y="667"/>
      <point x="429.0" y="667" type="curve" smooth="yes"/>
      <point x="305.0" y="667" type="line" smooth="yes"/>
      <point x="272.0" y="667"/>
      <point x="259.0" y="653"/>
      <point x="259.0" y="621" type="curve" smooth="yes"/>
      <point x="259.0" y="463" type="line"/>
      <point x="106.0" y="463" type="line" smooth="yes"/>
      <point x="74.0" y="463"/>
      <point x="60.0" y="449"/>
      <point x="60.0" y="417" type="curve" smooth="yes"/>
      <point x="60.0" y="303" type="line" smooth="yes"/>
      <point x="60.0" y="270"/>
      <point x="74.0" y="257"/>
      <point x="106.0" y="257" type="curve" smooth="yes"/>
      <point x="259.0" y="257" type="line"/>
      <point x="259.0" y="99" type="line" smooth="yes"/>
      <point x="259.0" y="67"/>
      <point x="272.0" y="53"/>
    </contour>
  </outline>
</glyph>
<glyph name="hyphen" format="1">
  <advance width="420"/>
  <unicode hex="002D"/>
  <unicode hex="00AD"/>
  <unicode hex="2010"/>
  <outline>
    <contour>
      <point x="344.0" y="247" type="line" smooth="yes"/>
      <point x="376.0" y="247"/>
      <point x="390.0" y="260"/>
      <point x="390.0" y="293" type="curve" smooth="yes"/>
      <point x="390.0" y="427" type="line" smooth="yes"/>
      <point x="390.0" y="460"/>
      <point x="376.0" y="473"/>
      <point x="344.0" y="473" type="curve" smooth="yes"/>
      <point x="76.0" y="473" type="line" smooth="yes"/>
      <point x="44.0" y="473"/>
      <point x="30.0" y="459"/>
      <point x="30.0" y="427" type="curve" smooth="yes"/>
      <point x="30.0" y="293" type="line"/>
      <point x="30.0" y="260"/>
      <point x="44.0" y="247"/>
      <point x="76.0" y="247" type="curve" smooth="yes"/>
    </contour>
  </outline>
</glyph>
<glyph name="period" format="1">
  <advance width="384"/>
  <unicode hex="002E"/>
  <outline>
    <contour>
      <point x="339.0" y="36" type="curve" smooth="yes"/>
      <point x="339.0" y="239" type="line" smooth="yes"/>
      <point x="339.0" y="272"/>
      <point x="325.0" y="285"/>
      <point x="293.0" y="285" type="curve" smooth="yes"/>
      <point x="91.0" y="285" type="line" smooth="yes"/>
      <point x="59.0" y="285"/>
      <point x="45.0" y="272"/>
      <point x="45.0" y="239" type="curve" smooth="yes"/>
      <point x="45.0" y="36" type="line" smooth="yes"/>
      <point x="45.0" y="4"/>
      <point x="59.0" y="-10"/>
      <point x="91.0" y="-10" type="curve" smooth="yes"/>
      <point x="293.0" y="-10" type="line" smooth="yes"/>
      <point x="325.0" y="-10"/>
      <point x="339.0" y="4"/>
    </contour>
  </outline>
</glyph>
<glyph name="slash" format="2">
  <advance width="347"/>
  <unicode hex="002F"/>
  <outline>
    <contour>
      <point x="41.0" y="-100" type="curve" smooth="yes"/>
      <point x="186.0" y="-100" type="line" smooth="yes"/>
      <point x="217.0" y="-100"/>
      <point x="228.0" y="-87"/>
      <point x="232.0" y="-55" type="curve" smooth="yes"/>
      <point x="352.0" y="773" type="line" smooth="yes"/>
      <point x="356.0" y="805"/>
      <point x="339.0" y="820"/>
      <point x="306.0" y="820" type="curve" smooth="yes"/>
      <point x="161.0" y="820" type="line" smooth="yes"/>
      <point x="130.0" y="820"/>
      <point x="119.0" y="807"/>
      <point x="115.0" y="775" type="curve" smooth="yes"/>
      <point x="-5.0" y="-53" type="line" smooth="yes"/>
      <point x="-9.0" y="-85"/>
      <point x="8.0" y="-100"/>
    </contour>
  </outline>
</glyph>
<glyph name="zero" format="1">
  <advance width="727"/>
  <unicode hex="0030"/>
  <outline>
    <contour>
      <point x="679.0" y="530" type="line" smooth="yes"/>
      <point x="679.0" y="656"/>
      <point x="622.0" y="745"/>
      <point x="364.0" y="745" type="curve" smooth="yes"/>
      <point x="106.0" y="745"/>
      <point x="48.0" y="656"/>
      <point x="48.0" y="530" type="curve" smooth="yes"/>
      <point x="48.0" y="189" type="line" smooth="yes"/>
      <point x="48.0" y="63"/>
      <point x="106.0" y="-25"/>
      <point x="364.0" y="-25" type="curve" smooth="yes"/>
      <point x="622.0" y="-25"/>
      <point x="679.0" y="63"/>
      <point x="679.0" y="189" type="curve" smooth="yes"/>
    </contour>
    <contour>
      <point x="294.0" y="494" type="line" smooth="yes"/>
      <point x="294.0" y="517"/>
      <point x="311.0" y="530"/>
      <point x="364.0" y="530" type="curve" smooth="yes"/>
      <point x="418.0" y="530"/>
      <point x="434.0" y="517"/>
      <point x="434.0" y="494" type="curve" smooth="yes"/>
      <point x="434.0" y="225" type="line" smooth="yes"/>
      <point x="434.0" y="201"/>
      <point x="418.0" y="188"/>
      <point x="364.0" y="188" type="curve" smooth="yes"/>
      <point x="310.0" y="188"/>
      <point x="294.0" y="201"/>
      <point x="294.0" y="225" type="curve" smooth="yes"/>
    </contour>
    <contour>
      <point x="363.0" y="747.0" type="move" name="top"/>
    </contour>
    <contour>
      <point x="363.0" y="0.0" type="move" name="bottom"/>
    </contour>
  </outline>
</glyph>
<glyph name="two" format="1">
  <advance width="639"/>
  <unicode hex="0032"/>
  <outline>
    <contour>
      <point x="76.0" y="-10" type="curve" smooth="yes"/>
      <point x="552.0" y="-10" type="line" smooth="yes"/>
      <point x="584.0" y="-10"/>
      <point x="598.0" y="4"/>
      <point x="598.0" y="36" type="curve" smooth="yes"/>
      <point x="598.0" y="153" type="line" smooth="yes"/>
      <point x="598.0" y="185"/>
      <point x="584.0" y="199"/>
      <point x="552.0" y="199" type="curve" smooth="yes"/>
      <point x="277.0" y="199" type="line"/>
      <point x="277.0" y="210" type="line" smooth="yes"/>
      <point x="277.0" y="226"/>
      <point x="282.0" y="226"/>
      <point x="296.0" y="230" type="curve" smooth="yes"/>
      <point x="432.0" y="273" type="line" smooth="yes"/>
      <point x="534.0" y="305"/>
      <point x="595.0" y="354"/>
      <point x="595.0" y="460" type="curve" smooth="yes"/>
      <point x="595.0" y="554" type="line" smooth="yes"/>
      <point x="595.0" y="668"/>
      <point x="530.0" y="730"/>
      <point x="409.0" y="730" type="curve" smooth="yes"/>
      <point x="114.0" y="730" type="line" smooth="yes"/>
      <point x="82.0" y="730"/>
      <point x="68.0" y="716"/>
      <point x="68.0" y="684" type="curve" smooth="yes"/>
      <point x="68.0" y="567" type="line" smooth="yes"/>
      <point x="68.0" y="535"/>
      <point x="82.0" y="521"/>
      <point x="114.0" y="521" type="curve" smooth="yes"/>
      <point x="331.0" y="521" type="line" smooth="yes"/>
      <point x="343.0" y="521"/>
      <point x="348.0" y="518"/>
      <point x="348.0" y="505" type="curve" smooth="yes"/>
      <point x="348.0" y="489"/>
      <point x="344.0" y="483"/>
      <point x="328.0" y="479" type="curve" smooth="yes"/>
      <point x="194.0" y="437" type="line" smooth="yes"/>
      <point x="98.0" y="407"/>
      <point x="30.0" y="370"/>
      <point x="30.0" y="208" type="curve" smooth="yes"/>
      <point x="30.0" y="36" type="line"/>
      <point x="30.0" y="4"/>
      <point x="44.0" y="-10"/>
    </contour>
  </outline>
</glyph>
<glyph name="three" format="1">
  <advance width="637"/>
  <unicode hex="0033"/>
  <outline>
    <contour>
      <point x="85.0" y="-10" type="curve" smooth="yes"/>
      <point x="401.0" y="-10" type="line" smooth="yes"/>
      <point x="537.0" y="-10"/>
      <point x="605.0" y="58"/>
      <point x="605.0" y="166" type="curve" smooth="yes"/>
      <point x="605.0" y="266" type="line" smooth="yes"/>
      <point x="605.0" y="351"/>
      <point x="578.0" y="399"/>
      <point x="498.0" y="416" type="curve"/>
      <point x="527.0" y="439"/>
      <point x="538.0" y="474"/>
      <point x="538.0" y="519" type="curve" smooth="yes"/>
      <point x="538.0" y="577" type="line" smooth="yes"/>
      <point x="538.0" y="670"/>
      <point x="483.0" y="730"/>
      <point x="364.0" y="730" type="curve" smooth="yes"/>
      <point x="85.0" y="730" type="line" smooth="yes"/>
      <point x="53.0" y="730"/>
      <point x="39.0" y="716"/>
      <point x="39.0" y="684" type="curve" smooth="yes"/>
      <point x="39.0" y="565" type="line" smooth="yes"/>
      <point x="39.0" y="533"/>
      <point x="53.0" y="519"/>
      <point x="85.0" y="519" type="curve" smooth="yes"/>
      <point x="271.0" y="519" type="line" smooth="yes"/>
      <point x="292.0" y="519"/>
      <point x="299.0" y="511"/>
      <point x="299.0" y="499" type="curve" smooth="yes"/>
      <point x="299.0" y="484" type="line" smooth="yes"/>
      <point x="299.0" y="472"/>
      <point x="292.0" y="464"/>
      <point x="271.0" y="464" type="curve" smooth="yes"/>
      <point x="166.0" y="464" type="line" smooth="yes"/>
      <point x="134.0" y="464"/>
      <point x="120.0" y="450"/>
      <point x="120.0" y="418" type="curve" smooth="yes"/>
      <point x="120.0" y="311" type="line" smooth="yes"/>
      <point x="120.0" y="279"/>
      <point x="134.0" y="265"/>
      <point x="166.0" y="265" type="curve" smooth="yes"/>
      <point x="336.0" y="265" type="line" smooth="yes"/>
      <point x="357.0" y="265"/>
      <point x="364.0" y="258"/>
      <point x="364.0" y="246" type="curve" smooth="yes"/>
      <point x="364.0" y="219" type="line" smooth="yes"/>
      <point x="364.0" y="207"/>
      <point x="357.0" y="199"/>
      <point x="336.0" y="199" type="curve" smooth="yes"/>
      <point x="85.0" y="199" type="line" smooth="yes"/>
      <point x="53.0" y="199"/>
      <point x="39.0" y="185"/>
      <point x="39.0" y="153" type="curve" smooth="yes"/>
      <point x="39.0" y="36" type="line" smooth="yes"/>
      <point x="39.0" y="4"/>
      <point x="53.0" y="-10"/>
    </contour>
  </outline>
</glyph>
<glyph name="four" format="2">
  <advance width="709"/>
  <unicode hex="0034"/>
  <outline>
    <contour>
      <point x="450.0" y="-10" type="curve" smooth="yes"/>
      <point x="604.0" y="-10" type="line" smooth="yes"/>
      <point x="636.0" y="-10"/>
      <point x="650.0" y="4"/>
      <point x="650.0" y="36" type="curve" smooth="yes"/>
      <point x="650.0" y="684" type="line" smooth="yes"/>
      <point x="650.0" y="716"/>
      <point x="636.0" y="730"/>
      <point x="604.0" y="730" type="curve" smooth="yes"/>
      <point x="450.0" y="730" type="line" smooth="yes"/>
      <point x="418.0" y="730"/>
      <point x="404.0" y="716"/>
      <point x="404.0" y="684" type="curve" smooth="yes"/>
      <point x="404.0" y="386" type="line"/>
      <point x="321.0" y="386" type="line" smooth="yes"/>
      <point x="308.0" y="386"/>
      <point x="300.0" y="396"/>
      <point x="300.0" y="410" type="curve" smooth="yes"/>
      <point x="300.0" y="684" type="line" smooth="yes"/>
      <point x="300.0" y="716"/>
      <point x="286.0" y="730"/>
      <point x="254.0" y="730" type="curve" smooth="yes"/>
      <point x="99.0" y="730" type="line" smooth="yes"/>
      <point x="67.0" y="730"/>
      <point x="53.0" y="716"/>
      <point x="53.0" y="684" type="curve" smooth="yes"/>
      <point x="53.0" y="333" type="line" smooth="yes"/>
      <point x="53.0" y="213"/>
      <point x="107.0" y="157"/>
      <point x="245.0" y="157" type="curve" smooth="yes"/>
      <point x="404.0" y="157" type="line"/>
      <point x="404.0" y="36" type="line" smooth="yes"/>
      <point x="404.0" y="4"/>
      <point x="418.0" y="-10"/>
    </contour>
  </outline>
</glyph>
<glyph name="five" format="1">
  <advance width="647"/>
  <unicode hex="0035"/>
  <outline>
    <contour>
      <point x="91.0" y="-10" type="curve" smooth="yes"/>
      <point x="409.0" y="-10" type="line" smooth="yes"/>
      <point x="536.0" y="-10"/>
      <point x="614.0" y="59"/>
      <point x="614.0" y="166" type="curve" smooth="yes"/>
      <point x="614.0" y="305" type="line" smooth="yes"/>
      <point x="614.0" y="417"/>
      <point x="544.0" y="474"/>
      <point x="429.0" y="474" type="curve" smooth="yes"/>
      <point x="302.0" y="474" type="line"/>
      <point x="302.0" y="519" type="line"/>
      <point x="532.0" y="519" type="line" smooth="yes"/>
      <point x="564.0" y="519"/>
      <point x="578.0" y="533"/>
      <point x="578.0" y="565" type="curve" smooth="yes"/>
      <point x="578.0" y="684" type="line" smooth="yes"/>
      <point x="578.0" y="716"/>
      <point x="564.0" y="730"/>
      <point x="532.0" y="730" type="curve" smooth="yes"/>
      <point x="101.0" y="730" type="line" smooth="yes"/>
      <point x="69.0" y="730"/>
      <point x="55.0" y="716"/>
      <point x="55.0" y="684" type="curve" smooth="yes"/>
      <point x="55.0" y="310" type="line" smooth="yes"/>
      <point x="55.0" y="278"/>
      <point x="69.0" y="264"/>
      <point x="101.0" y="264" type="curve" smooth="yes"/>
      <point x="349.0" y="264" type="line" smooth="yes"/>
      <point x="358.0" y="264"/>
      <point x="366.0" y="261"/>
      <point x="366.0" y="251" type="curve" smooth="yes"/>
      <point x="366.0" y="212" type="line" smooth="yes"/>
      <point x="366.0" y="202"/>
      <point x="358.0" y="199"/>
      <point x="349.0" y="199" type="curve" smooth="yes"/>
      <point x="91.0" y="199" type="line" smooth="yes"/>
      <point x="59.0" y="199"/>
      <point x="45.0" y="185"/>
      <point x="45.0" y="153" type="curve" smooth="yes"/>
      <point x="45.0" y="36" type="line" smooth="yes"/>
      <point x="45.0" y="4"/>
      <point x="59.0" y="-10"/>
    </contour>
  </outline>
</glyph>
<glyph name="seven" format="1">
  <advance width="627"/>
  <unicode hex="0037"/>
  <outline>
    <contour>
      <point x="147.0" y="-10" type="curve" smooth="yes"/>
      <point x="309.0" y="-10" type="line" smooth="yes"/>
      <point x="341.0" y="-10"/>
      <point x="355.0" y="4"/>
      <point x="355.0" y="36" type="curve" smooth="yes"/>
      <point x="355.0" y="203" type="line"/>
      <point x="422.0" y="223" type="line" smooth="yes"/>
      <point x="534.0" y="257"/>
      <point x="585.0" y="298"/>
      <point x="585.0" y="431" type="curve" smooth="yes"/>
      <point x="585.0" y="684" type="line" smooth="yes"/>
      <point x="585.0" y="716"/>
      <point x="571.0" y="730"/>
      <point x="539.0" y="730" type="curve" smooth="yes"/>
      <point x="74.0" y="730" type="line" smooth="yes"/>
      <point x="42.0" y="730"/>
      <point x="28.0" y="716"/>
      <point x="28.0" y="684" type="curve" smooth="yes"/>
      <point x="28.0" y="563" type="line"/>
      <point x="28.0" y="531"/>
      <point x="42.0" y="517"/>
      <point x="74.0" y="517" type="curve" smooth="yes"/>
      <point x="338.0" y="517" type="line"/>
      <point x="338.0" y="445" type="line"/>
      <point x="264.0" y="425" type="line" smooth="yes"/>
      <point x="152.0" y="391"/>
      <point x="101.0" y="350"/>
      <point x="101.0" y="217" type="curve" smooth="yes"/>
      <point x="101.0" y="36" type="line" smooth="yes"/>
      <point x="101.0" y="4"/>
      <point x="115.0" y="-10"/>
    </contour>
  </outline>
</glyph>
<glyph name="nine" format="1">
  <advance width="693"/>
  <unicode hex="0039"/>
  <outline>
    <contour>
      <point x="159.0" y="-10" type="curve" smooth="yes"/>
      <point x="389.0" y="-10" type="line" smooth="yes"/>
      <point x="587.0" y="-10"/>
      <point x="645.0" y="78"/>
      <point x="645.0" y="205" type="curve" smooth="yes"/>
      <point x="645.0" y="533" type="line" smooth="yes"/>
      <point x="645.0" y="659"/>
      <point x="593.0" y="745"/>
      <point x="335.0" y="745" type="curve" smooth="yes"/>
      <point x="94.0" y="745"/>
      <point x="37.0" y="659"/>
      <point x="37.0" y="533" type="curve" smooth="yes"/>
      <point x="37.0" y="437" type="line" smooth="yes"/>
      <point x="37.0" y="313"/>
      <point x="91.0" y="247"/>
      <point x="282.0" y="247" type="curve" smooth="yes"/>
      <point x="329.0" y="247"/>
      <point x="368.0" y="251"/>
      <point x="399.0" y="258" type="curve"/>
      <point x="399.0" y="250" type="line" smooth="yes"/>
      <point x="399.0" y="209"/>
      <point x="387.0" y="200"/>
      <point x="346.0" y="200" type="curve" smooth="yes"/>
      <point x="159.0" y="200" type="line" smooth="yes"/>
      <point x="127.0" y="200"/>
      <point x="113.0" y="186"/>
      <point x="113.0" y="154" type="curve" smooth="yes"/>
      <point x="113.0" y="36" type="line" smooth="yes"/>
      <point x="113.0" y="4"/>
      <point x="126.0" y="-10"/>
    </contour>
    <contour>
      <point x="342.0" y="432" type="curve" smooth="yes"/>
      <point x="299.0" y="432"/>
      <point x="283.0" y="441"/>
      <point x="283.0" y="458" type="curve" smooth="yes"/>
      <point x="283.0" y="517" type="line" smooth="yes"/>
      <point x="283.0" y="535"/>
      <point x="298.0" y="544"/>
      <point x="342.0" y="544" type="curve" smooth="yes"/>
      <point x="384.0" y="544"/>
      <point x="399.0" y="535"/>
      <point x="399.0" y="517" type="curve" smooth="yes"/>
      <point x="399.0" y="458" type="line" smooth="yes"/>
      <point x="399.0" y="441"/>
      <point x="384.0" y="432"/>
    </contour>
  </outline>
</glyph>
<glyph name="less" format="1">
  <advance width="714"/>
  <unicode hex="003C"/>
  <outline>
    <contour>
      <point x="634.0" y="90" type="curve" smooth="yes"/>
      <point x="634.0" y="222" type="line" smooth="yes"/>
      <point x="634.0" y="254"/>
      <point x="621.0" y="268"/>
      <point x="590.0" y="273" type="curve"/>
      <point x="591.0" y="273" type="line"/>
      <point x="304.0" y="350" type="line" smooth="yes"/>
      <point x="296.0" y="351"/>
      <point x="294.0" y="353"/>
      <point x="294.0" y="359" type="curve" smooth="yes"/>
      <point x="294.0" y="365"/>
      <point x="296.0" y="367"/>
      <point x="303.0" y="368" type="curve"/>
      <point x="591.0" y="445" type="line"/>
      <point x="590.0" y="445" type="line"/>
      <point x="621.0" y="450"/>
      <point x="634.0" y="464"/>
      <point x="634.0" y="496" type="curve" smooth="yes"/>
      <point x="634.0" y="628" type="line" smooth="yes"/>
      <point x="634.0" y="663"/>
      <point x="619.0" y="675"/>
      <point x="586.0" y="669" type="curve"/>
      <point x="204.0" y="560" type="line" smooth="yes"/>
      <point x="116.0" y="534"/>
      <point x="70.0" y="500"/>
      <point x="70.0" y="395" type="curve" smooth="yes"/>
      <point x="70.0" y="323" type="line" smooth="yes"/>
      <point x="70.0" y="218"/>
      <point x="116.0" y="184"/>
      <point x="204.0" y="158" type="curve" smooth="yes"/>
      <point x="585.0" y="49" type="line"/>
      <point x="586.0" y="49" type="line" smooth="yes"/>
      <point x="619.0" y="43"/>
      <point x="634.0" y="55"/>
    </contour>
  </outline>
</glyph>
<glyph name="equal" format="2">
  <advance width="734"/>
  <unicode hex="003D"/>
  <outline>
    <contour>
      <point x="628.0" y="407" type="line" smooth="yes"/>
      <point x="660.0" y="407"/>
      <point x="674.0" y="420"/>
      <point x="674.0" y="453" type="curve" smooth="yes"/>
      <point x="674.0" y="567" type="line" smooth="yes"/>
      <point x="674.0" y="600"/>
      <point x="660.0" y="613"/>
      <point x="628.0" y="613" type="curve" smooth="yes"/>
      <point x="106.0" y="613" type="line" smooth="yes"/>
      <point x="74.0" y="613"/>
      <point x="60.0" y="599"/>
      <point x="60.0" y="567" type="curve" smooth="yes"/>
      <point x="60.0" y="453" type="line" smooth="yes"/>
      <point x="60.0" y="420"/>
      <point x="74.0" y="407"/>
      <point x="106.0" y="407" type="curve" smooth="yes"/>
    </contour>
    <contour>
      <point x="628.0" y="107" type="line" smooth="yes"/>
      <point x="660.0" y="107"/>
      <point x="674.0" y="120"/>
      <point x="674.0" y="153" type="curve" smooth="yes"/>
      <point x="674.0" y="267" type="line" smooth="yes"/>
      <point x="674.0" y="300"/>
      <point x="660.0" y="313"/>
      <point x="628.0" y="313" type="curve" smooth="yes"/>
      <point x="106.0" y="313" type="line" smooth="yes"/>
      <point x="74.0" y="313"/>
      <point x="60.0" y="299"/>
      <point x="60.0" y="267" type="curve" smooth="yes"/>
      <point x="60.0" y="153" type="line" smooth="yes"/>
      <point x="60.0" y="120"/>
      <point x="74.0" y="107"/>
      <point x="106.0" y="107" type="curve" smooth="yes"/>
    </contour>
  </outline>
</glyph>
<glyph name="greater" format="1">
  <advance width="714"/>
  <unicode hex="003E"/>
  <outline>
    <contour>
      <point x="128.0" y="49" type="curve"/>
      <point x="510.0" y="158" type="line" smooth="yes"/>
      <point x="598.0" y="184"/>
      <point x="644.0" y="218"/>
      <point x="644.0" y="323" type="curve" smooth="yes"/>
      <point x="644.0" y="395" type="line" smooth="yes"/>
      <point x="644.0" y="500"/>
      <point x="598.0" y="534"/>
      <point x="510.0" y="560" type="curve" smooth="yes"/>
      <point x="129.0" y="669" type="line"/>
      <point x="95.0" y="675"/>
      <point x="80.0" y="663"/>
      <point x="80.0" y="628" type="curve" smooth="yes"/>
      <point x="80.0" y="496" type="line" smooth="yes"/>
      <point x="80.0" y="464"/>
      <point x="93.0" y="450"/>
      <point x="124.0" y="445" type="curve"/>
      <point x="123.0" y="445" type="line"/>
      <point x="410.0" y="368" type="line" smooth="yes"/>
      <point x="418.0" y="367"/>
      <point x="420.0" y="365"/>
      <point x="420.0" y="359" type="curve" smooth="yes"/>
      <point x="420.0" y="353"/>
      <point x="418.0" y="351"/>
      <point x="411.0" y="350" type="curve"/>
      <point x="123.0" y="273" type="line"/>
      <point x="124.0" y="273" type="line"/>
      <point x="93.0" y="268"/>
      <point x="80.0" y="254"/>
      <point x="80.0" y="222" type="curve" smooth="yes"/>
      <point x="80.0" y="90" type="line" smooth="yes"/>
      <point x="80.0" y="55"/>
      <point x="95.0" y="43"/>
    </contour>
  </outline>
</glyph>
<glyph name="question" format="1">
  <advance width="656"/>
  <unicode hex="003F"/>
  <outline>
    <contour>
      <point x="186.0" y="226" type="curve" smooth="yes"/>
      <point x="457.0" y="263" type="line" smooth="yes"/>
      <point x="558.0" y="277"/>
      <point x="621.0" y="321"/>
      <point x="621.0" y="439" type="curve" smooth="yes"/>
      <point x="621.0" y="544" type="line" smooth="yes"/>
      <point x="621.0" y="664"/>
      <point x="541.0" y="730"/>
      <point x="404.0" y="730" type="curve" smooth="yes"/>
      <point x="81.0" y="730" type="line" smooth="yes"/>
      <point x="49.0" y="730"/>
      <point x="35.0" y="716"/>
      <point x="35.0" y="684" type="curve" smooth="yes"/>
      <point x="35.0" y="563" type="line" smooth="yes"/>
      <point x="35.0" y="530"/>
      <point x="49.0" y="517"/>
      <point x="81.0" y="517" type="curve" smooth="yes"/>
      <point x="357.0" y="517" type="line" smooth="yes"/>
      <point x="368.0" y="517"/>
      <point x="374.0" y="511"/>
      <point x="374.0" y="499" type="curve" smooth="yes"/>
      <point x="374.0" y="485"/>
      <point x="369.0" y="480"/>
      <point x="356.0" y="478" type="curve" smooth="yes"/>
      <point x="157.0" y="450" type="line" smooth="yes"/>
      <point x="125.0" y="446"/>
      <point x="110.0" y="430"/>
      <point x="115.0" y="397" type="curve" smooth="yes"/>
      <point x="136.0" y="265" type="line" smooth="yes"/>
      <point x="141.0" y="233"/>
      <point x="154.0" y="222"/>
    </contour>
    <contour>
      <point x="390.0" y="36" type="curve" smooth="yes"/>
      <point x="390.0" y="167" type="line" smooth="yes"/>
      <point x="390.0" y="200"/>
      <point x="376.0" y="213"/>
      <point x="344.0" y="213" type="curve" smooth="yes"/>
      <point x="161.0" y="213" type="line" smooth="yes"/>
      <point x="128.0" y="213"/>
      <point x="115.0" y="200"/>
      <point x="115.0" y="167" type="curve" smooth="yes"/>
      <point x="115.0" y="36" type="line" smooth="yes"/>
      <point x="115.0" y="4"/>
      <point x="128.0" y="-10"/>
      <point x="161.0" y="-10" type="curve" smooth="yes"/>
      <point x="344.0" y="-10" type="line" smooth="yes"/>
      <point x="376.0" y="-10"/>
      <point x="390.0" y="4"/>
    </contour>
  </outline>
</glyph>
<glyph name="at" format="2">
  <advance width="867"/>
  <unicode hex="0040"/>
  <outline>
    <contour>
      <point x="434.0" y="-101" type="curve" smooth="yes"/>
      <point x="624.0" y="-101" type="line" smooth="yes"/>
      <point x="656.0" y="-101"/>
      <point x="668.0" y="-89"/>
      <point x="668.0" y="-57" type="curve" smooth="yes"/>
      <point x="668.0" y="-29" type="line" smooth="yes"/>
      <point x="668.0" y="3"/>
      <point x="656.0" y="15"/>
      <point x="624.0" y="15" type="curve" smooth="yes"/>
      <point x="434.0" y="15" type="line" smooth="yes"/>
      <point x="229.0" y="15"/>
      <point x="170.0" y="67"/>
      <point x="170.0" y="150" type="curve" smooth="yes"/>
      <point x="170.0" y="568" type="line" smooth="yes"/>
      <point x="170.0" y="652"/>
      <point x="229.0" y="705"/>
      <point x="434.0" y="705" type="curve" smooth="yes"/>
      <point x="639.0" y="705"/>
      <point x="697.0" y="652"/>
      <point x="697.0" y="568" type="curve" smooth="yes"/>
      <point x="697.0" y="302" type="line" smooth="yes"/>
      <point x="697.0" y="261"/>
      <point x="692.0" y="227"/>
      <point x="655.0" y="222" type="curve"/>
      <point x="655.0" y="560" type="line" smooth="yes"/>
      <point x="655.0" y="585"/>
      <point x="644.0" y="596"/>
      <point x="619.0" y="596" type="curve" smooth="yes"/>
      <point x="394.0" y="596" type="line" smooth="yes"/>
      <point x="249.0" y="596"/>
      <point x="208.0" y="532"/>
      <point x="208.0" y="439" type="curve" smooth="yes"/>
      <point x="208.0" y="246" type="line" smooth="yes"/>
      <point x="208.0" y="154"/>
      <point x="249.0" y="90"/>
      <point x="394.0" y="90" type="curve" smooth="yes"/>
      <point x="583.0" y="90" type="line" smooth="yes"/>
      <point x="780.0" y="90"/>
      <point x="817.0" y="177"/>
      <point x="817.0" y="304" type="curve" smooth="yes"/>
      <point x="817.0" y="564" type="line" smooth="yes"/>
      <point x="817.0" y="715"/>
      <point x="747.0" y="821"/>
      <point x="434.0" y="821" type="curve" smooth="yes"/>
      <point x="122.0" y="821"/>
      <point x="50.0" y="715"/>
      <point x="50.0" y="564" type="curve" smooth="yes"/>
      <point x="50.0" y="154" type="line" smooth="yes"/>
      <point x="50.0" y="4"/>
      <point x="122.0" y="-101"/>
    </contour>
    <contour>
      <point x="415.0" y="247" type="line" smooth="yes"/>
      <point x="396.0" y="247"/>
      <point x="391.0" y="257"/>
      <point x="391.0" y="271" type="curve" smooth="yes"/>
      <point x="391.0" y="422" type="line" smooth="yes"/>
      <point x="391.0" y="436"/>
      <point x="398.0" y="448"/>
      <point x="425.0" y="448" type="curve" smooth="yes"/>
      <point x="472.0" y="448" type="line"/>
      <point x="472.0" y="247" type="line"/>
    </contour>
  </outline>
</glyph>
<glyph name="A" format="1">
  <advance width="730"/>
  <unicode hex="0041"/>
  <outline>
    <contour>
      <point x="383.0" y="507" type="line"/>
      <point x="426.0" y="368" type="line"/>
      <point x="297.0" y="368" type="line"/>
      <point x="340.0" y="507" type="line"/>
      <point x="339.0" y="506" type="line"/>
      <point x="342.0" y="512"/>
      <point x="344.0" y="517"/>
      <point x="349.0" y="517" type="curve" smooth="yes"/>
      <point x="374.0" y="517" type="line" smooth="yes"/>
      <point x="379.0" y="517"/>
      <point x="381.0" y="512"/>
      <point x="384.0" y="506" type="curve"/>
    </contour>
    <contour>
      <point x="90.0" y="-10" type="curve" smooth="yes"/>
      <point x="237.0" y="-10" type="line" smooth="yes"/>
      <point x="269.0" y="-10"/>
      <point x="283.0" y="4"/>
      <point x="283.0" y="36" type="curve" smooth="yes"/>
      <point x="283.0" y="166" type="line"/>
      <point x="440.0" y="166" type="line"/>
      <point x="440.0" y="36" type="line" smooth="yes"/>
      <point x="440.0" y="5"/>
      <point x="455.0" y="-10"/>
      <point x="489.0" y="-10" type="curve" smooth="yes"/>
      <point x="640.0" y="-10" type="line" smooth="yes"/>
      <point x="672.0" y="-10"/>
      <point x="686.0" y="4"/>
      <point x="686.0" y="36" type="curve" smooth="yes"/>
      <point x="686.0" y="300" type="line" smooth="yes"/>
      <point x="686.0" y="341"/>
      <point x="674.0" y="392"/>
      <point x="646.0" y="464" type="curve" smooth="yes"/>
      <point x="559.0" y="691" type="line" smooth="yes"/>
      <point x="550.0" y="718"/>
      <point x="531.0" y="730"/>
      <point x="500.0" y="730" type="curve" smooth="yes"/>
      <point x="231.0" y="730" type="line" smooth="yes"/>
      <point x="199.0" y="730"/>
      <point x="180.0" y="718"/>
      <point x="171.0" y="690" type="curve" smooth="yes"/>
      <point x="84.0" y="464" type="line" smooth="yes"/>
      <point x="56.0" y="392"/>
      <point x="44.0" y="341"/>
      <point x="44.0" y="300" type="curve" smooth="yes"/>
      <point x="44.0" y="36" type="line" smooth="yes"/>
      <point x="44.0" y="4"/>
      <point x="58.0" y="-10"/>
    </contour>
  </outline>
</glyph>
<glyph name="B" format="2">
  <advance width="725"/>
  <unicode hex="0042"/>
  <outline>
    <contour>
      <point x="105.0" y="-10" type="curve" smooth="yes"/>
      <point x="489.0" y="-10" type="line" smooth="yes"/>
      <point x="630.0" y="-10"/>
      <point x="693.0" y="46"/>
      <point x="693.0" y="164" type="curve" smooth="yes"/>
      <point x="693.0" y="256" type="line" smooth="yes"/>
      <point x="693.0" y="350"/>
      <point x="658.0" y="400"/>
      <point x="586.0" y="417" type="curve"/>
      <point x="613.0" y="438"/>
      <point x="626.0" y="471"/>
      <point x="626.0" y="519" type="curve" smooth="yes"/>
      <point x="626.0" y="567" type="line" smooth="yes"/>
      <point x="626.0" y="677"/>
      <point x="564.0" y="730"/>
      <point x="424.0" y="730" type="curve" smooth="yes"/>
      <point x="105.0" y="730" type="line" smooth="yes"/>
      <point x="73.0" y="730"/>
      <point x="59.0" y="716"/>
      <point x="59.0" y="684" type="curve" smooth="yes"/>
      <point x="59.0" y="36" type="line" smooth="yes"/>
      <point x="59.0" y="4"/>
      <point x="73.0" y="-10"/>
    </contour>
    <contour>
      <point x="379.0" y="540" type="line" smooth="yes"/>
      <point x="399.0" y="540"/>
      <point x="407.0" y="530"/>
      <point x="407.0" y="510" type="curve" smooth="yes"/>
      <point x="407.0" y="482" type="line" smooth="yes"/>
      <point x="407.0" y="462"/>
      <point x="399.0" y="452"/>
      <point x="379.0" y="452" type="curve" smooth="yes"/>
      <point x="304.0" y="452" type="line"/>
      <point x="304.0" y="540" type="line"/>
    </contour>
    <contour>
      <point x="424.0" y="278" type="line" smooth="yes"/>
      <point x="443.0" y="278"/>
      <point x="452.0" y="269"/>
      <point x="452.0" y="249" type="curve" smooth="yes"/>
      <point x="452.0" y="210" type="line" smooth="yes"/>
      <point x="452.0" y="190"/>
      <point x="444.0" y="180"/>
      <point x="424.0" y="180" type="curve" smooth="yes"/>
      <point x="304.0" y="180" type="line"/>
      <point x="304.0" y="278" type="line"/>
    </contour>
  </outline>
</glyph>
<glyph name="C" format="2">
  <advance width="628"/>
  <unicode hex="0043"/>
  <outline>
    <contour>
      <point x="594.0" y="36" type="curve" smooth="yes"/>
      <point x="594.0" y="155" type="line" smooth="yes"/>
      <point x="594.0" y="187"/>
      <point x="580.0" y="201"/>
      <point x="548.0" y="201" type="curve" smooth="yes"/>
      <point x="347.0" y="201" type="line" smooth="yes"/>
      <point x="314.0" y="201"/>
      <point x="296.0" y="211"/>
      <point x="296.0" y="239" type="curve" smooth="yes"/>
      <point x="296.0" y="477" type="line" smooth="yes"/>
      <point x="296.0" y="505"/>
      <point x="313.0" y="517"/>
      <point x="347.0" y="517" type="curve" smooth="yes"/>
      <point x="548.0" y="517" type="line" smooth="yes"/>
      <point x="580.0" y="517"/>
      <point x="594.0" y="531"/>
      <point x="594.0" y="563" type="curve" smooth="yes"/>
      <point x="594.0" y="684" type="line" smooth="yes"/>
      <point x="594.0" y="716"/>
      <point x="580.0" y="730"/>
      <point x="548.0" y="730" type="curve" smooth="yes"/>
      <point x="304.0" y="730" type="line" smooth="yes"/>
      <point x="128.0" y="730"/>
      <point x="48.0" y="661"/>
      <point x="48.0" y="515" type="curve" smooth="yes"/>
      <point x="48.0" y="204" type="line" smooth="yes"/>
      <point x="48.0" y="59"/>
      <point x="128.0" y="-10"/>
      <point x="304.0" y="-10" type="curve" smooth="yes"/>
      <point x="548.0" y="-10" type="line" smooth="yes"/>
      <point x="580.0" y="-10"/>
      <point x="594.0" y="4"/>
    </contour>
  </outline>
</glyph>
<glyph name="D" format="1">
  <advance width="746"/>
  <unicode hex="0044"/>
  <outline>
    <contour>
      <point x="698.0" y="204" type="curve" smooth="yes"/>
      <point x="698.0" y="516" type="line" smooth="yes"/>
      <point x="698.0" y="661"/>
      <point x="618.0" y="730"/>
      <point x="442.0" y="730" type="curve" smooth="yes"/>
      <point x="105.0" y="730" type="line" smooth="yes"/>
      <point x="73.0" y="730"/>
      <point x="59.0" y="716"/>
      <point x="59.0" y="684" type="curve" smooth="yes"/>
      <point x="59.0" y="36" type="line" smooth="yes"/>
      <point x="59.0" y="4"/>
      <point x="73.0" y="-10"/>
      <point x="105.0" y="-10" type="curve" smooth="yes"/>
      <point x="442.0" y="-10" type="line" smooth="yes"/>
      <point x="618.0" y="-10"/>
      <point x="698.0" y="59"/>
    </contour>
    <contour>
      <point x="415.0" y="519" type="line" smooth="yes"/>
      <point x="440.0" y="519"/>
      <point x="452.0" y="507"/>
      <point x="452.0" y="481" type="curve" smooth="yes"/>
      <point x="452.0" y="238" type="line" smooth="yes"/>
      <point x="452.0" y="211"/>
      <point x="440.0" y="199"/>
      <point x="415.0" y="199" type="curve" smooth="yes"/>
      <point x="306.0" y="199" type="line"/>
      <point x="306.0" y="519" type="line"/>
    </contour>
  </outline>
</glyph>
<glyph name="E" format="2">
  <advance width="654"/>
  <unicode hex="0045"/>
  <outline>
    <contour>
      <point x="105.0" y="-10" type="curve" smooth="yes"/>
      <point x="569.0" y="-10" type="line" smooth="yes"/>
      <point x="601.0" y="-10"/>
      <point x="615.0" y="4"/>
      <point x="615.0" y="36" type="curve" smooth="yes"/>
      <point x="615.0" y="153" type="line" smooth="yes"/>
      <point x="615.0" y="185"/>
      <point x="601.0" y="199"/>
      <point x="569.0" y="199" type="curve" smooth="yes"/>
      <point x="303.0" y="199" type="line"/>
      <point x="303.0" y="265" type="line"/>
      <point x="488.0" y="265" type="line" smooth="yes"/>
      <point x="520.0" y="265"/>
      <point x="534.0" y="279"/>
      <point x="534.0" y="311" type="curve" smooth="yes"/>
      <point x="534.0" y="418" type="line" smooth="yes"/>
      <point x="534.0" y="450"/>
      <point x="520.0" y="464"/>
      <point x="488.0" y="464" type="curve" smooth="yes"/>
      <point x="303.0" y="464" type="line"/>
      <point x="303.0" y="521" type="line"/>
      <point x="569.0" y="521" type="line" smooth="yes"/>
      <point x="601.0" y="521"/>
      <point x="615.0" y="535"/>
      <point x="615.0" y="567" type="curve" smooth="yes"/>
      <point x="615.0" y="684" type="line" smooth="yes"/>
      <point x="615.0" y="716"/>
      <point x="601.0" y="730"/>
      <point x="569.0" y="730" type="curve" smooth="yes"/>
      <point x="105.0" y="730" type="line" smooth="yes"/>
      <point x="73.0" y="730"/>
      <point x="59.0" y="716"/>
      <point x="59.0" y="684" type="curve" smooth="yes"/>
      <point x="59.0" y="36" type="line" smooth="yes"/>
      <point x="59.0" y="4"/>
      <point x="73.0" y="-10"/>
    </contour>
  </outline>
</glyph>
<glyph name="F" format="1">
  <advance width="618"/>
  <unicode hex="0046"/>
  <outline>
    <contour>
      <point x="105.0" y="-10" type="curve" smooth="yes"/>
      <point x="260.0" y="-10" type="line" smooth="yes"/>
      <point x="292.0" y="-10"/>
      <point x="306.0" y="4"/>
      <point x="306.0" y="36" type="curve" smooth="yes"/>
      <point x="306.0" y="223" type="line"/>
      <point x="470.0" y="223" type="line" smooth="yes"/>
      <point x="502.0" y="223"/>
      <point x="516.0" y="237"/>
      <point x="516.0" y="269" type="curve" smooth="yes"/>
      <point x="516.0" y="389" type="line" smooth="yes"/>
      <point x="516.0" y="421"/>
      <point x="502.0" y="435"/>
      <point x="470.0" y="435" type="curve" smooth="yes"/>
      <point x="306.0" y="435" type="line"/>
      <point x="306.0" y="519" type="line"/>
      <point x="551.0" y="519" type="line" smooth="yes"/>
      <point x="583.0" y="519"/>
      <point x="597.0" y="533"/>
      <point x="597.0" y="565" type="curve" smooth="yes"/>
      <point x="597.0" y="684" type="line" smooth="yes"/>
      <point x="597.0" y="716"/>
      <point x="583.0" y="730"/>
      <point x="551.0" y="730" type="curve" smooth="yes"/>
      <point x="105.0" y="730" type="line" smooth="yes"/>
      <point x="73.0" y="730"/>
      <point x="59.0" y="716"/>
      <point x="59.0" y="684" type="curve" smooth="yes"/>
      <point x="59.0" y="36" type="line" smooth="yes"/>
      <point x="59.0" y="4"/>
      <point x="73.0" y="-10"/>
    </contour>
  </outline>
</glyph>
<glyph name="G" format="2">
  <advance width="708"/>
  <unicode hex="0047"/>
  <outline>
    <contour>
      <point x="304.0" y="-10" type="curve" smooth="yes"/>
      <point x="619.0" y="-10" type="line" smooth="yes"/>
      <point x="651.0" y="-10"/>
      <point x="665.0" y="4"/>
      <point x="665.0" y="36" type="curve" smooth="yes"/>
      <point x="665.0" y="345" type="line" smooth="yes"/>
      <point x="665.0" y="377"/>
      <point x="651.0" y="391"/>
      <point x="619.0" y="391" type="curve" smooth="yes"/>
      <point x="464.0" y="391" type="line" smooth="yes"/>
      <point x="432.0" y="391"/>
      <point x="418.0" y="377"/>
      <point x="418.0" y="345" type="curve" smooth="yes"/>
      <point x="418.0" y="199" type="line"/>
      <point x="331.0" y="199" type="line" smooth="yes"/>
      <point x="306.0" y="199"/>
      <point x="295.0" y="211"/>
      <point x="295.0" y="238" type="curve" smooth="yes"/>
      <point x="295.0" y="477" type="line" smooth="yes"/>
      <point x="295.0" y="505"/>
      <point x="312.0" y="517"/>
      <point x="346.0" y="517" type="curve" smooth="yes"/>
      <point x="554.0" y="517" type="line" smooth="yes"/>
      <point x="586.0" y="517"/>
      <point x="600.0" y="531"/>
      <point x="600.0" y="563" type="curve" smooth="yes"/>
      <point x="600.0" y="684" type="line" smooth="yes"/>
      <point x="600.0" y="716"/>
      <point x="586.0" y="730"/>
      <point x="554.0" y="730" type="curve" smooth="yes"/>
      <point x="304.0" y="730" type="line" smooth="yes"/>
      <point x="128.0" y="730"/>
      <point x="48.0" y="661"/>
      <point x="48.0" y="516" type="curve" smooth="yes"/>
      <point x="48.0" y="204" type="line" smooth="yes"/>
      <point x="48.0" y="59"/>
      <point x="128.0" y="-10"/>
    </contour>
  </outline>
</glyph>
<glyph name="H" format="2">
  <advance width="759"/>
  <unicode hex="0048"/>
  <outline>
    <contour>
      <point x="105.0" y="-10" type="curve" smooth="yes"/>
      <point x="260.0" y="-10" type="line" smooth="yes"/>
      <point x="292.0" y="-10"/>
      <point x="306.0" y="4"/>
      <point x="306.0" y="36" type="curve" smooth="yes"/>
      <point x="306.0" y="248" type="line"/>
      <point x="453.0" y="248" type="line"/>
      <point x="453.0" y="36" type="line" smooth="yes"/>
      <point x="453.0" y="4"/>
      <point x="467.0" y="-10"/>
      <point x="499.0" y="-10" type="curve" smooth="yes"/>
      <point x="654.0" y="-10" type="line" smooth="yes"/>
      <point x="686.0" y="-10"/>
      <point x="700.0" y="4"/>
      <point x="700.0" y="36" type="curve" smooth="yes"/>
      <point x="700.0" y="684" type="line" smooth="yes"/>
      <point x="700.0" y="716"/>
      <point x="686.0" y="730"/>
      <point x="654.0" y="730" type="curve" smooth="yes"/>
      <point x="499.0" y="730" type="line" smooth="yes"/>
      <point x="467.0" y="730"/>
      <point x="453.0" y="716"/>
      <point x="453.0" y="684" type="curve" smooth="yes"/>
      <point x="453.0" y="477" type="line"/>
      <point x="306.0" y="477" type="line"/>
      <point x="306.0" y="684" type="line" smooth="yes"/>
      <point x="306.0" y="716"/>
      <point x="292.0" y="730"/>
      <point x="260.0" y="730" type="curve" smooth="yes"/>
      <point x="105.0" y="730" type="line" smooth="yes"/>
      <point x="73.0" y="730"/>
      <point x="59.0" y="716"/>
      <point x="59.0" y="684" type="curve" smooth="yes"/>
      <point x="59.0" y="36" type="line" smooth="yes"/>
      <point x="59.0" y="4"/>
      <point x="73.0" y="-10"/>
    </contour>
  </outline>
</glyph>
<glyph name="I" format="2">
  <advance width="605"/>
  <unicode hex="0049"/>
  <outline>
    <contour>
      <point x="89.0" y="-10" type="curve" smooth="yes"/>
      <point x="515.0" y="-10" type="line" smooth="yes"/>
      <point x="547.0" y="-10"/>
      <point x="561.0" y="4"/>
      <point x="561.0" y="36" type="curve" smooth="yes"/>
      <point x="561.0" y="155" type="line" smooth="yes"/>
      <point x="561.0" y="187"/>
      <point x="547.0" y="201"/>
      <point x="515.0" y="201" type="curve" smooth="yes"/>
      <point x="428.0" y="201" type="line"/>
      <point x="428.0" y="517" type="line"/>
      <point x="515.0" y="517" type="line" smooth="yes"/>
      <point x="547.0" y="517"/>
      <point x="561.0" y="531"/>
      <point x="561.0" y="563" type="curve" smooth="yes"/>
      <point x="561.0" y="684" type="line" smooth="yes"/>
      <point x="561.0" y="716"/>
      <point x="547.0" y="730"/>
      <point x="515.0" y="730" type="curve" smooth="yes"/>
      <point x="89.0" y="730" type="line" smooth="yes"/>
      <point x="57.0" y="730"/>
      <point x="43.0" y="716"/>
      <point x="43.0" y="684" type="curve" smooth="yes"/>
      <point x="43.0" y="563" type="line" smooth="yes"/>
      <point x="43.0" y="531"/>
      <point x="57.0" y="517"/>
      <point x="89.0" y="517" type="curve" smooth="yes"/>
      <point x="178.0" y="517" type="line"/>
      <point x="178.0" y="201" type="line"/>
      <point x="89.0" y="201" type="line" smooth="yes"/>
      <point x="57.0" y="201"/>
      <point x="43.0" y="187"/>
      <point x="43.0" y="155" type="curve" smooth="yes"/>
      <point x="43.0" y="36" type="line" smooth="yes"/>
      <point x="43.0" y="4"/>
      <point x="57.0" y="-10"/>
    </contour>
  </outline>
</glyph>
<glyph name="J" format="1">
  <advance width="688"/>
  <unicode hex="004A"/>
  <outline>
    <contour>
      <point x="634.0" y="684" type="line" smooth="yes"/>
      <point x="634.0" y="716"/>
      <point x="620.0" y="730"/>
      <point x="588.0" y="730" type="curve" smooth="yes"/>
      <point x="431.0" y="730" type="line" smooth="yes"/>
      <point x="399.0" y="730"/>
      <point x="385.0" y="716"/>
      <point x="385.0" y="684" type="curve" smooth="yes"/>
      <point x="385.0" y="229" type="line" smooth="yes"/>
      <point x="385.0" y="206"/>
      <point x="375.0" y="192"/>
      <point x="329.0" y="192" type="curve" smooth="yes"/>
      <point x="280.0" y="192"/>
      <point x="268.0" y="206"/>
      <point x="268.0" y="229" type="curve" smooth="yes"/>
      <point x="268.0" y="351" type="line" smooth="yes"/>
      <point x="268.0" y="384"/>
      <point x="254.0" y="397"/>
      <point x="222.0" y="397" type="curve" smooth="yes"/>
      <point x="77.0" y="397" type="line" smooth="yes"/>
      <point x="45.0" y="397"/>
      <point x="31.0" y="384"/>
      <point x="31.0" y="351" type="curve" smooth="yes"/>
      <point x="31.0" y="189" type="line"/>
      <point x="31.0" y="63"/>
      <point x="87.0" y="-25"/>
      <point x="331.0" y="-25" type="curve" smooth="yes"/>
      <point x="578.0" y="-25"/>
      <point x="634.0" y="63"/>
      <point x="634.0" y="189" type="curve" smooth="yes"/>
    </contour>
  </outline>
</glyph>
<glyph name="K" format="2">
  <advance width="746"/>
  <unicode hex="004B"/>
  <outline>
    <contour>
      <point x="260.0" y="-10" type="line" smooth="yes"/>
      <point x="292.0" y="-10"/>
      <point x="306.0" y="4"/>
      <point x="306.0" y="36" type="curve" smooth="yes"/>
      <point x="306.0" y="255" type="line"/>
      <point x="428.0" y="255" type="line" smooth="yes"/>
      <point x="443.0" y="255"/>
      <point x="450.0" y="246"/>
      <point x="450.0" y="231" type="curve" smooth="yes"/>
      <point x="450.0" y="36" type="line" smooth="yes"/>
      <point x="450.0" y="4"/>
      <point x="464.0" y="-10"/>
      <point x="496.0" y="-10" type="curve" smooth="yes"/>
      <point x="650.0" y="-10" type="line" smooth="yes"/>
      <point x="682.0" y="-10"/>
      <point x="696.0" y="4"/>
      <point x="696.0" y="36" type="curve" smooth="yes"/>
      <point x="696.0" y="318" type="line" smooth="yes"/>
      <point x="696.0" y="399"/>
      <point x="650.0" y="453"/>
      <point x="578.0" y="463" type="curve"/>
      <point x="674.0" y="683" type="line" smooth="yes"/>
      <point x="687.0" y="713"/>
      <point x="676.0" y="730"/>
      <point x="643.0" y="730" type="curve" smooth="yes"/>
      <point x="489.0" y="730" type="line" smooth="yes"/>
      <point x="458.0" y="730"/>
      <point x="442.0" y="719"/>
      <point x="430.0" y="691" type="curve" smooth="yes"/>
      <point x="330.0" y="464" type="line"/>
      <point x="306.0" y="464" type="line"/>
      <point x="306.0" y="684" type="line" smooth="yes"/>
      <point x="306.0" y="716"/>
      <point x="292.0" y="730"/>
      <point x="260.0" y="730" type="curve" smooth="yes"/>
      <point x="105.0" y="730" type="line" smooth="yes"/>
      <point x="73.0" y="730"/>
      <point x="59.0" y="716"/>
      <point x="59.0" y="684" type="curve" smooth="yes"/>
      <point x="59.0" y="36" type="line" smooth="yes"/>
      <point x="59.0" y="4"/>
      <point x="73.0" y="-10"/>
      <point x="105.0" y="-10" type="curve" smooth="yes"/>
    </contour>
  </outline>
</glyph>
<glyph name="M" format="1">
  <advance width="849"/>
  <unicode hex="004D"/>
  <outline>
    <contour>
      <point x="254.0" y="-10" type="line" smooth="yes"/>
      <point x="286.0" y="-10"/>
      <point x="300.0" y="4"/>
      <point x="300.0" y="36" type="curve" smooth="yes"/>
      <point x="300.0" y="348" type="line"/>
      <point x="340.0" y="274" type="line" smooth="yes"/>
      <point x="354.0" y="248"/>
      <point x="372.0" y="237"/>
      <point x="402.0" y="237" type="curve" smooth="yes"/>
      <point x="442.0" y="237" type="line" smooth="yes"/>
      <point x="472.0" y="237"/>
      <point x="490.0" y="248"/>
      <point x="504.0" y="274" type="curve" smooth="yes"/>
      <point x="544.0" y="348" type="line"/>
      <point x="544.0" y="36" type="line" smooth="yes"/>
      <point x="544.0" y="4"/>
      <point x="557.0" y="-10"/>
      <point x="590.0" y="-10" type="curve" smooth="yes"/>
      <point x="744.0" y="-10" type="line" smooth="yes"/>
      <point x="776.0" y="-10"/>
      <point x="790.0" y="4"/>
      <point x="790.0" y="36" type="curve" smooth="yes"/>
      <point x="790.0" y="684" type="line" smooth="yes"/>
      <point x="790.0" y="716"/>
      <point x="776.0" y="730"/>
      <point x="744.0" y="730" type="curve" smooth="yes"/>
      <point x="582.0" y="730" type="line" smooth="yes"/>
      <point x="557.0" y="730"/>
      <point x="542.0" y="721"/>
      <point x="527.0" y="695" type="curve" smooth="yes"/>
      <point x="438.0" y="532" type="line" smooth="yes"/>
      <point x="435.0" y="526"/>
      <point x="434.0" y="520"/>
      <point x="429.0" y="520" type="curve" smooth="yes"/>
      <point x="420.0" y="520" type="line" smooth="yes"/>
      <point x="415.0" y="520"/>
      <point x="414.0" y="526"/>
      <point x="411.0" y="532" type="curve" smooth="yes"/>
      <point x="321.0" y="695" type="line" smooth="yes"/>
      <point x="306.0" y="721"/>
      <point x="291.0" y="730"/>
      <point x="266.0" y="730" type="curve" smooth="yes"/>
      <point x="105.0" y="730" type="line" smooth="yes"/>
      <point x="73.0" y="730"/>
      <point x="59.0" y="716"/>
      <point x="59.0" y="684" type="curve" smooth="yes"/>
      <point x="59.0" y="36" type="line" smooth="yes"/>
      <point x="59.0" y="4"/>
      <point x="73.0" y="-10"/>
      <point x="105.0" y="-10" type="curve" smooth="yes"/>
    </contour>
  </outline>
</glyph>
<glyph name="N" format="1">
  <advance width="753"/>
  <unicode hex="004E"/>
  <outline>
    <contour>
      <point x="255.0" y="-10" type="line" smooth="yes"/>
      <point x="287.0" y="-10"/>
      <point x="301.0" y="4"/>
      <point x="301.0" y="36" type="curve" smooth="yes"/>
      <point x="301.0" y="338" type="line"/>
      <point x="452.0" y="155" type="line"/>
      <point x="452.0" y="36" type="line" smooth="yes"/>
      <point x="452.0" y="4"/>
      <point x="466.0" y="-10"/>
      <point x="498.0" y="-10" type="curve" smooth="yes"/>
      <point x="648.0" y="-10" type="line" smooth="yes"/>
      <point x="680.0" y="-10"/>
      <point x="694.0" y="4"/>
      <point x="694.0" y="36" type="curve" smooth="yes"/>
      <point x="694.0" y="684" type="line" smooth="yes"/>
      <point x="694.0" y="716"/>
      <point x="680.0" y="730"/>
      <point x="648.0" y="730" type="curve" smooth="yes"/>
      <point x="498.0" y="730" type="line" smooth="yes"/>
      <point x="466.0" y="730"/>
      <point x="452.0" y="716"/>
      <point x="452.0" y="684" type="curve" smooth="yes"/>
      <point x="452.0" y="499" type="line"/>
      <point x="276.0" y="700" type="line" smooth="yes"/>
      <point x="256.0" y="722"/>
      <point x="238.0" y="730"/>
      <point x="209.0" y="730" type="curve" smooth="yes"/>
      <point x="105.0" y="730" type="line" smooth="yes"/>
      <point x="73.0" y="730"/>
      <point x="59.0" y="716"/>
      <point x="59.0" y="684" type="curve" smooth="yes"/>
      <point x="59.0" y="36" type="line" smooth="yes"/>
      <point x="59.0" y="4"/>
      <point x="73.0" y="-10"/>
      <point x="105.0" y="-10" type="curve" smooth="yes"/>
    </contour>
  </outline>
</glyph>
<glyph name="P" format="1">
  <advance width="682"/>
  <unicode hex="0050"/>
  <outline>
    <contour>
      <point x="105.0" y="-10" type="curve" smooth="yes"/>
      <point x="260.0" y="-10" type="line" smooth="yes"/>
      <point x="292.0" y="-10"/>
      <point x="306.0" y="4"/>
      <point x="306.0" y="36" type="curve" smooth="yes"/>
      <point x="306.0" y="192" type="line"/>
      <point x="411.0" y="192" type="line" smooth="yes"/>
      <point x="602.0" y="192"/>
      <point x="657.0" y="276"/>
      <point x="657.0" y="397" type="curve" smooth="yes"/>
      <point x="657.0" y="525" type="line" smooth="yes"/>
      <point x="657.0" y="646"/>
      <point x="602.0" y="730"/>
      <point x="411.0" y="730" type="curve" smooth="yes"/>
      <point x="105.0" y="730" type="line" smooth="yes"/>
      <point x="73.0" y="730"/>
      <point x="59.0" y="716"/>
      <point x="59.0" y="684" type="curve" smooth="yes"/>
      <point x="59.0" y="36" type="line" smooth="yes"/>
      <point x="59.0" y="4"/>
      <point x="73.0" y="-10"/>
    </contour>
    <contour>
      <point x="384.0" y="523" type="line" smooth="yes"/>
      <point x="415.0" y="523"/>
      <point x="421.0" y="504"/>
      <point x="421.0" y="484" type="curve" smooth="yes"/>
      <point x="421.0" y="431" type="line" smooth="yes"/>
      <point x="421.0" y="411"/>
      <point x="415.0" y="392"/>
      <point x="384.0" y="392" type="curve" smooth="yes"/>
      <point x="304.0" y="392" type="line"/>
      <point x="304.0" y="523" type="line"/>
    </contour>
  </outline>
</glyph>
<glyph name="Q" format="1">
  <advance width="737"/>
  <unicode hex="0051"/>
  <outline>
    <contour>
      <point x="291.0" y="-100" type="curve" smooth="yes"/>
      <point x="445.0" y="-100" type="line" smooth="yes"/>
      <point x="477.0" y="-100"/>
      <point x="491.0" y="-86"/>
      <point x="491.0" y="-54" type="curve" smooth="yes"/>
      <point x="491.0" y="-8" type="line"/>
      <point x="649.0" y="17"/>
      <point x="689.0" y="95"/>
      <point x="689.0" y="198" type="curve" smooth="yes"/>
      <point x="689.0" y="530" type="line" smooth="yes"/>
      <point x="689.0" y="656"/>
      <point x="631.0" y="745"/>
      <point x="369.0" y="745" type="curve" smooth="yes"/>
      <point x="107.0" y="745"/>
      <point x="48.0" y="656"/>
      <point x="48.0" y="530" type="curve" smooth="yes"/>
      <point x="48.0" y="198" type="line" smooth="yes"/>
      <point x="48.0" y="95"/>
      <point x="89.0" y="18"/>
      <point x="245.0" y="-8" type="curve"/>
      <point x="245.0" y="-54" type="line" smooth="yes"/>
      <point x="245.0" y="-86"/>
      <point x="259.0" y="-100"/>
    </contour>
    <contour>
      <point x="295.0" y="493" type="line" smooth="yes"/>
      <point x="295.0" y="516"/>
      <point x="313.0" y="529"/>
      <point x="369.0" y="529" type="curve" smooth="yes"/>
      <point x="426.0" y="529"/>
      <point x="443.0" y="516"/>
      <point x="443.0" y="493" type="curve" smooth="yes"/>
      <point x="443.0" y="220" type="line" smooth="yes"/>
      <point x="443.0" y="196"/>
      <point x="426.0" y="183"/>
      <point x="369.0" y="183" type="curve" smooth="yes"/>
      <point x="312.0" y="183"/>
      <point x="295.0" y="196"/>
      <point x="295.0" y="220" type="curve" smooth="yes"/>
    </contour>
  </outline>
</glyph>
<glyph name="T" format="2">
  <advance width="656"/>
  <unicode hex="0054"/>
  <outline>
    <contour>
      <point x="247.0" y="-10" type="curve" smooth="yes"/>
      <point x="409.0" y="-10" type="line" smooth="yes"/>
      <point x="441.0" y="-10"/>
      <point x="455.0" y="4"/>
      <point x="455.0" y="36" type="curve" smooth="yes"/>
      <point x="455.0" y="517" type="line"/>
      <point x="592.0" y="517" type="line" smooth="yes"/>
      <point x="624.0" y="517"/>
      <point x="638.0" y="531"/>
      <point x="638.0" y="563" type="curve" smooth="yes"/>
      <point x="638.0" y="684" type="line" smooth="yes"/>
      <point x="638.0" y="716"/>
      <point x="624.0" y="730"/>
      <point x="592.0" y="730" type="curve" smooth="yes"/>
      <point x="64.0" y="730" type="line" smooth="yes"/>
      <point x="32.0" y="730"/>
      <point x="18.0" y="716"/>
      <point x="18.0" y="684" type="curve" smooth="yes"/>
      <point x="18.0" y="563" type="line"/>
      <point x="18.0" y="531"/>
      <point x="32.0" y="517"/>
      <point x="64.0" y="517" type="curve" smooth="yes"/>
      <point x="201.0" y="517" type="line"/>
      <point x="201.0" y="36" type="line" smooth="yes"/>
      <point x="201.0" y="4"/>
      <point x="215.0" y="-10"/>
    </contour>
  </outline>
</glyph>
<glyph name="U" format="1">
  <advance width="746"/>
  <unicode hex="0055"/>
  <outline>
    <contour>
      <point x="692.0" y="684" type="line" smooth="yes"/>
      <point x="692.0" y="716"/>
      <point x="678.0" y="730"/>
      <point x="646.0" y="730" type="curve" smooth="yes"/>
      <point x="494.0" y="730" type="line" smooth="yes"/>
      <point x="461.0" y="730"/>
      <point x="448.0" y="716"/>
      <point x="448.0" y="684" type="curve" smooth="yes"/>
      <point x="448.0" y="228" type="line" smooth="yes"/>
      <point x="448.0" y="204"/>
      <point x="431.0" y="191"/>
      <point x="375.0" y="191" type="curve" smooth="yes"/>
      <point x="320.0" y="191"/>
      <point x="303.0" y="204"/>
      <point x="303.0" y="228" type="curve" smooth="yes"/>
      <point x="303.0" y="684" type="line" smooth="yes"/>
      <point x="303.0" y="716"/>
      <point x="289.0" y="730"/>
      <point x="257.0" y="730" type="curve" smooth="yes"/>
      <point x="100.0" y="730" type="line" smooth="yes"/>
      <point x="68.0" y="730"/>
      <point x="54.0" y="716"/>
      <point x="54.0" y="684" type="curve" smooth="yes"/>
      <point x="54.0" y="189" type="line" smooth="yes"/>
      <point x="54.0" y="63"/>
      <point x="113.0" y="-25"/>
      <point x="373.0" y="-25" type="curve" smooth="yes"/>
      <point x="633.0" y="-25"/>
      <point x="692.0" y="63"/>
      <point x="692.0" y="189" type="curve" smooth="yes"/>
    </contour>
  </outline>
</glyph>
<glyph name="V" format="1">
  <advance width="730"/>
  <unicode hex="0056"/>
  <outline>
    <contour>
      <point x="555.0" y="29" type="curve" smooth="yes"/>
      <point x="653.0" y="274" type="line" smooth="yes"/>
      <point x="678.0" y="336"/>
      <point x="686.0" y="355"/>
      <point x="686.0" y="420" type="curve" smooth="yes"/>
      <point x="686.0" y="684" type="line" smooth="yes"/>
      <point x="686.0" y="716"/>
      <point x="673.0" y="730"/>
      <point x="640.0" y="730" type="curve" smooth="yes"/>
      <point x="483.0" y="730" type="line" smooth="yes"/>
      <point x="451.0" y="730"/>
      <point x="437.0" y="716"/>
      <point x="437.0" y="684" type="curve" smooth="yes"/>
      <point x="437.0" y="409" type="line" smooth="yes"/>
      <point x="437.0" y="396"/>
      <point x="434.0" y="385"/>
      <point x="430.0" y="371" type="curve" smooth="yes"/>
      <point x="383.0" y="230" type="line" smooth="yes"/>
      <point x="380.0" y="223"/>
      <point x="379.0" y="220"/>
      <point x="373.0" y="220" type="curve" smooth="yes"/>
      <point x="362.0" y="220" type="line" smooth="yes"/>
      <point x="356.0" y="220"/>
      <point x="355.0" y="223"/>
      <point x="353.0" y="230" type="curve" smooth="yes"/>
      <point x="305.0" y="370" type="line" smooth="yes"/>
      <point x="301.0" y="384"/>
      <point x="298.0" y="395"/>
      <point x="298.0" y="408" type="curve" smooth="yes"/>
      <point x="298.0" y="684" type="line" smooth="yes"/>
      <point x="298.0" y="715"/>
      <point x="281.0" y="730"/>
      <point x="249.0" y="730" type="curve" smooth="yes"/>
      <point x="90.0" y="730" type="line" smooth="yes"/>
      <point x="58.0" y="730"/>
      <point x="44.0" y="716"/>
      <point x="44.0" y="684" type="curve" smooth="yes"/>
      <point x="44.0" y="420" type="line" smooth="yes"/>
      <point x="44.0" y="355"/>
      <point x="52.0" y="336"/>
      <point x="77.0" y="274" type="curve" smooth="yes"/>
      <point x="175.0" y="29" type="line" smooth="yes"/>
      <point x="187.0" y="0"/>
      <point x="204.0" y="-10"/>
      <point x="235.0" y="-10" type="curve" smooth="yes"/>
      <point x="495.0" y="-10" type="line" smooth="yes"/>
      <point x="526.0" y="-10"/>
      <point x="543.0" y="0"/>
    </contour>
    <contour>
      <point x="365.0" y="747.0" type="move" name="top"/>
    </contour>
    <contour>
      <point x="365.0" y="0.0" type="move" name="bottom"/>
    </contour>
  </outline>
</glyph>
<glyph name="W" format="1">
  <advance width="831"/>
  <unicode hex="0057"/>
  <outline>
    <contour>
      <point x="304.0" y="-10" type="line" smooth="yes"/>
      <point x="330.0" y="-10"/>
      <point x="348.0" y="3"/>
      <point x="356.0" y="27" type="curve" smooth="yes"/>
      <point x="403.0" y="190" type="line" smooth="yes"/>
      <point x="404.0" y="196"/>
      <point x="407.0" y="200"/>
      <point x="411.0" y="200" type="curve" smooth="yes"/>
      <point x="420.0" y="200" type="line" smooth="yes"/>
      <point x="424.0" y="200"/>
      <point x="427.0" y="196"/>
      <point x="428.0" y="190" type="curve" smooth="yes"/>
      <point x="474.0" y="27" type="line" smooth="yes"/>
      <point x="482.0" y="2"/>
      <point x="503.0" y="-10"/>
      <point x="530.0" y="-10" type="curve" smooth="yes"/>
      <point x="663.0" y="-10" type="line" smooth="yes"/>
      <point x="688.0" y="-10"/>
      <point x="704.0" y="8"/>
      <point x="712.0" y="33" type="curve" smooth="yes"/>
      <point x="762.0" y="169" type="line" smooth="yes"/>
      <point x="781.0" y="219"/>
      <point x="781.0" y="252"/>
      <point x="781.0" y="296" type="curve" smooth="yes"/>
      <point x="781.0" y="684" type="line" smooth="yes"/>
      <point x="781.0" y="716"/>
      <point x="767.0" y="730"/>
      <point x="735.0" y="730" type="curve" smooth="yes"/>
      <point x="586.0" y="730" type="line" smooth="yes"/>
      <point x="553.0" y="730"/>
      <point x="540.0" y="716"/>
      <point x="540.0" y="684" type="curve" smooth="yes"/>
      <point x="540.0" y="361" type="line"/>
      <point x="501.0" y="446" type="line" smooth="yes"/>
      <point x="488.0" y="473"/>
      <point x="470.0" y="483"/>
      <point x="439.0" y="483" type="curve" smooth="yes"/>
      <point x="397.0" y="483" type="line" smooth="yes"/>
      <point x="366.0" y="483"/>
      <point x="348.0" y="473"/>
      <point x="335.0" y="446" type="curve" smooth="yes"/>
      <point x="296.0" y="361" type="line"/>
      <point x="296.0" y="684" type="line" smooth="yes"/>
      <point x="296.0" y="716"/>
      <point x="282.0" y="730"/>
      <point x="250.0" y="730" type="curve" smooth="yes"/>
      <point x="96.0" y="730" type="line" smooth="yes"/>
      <point x="64.0" y="730"/>
      <point x="50.0" y="716"/>
      <point x="50.0" y="684" type="curve" smooth="yes"/>
      <point x="50.0" y="298" type="line" smooth="yes"/>
      <point x="50.0" y="254"/>
      <point x="50.0" y="221"/>
      <point x="69.0" y="171" type="curve" smooth="yes"/>
      <point x="119.0" y="33" type="line" smooth="yes"/>
      <point x="127.0" y="7"/>
      <point x="146.0" y="-10"/>
      <point x="172.0" y="-10" type="curve" smooth="yes"/>
    </contour>
    <contour>
      <point x="415.0" y="747.0" type="move" name="top"/>
    </contour>
    <contour>
      <point x="415.0" y="0.0" type="move" name="bottom"/>
    </contour>
  </outline>
</glyph>
<glyph name="X" format="1">
  <advance width="737"/>
  <unicode hex="0058"/>
  <outline>
    <contour>
      <point x="245.0" y="-10" type="line" smooth="yes"/>
      <point x="277.0" y="-10"/>
      <point x="291.0" y="4"/>
      <point x="291.0" y="36" type="curve" smooth="yes"/>
      <point x="291.0" y="135" type="line" smooth="yes"/>
      <point x="291.0" y="147"/>
      <point x="291.0" y="159"/>
      <point x="298.0" y="172" type="curve" smooth="yes"/>
      <point x="344.0" y="238" type="line" smooth="yes"/>
      <point x="350.0" y="246"/>
      <point x="352.0" y="251"/>
      <point x="360.0" y="251" type="curve" smooth="yes"/>
      <point x="372.0" y="251" type="line" smooth="yes"/>
      <point x="380.0" y="251"/>
      <point x="382.0" y="246"/>
      <point x="388.0" y="238" type="curve" smooth="yes"/>
      <point x="434.0" y="171" type="line" smooth="yes"/>
      <point x="441.0" y="159"/>
      <point x="441.0" y="147"/>
      <point x="441.0" y="135" type="curve" smooth="yes"/>
      <point x="441.0" y="36" type="line" smooth="yes"/>
      <point x="441.0" y="4"/>
      <point x="455.0" y="-10"/>
      <point x="487.0" y="-10" type="curve" smooth="yes"/>
      <point x="641.0" y="-10" type="line" smooth="yes"/>
      <point x="673.0" y="-10"/>
      <point x="687.0" y="4"/>
      <point x="687.0" y="36" type="curve" smooth="yes"/>
      <point x="687.0" y="143" type="line" smooth="yes"/>
      <point x="687.0" y="208"/>
      <point x="679.0" y="229"/>
      <point x="647.0" y="272" type="curve" smooth="yes"/>
      <point x="570.0" y="374" type="line"/>
      <point x="647.0" y="478" type="line" smooth="yes"/>
      <point x="679.0" y="521"/>
      <point x="687.0" y="542"/>
      <point x="687.0" y="607" type="curve" smooth="yes"/>
      <point x="687.0" y="684" type="line" smooth="yes"/>
      <point x="687.0" y="716"/>
      <point x="673.0" y="730"/>
      <point x="641.0" y="730" type="curve" smooth="yes"/>
      <point x="492.0" y="730" type="line" smooth="yes"/>
      <point x="460.0" y="730"/>
      <point x="446.0" y="716"/>
      <point x="446.0" y="684" type="curve" smooth="yes"/>
      <point x="446.0" y="615" type="line" smooth="yes"/>
      <point x="446.0" y="603"/>
      <point x="447.0" y="590"/>
      <point x="439.0" y="579" type="curve" smooth="yes"/>
      <point x="393.0" y="512" type="line" smooth="yes"/>
      <point x="388.0" y="505"/>
      <point x="385.0" y="499"/>
      <point x="377.0" y="499" type="curve" smooth="yes"/>
      <point x="365.0" y="499" type="line" smooth="yes"/>
      <point x="357.0" y="499"/>
      <point x="354.0" y="505"/>
      <point x="349.0" y="512" type="curve" smooth="yes"/>
      <point x="303.0" y="579" type="line" smooth="yes"/>
      <point x="295.0" y="590"/>
      <point x="296.0" y="603"/>
      <point x="296.0" y="615" type="curve" smooth="yes"/>
      <point x="296.0" y="684" type="line" smooth="yes"/>
      <point x="296.0" y="716"/>
      <point x="282.0" y="730"/>
      <point x="250.0" y="730" type="curve" smooth="yes"/>
      <point x="96.0" y="730" type="line" smooth="yes"/>
      <point x="64.0" y="730"/>
      <point x="50.0" y="716"/>
      <point x="50.0" y="684" type="curve" smooth="yes"/>
      <point x="50.0" y="607" type="line" smooth="yes"/>
      <point x="50.0" y="542"/>
      <point x="58.0" y="521"/>
      <point x="90.0" y="478" type="curve" smooth="yes"/>
      <point x="167.0" y="375" type="line"/>
      <point x="90.0" y="272" type="line" smooth="yes"/>
      <point x="58.0" y="229"/>
      <point x="50.0" y="208"/>
      <point x="50.0" y="143" type="curve" smooth="yes"/>
      <point x="50.0" y="36" type="line" smooth="yes"/>
      <point x="50.0" y="4"/>
      <point x="64.0" y="-10"/>
      <point x="96.0" y="-10" type="curve" smooth="yes"/>
    </contour>
    <contour>
      <point x="368.0" y="747.0" type="move" name="top"/>
    </contour>
    <contour>
      <point x="368.0" y="0.0" type="move" name="bottom"/>
    </contour>
  </outline>
</glyph>
<glyph name="Y" format="1">
  <advance width="705"/>
  <unicode hex="0059"/>
  <outline>
    <contour>
      <point x="272.0" y="-10" type="curve" smooth="yes"/>
      <point x="434.0" y="-10" type="line" smooth="yes"/>
      <point x="466.0" y="-10"/>
      <point x="480.0" y="4"/>
      <point x="480.0" y="36" type="curve" smooth="yes"/>
      <point x="480.0" y="160" type="line"/>
      <point x="630.0" y="363" type="line" smooth="yes"/>
      <point x="662.0" y="406"/>
      <point x="670.0" y="427"/>
      <point x="670.0" y="492" type="curve" smooth="yes"/>
      <point x="670.0" y="684" type="line" smooth="yes"/>
      <point x="670.0" y="716"/>
      <point x="656.0" y="730"/>
      <point x="624.0" y="730" type="curve" smooth="yes"/>
      <point x="475.0" y="730" type="line" smooth="yes"/>
      <point x="443.0" y="730"/>
      <point x="429.0" y="716"/>
      <point x="429.0" y="684" type="curve" smooth="yes"/>
      <point x="429.0" y="520" type="line" smooth="yes"/>
      <point x="429.0" y="508"/>
      <point x="429.0" y="496"/>
      <point x="422.0" y="483" type="curve" smooth="yes"/>
      <point x="376.0" y="411" type="line" smooth="yes"/>
      <point x="371.0" y="403"/>
      <point x="367.0" y="399"/>
      <point x="360.0" y="399" type="curve" smooth="yes"/>
      <point x="350.0" y="399" type="line" smooth="yes"/>
      <point x="343.0" y="399"/>
      <point x="339.0" y="403"/>
      <point x="335.0" y="411" type="curve" smooth="yes"/>
      <point x="288.0" y="483" type="line" smooth="yes"/>
      <point x="281.0" y="496"/>
      <point x="281.0" y="508"/>
      <point x="281.0" y="520" type="curve" smooth="yes"/>
      <point x="281.0" y="684" type="line" smooth="yes"/>
      <point x="281.0" y="716"/>
      <point x="267.0" y="730"/>
      <point x="235.0" y="730" type="curve" smooth="yes"/>
      <point x="81.0" y="730" type="line" smooth="yes"/>
      <point x="49.0" y="730"/>
      <point x="35.0" y="716"/>
      <point x="35.0" y="684" type="curve" smooth="yes"/>
      <point x="35.0" y="492" type="line" smooth="yes"/>
      <point x="35.0" y="427"/>
      <point x="43.0" y="406"/>
      <point x="75.0" y="363" type="curve" smooth="yes"/>
      <point x="226.0" y="161" type="line"/>
      <point x="226.0" y="36" type="line" smooth="yes"/>
      <point x="226.0" y="4"/>
      <point x="239.0" y="-10"/>
    </contour>
    <contour>
      <point x="352.0" y="747.0" type="move" name="top"/>
    </contour>
    <contour>
      <point x="352.0" y="0.0" type="move" name="bottom"/>
    </contour>
  </outline>
</glyph>
<glyph name="Z" format="1">
  <advance width="660"/>
  <unicode hex="005A"/>
  <outline>
    <contour>
      <point x="82.0" y="-10" type="curve" smooth="yes"/>
      <point x="578.0" y="-10" type="line" smooth="yes"/>
      <point x="610.0" y="-10"/>
      <point x="624.0" y="4"/>
      <point x="624.0" y="36" type="curve" smooth="yes"/>
      <point x="624.0" y="155" type="line" smooth="yes"/>
      <point x="624.0" y="187"/>
      <point x="610.0" y="201"/>
      <point x="578.0" y="201" type="curve" smooth="yes"/>
      <point x="360.0" y="201" type="line"/>
      <point x="579.0" y="466" type="line"/>
      <point x="598.0" y="486"/>
      <point x="606.0" y="505"/>
      <point x="606.0" y="535" type="curve" smooth="yes"/>
      <point x="606.0" y="684" type="line" smooth="yes"/>
      <point x="606.0" y="716"/>
      <point x="592.0" y="730"/>
      <point x="560.0" y="730" type="curve" smooth="yes"/>
      <point x="100.0" y="730" type="line" smooth="yes"/>
      <point x="68.0" y="730"/>
      <point x="54.0" y="716"/>
      <point x="54.0" y="684" type="curve" smooth="yes"/>
      <point x="54.0" y="563" type="line" smooth="yes"/>
      <point x="54.0" y="531"/>
      <point x="68.0" y="517"/>
      <point x="100.0" y="517" type="curve" smooth="yes"/>
      <point x="293.0" y="517" type="line"/>
      <point x="63.0" y="238" type="line"/>
      <point x="44.0" y="218"/>
      <point x="36.0" y="199"/>
      <point x="36.0" y="170" type="curve" smooth="yes"/>
      <point x="36.0" y="36" type="line" smooth="yes"/>
      <point x="36.0" y="4"/>
      <point x="50.0" y="-10"/>
    </contour>
    <contour>
      <point x="330.0" y="747.0" type="move" name="top"/>
    </contour>
    <contour>
      <point x="330.0" y="0.0" type="move" name="bottom"/>
    </contour>
  </outline>
</glyph>
<glyph name="bracketleft" format="2">
  <advance width="429"/>
  <unicode hex="005B"/>
  <outline>
    <contour>
      <point x="84.0" y="-90" type="curve" smooth="yes"/>
      <point x="348.0" y="-90" type="line" smooth="yes"/>
      <point x="380.0" y="-90"/>
      <point x="394.0" y="-76"/>
      <point x="394.0" y="-44" type="curve" smooth="yes"/>
      <point x="394.0" y="75" type="line" smooth="yes"/>
      <point x="394.0" y="107"/>
      <point x="380.0" y="121"/>
      <point x="348.0" y="121" type="curve" smooth="yes"/>
      <point x="286.0" y="121" type="line"/>
      <point x="286.0" y="597" type="line"/>
      <point x="348.0" y="597" type="line" smooth="yes"/>
      <point x="380.0" y="597"/>
      <point x="394.0" y="611"/>
      <point x="394.0" y="643" type="curve" smooth="yes"/>
      <point x="394.0" y="764" type="line" smooth="yes"/>
      <point x="394.0" y="796"/>
      <point x="380.0" y="810"/>
      <point x="348.0" y="810" type="curve" smooth="yes"/>
      <point x="84.0" y="810" type="line" smooth="yes"/>
      <point x="52.0" y="810"/>
      <point x="38.0" y="796"/>
      <point x="38.0" y="764" type="curve" smooth="yes"/>
      <point x="38.0" y="-44" type="line" smooth="yes"/>
      <point x="38.0" y="-76"/>
      <point x="52.0" y="-90"/>
    </contour>
  </outline>
</glyph>
<glyph name="backslash" format="1">
  <advance width="347"/>
  <unicode hex="005C"/>
  <outline>
    <contour>
      <point x="161.0" y="-100" type="curve" smooth="yes"/>
      <point x="306.0" y="-100" type="line" smooth="yes"/>
      <point x="339.0" y="-100"/>
      <point x="356.0" y="-85"/>
      <point x="352.0" y="-53" type="curve" smooth="yes"/>
      <point x="232.0" y="775" type="line"/>
      <point x="228.0" y="807"/>
      <point x="217.0" y="820"/>
      <point x="186.0" y="820" type="curve" smooth="yes"/>
      <point x="41.0" y="820" type="line" smooth="yes"/>
      <point x="8.0" y="820"/>
      <point x="-9.0" y="805"/>
      <point x="-5.0" y="773" type="curve" smooth="yes"/>
      <point x="115.0" y="-55" type="line" smooth="yes"/>
      <point x="119.0" y="-87"/>
      <point x="130.0" y="-100"/>
    </contour>
  </outline>
</glyph>
<glyph name="bracketright" format="1">
  <advance width="429"/>
  <unicode hex="005D"/>
  <outline>
    <contour>
      <point x="81.0" y="-90" type="curve" smooth="yes"/>
      <point x="345.0" y="-90" type="line" smooth="yes"/>
      <point x="377.0" y="-90"/>
      <point x="391.0" y="-76"/>
      <point x="391.0" y="-44" type="curve" smooth="yes"/>
      <point x="391.0" y="764" type="line" smooth="yes"/>
      <point x="391.0" y="796"/>
      <point x="377.0" y="810"/>
      <point x="345.0" y="810" type="curve" smooth="yes"/>
      <point x="81.0" y="810" type="line" smooth="yes"/>
      <point x="49.0" y="810"/>
      <point x="35.0" y="796"/>
      <point x="35.0" y="764" type="curve" smooth="yes"/>
      <point x="35.0" y="643" type="line" smooth="yes"/>
      <point x="35.0" y="611"/>
      <point x="49.0" y="597"/>
      <point x="81.0" y="597" type="curve" smooth="yes"/>
      <point x="143.0" y="597" type="line"/>
      <point x="143.0" y="121" type="line"/>
      <point x="81.0" y="121" type="line" smooth="yes"/>
      <point x="49.0" y="121"/>
      <point x="35.0" y="107"/>
      <point x="35.0" y="75" type="curve" smooth="yes"/>
      <point x="35.0" y="-44" type="line" smooth="yes"/>
      <point x="35.0" y="-76"/>
      <point x="49.0" y="-90"/>
    </contour>
  </outline>
</glyph>
<glyph name="grave" format="2">
  <advance width="500"/>
  <unicode hex="0060"/>
  <anchor x="250.0" y="747.0" name="_top"/>
  <anchor x="250.0" y="0.0" name="_bottom"/>
  <outline>
    <contour>
      <point x="469.0" y="786" type="curve" smooth="yes"/>
      <point x="469.0" y="882" type="line" smooth="yes"/>
      <point x="469.0" y="913"/>
      <point x="456.0" y="924"/>
      <point x="424.0" y="928" type="curve" smooth="yes"/>
      <point x="75.0" y="971" type="line" smooth="yes"/>
      <point x="45.0" y="975"/>
      <point x="30.0" y="959"/>
      <point x="30.0" y="928" type="curve" smooth="yes"/>
      <point x="30.0" y="832" type="line"/>
      <point x="30.0" y="801"/>
      <point x="43.0" y="790"/>
      <point x="75.0" y="786" type="curve" smooth="yes"/>
      <point x="424.0" y="743" type="line"/>
      <point x="454.0" y="739"/>
      <point x="469.0" y="755"/>
    </contour>
  </outline>
</glyph>
<glyph name="braceleft" format="1">
  <advance width="455"/>
  <unicode hex="007B"/>
  <outline>
    <contour>
      <point x="330.0" y="-90" type="curve" smooth="yes"/>
      <point x="374.0" y="-90" type="line" smooth="yes"/>
      <point x="406.0" y="-90"/>
      <point x="420.0" y="-76"/>
      <point x="420.0" y="-44" type="curve" smooth="yes"/>
      <point x="420.0" y="75" type="line" smooth="yes"/>
      <point x="420.0" y="107"/>
      <point x="406.0" y="121"/>
      <point x="374.0" y="121" type="curve" smooth="yes"/>
      <point x="353.0" y="121" type="line" smooth="yes"/>
      <point x="327.0" y="121"/>
      <point x="322.0" y="135"/>
      <point x="322.0" y="161" type="curve" smooth="yes"/>
      <point x="322.0" y="276" type="line" smooth="yes"/>
      <point x="322.0" y="323"/>
      <point x="309.0" y="341"/>
      <point x="269.0" y="348" type="curve" smooth="yes"/>
      <point x="236.0" y="354" type="line" smooth="yes"/>
      <point x="233.0" y="354"/>
      <point x="231.0" y="355"/>
      <point x="231.0" y="358" type="curve" smooth="yes"/>
      <point x="231.0" y="361"/>
      <point x="232.0" y="362"/>
      <point x="235.0" y="362" type="curve" smooth="yes"/>
      <point x="269.0" y="368" type="line" smooth="yes"/>
      <point x="309.0" y="375"/>
      <point x="322.0" y="393"/>
      <point x="322.0" y="440" type="curve" smooth="yes"/>
      <point x="322.0" y="557" type="line" smooth="yes"/>
      <point x="322.0" y="583"/>
      <point x="327.0" y="597"/>
      <point x="353.0" y="597" type="curve" smooth="yes"/>
      <point x="374.0" y="597" type="line" smooth="yes"/>
      <point x="406.0" y="597"/>
      <point x="420.0" y="611"/>
      <point x="420.0" y="643" type="curve" smooth="yes"/>
      <point x="420.0" y="764" type="line" smooth="yes"/>
      <point x="420.0" y="796"/>
      <point x="406.0" y="810"/>
      <point x="374.0" y="810" type="curve" smooth="yes"/>
      <point x="330.0" y="810" type="line" smooth="yes"/>
      <point x="132.0" y="810"/>
      <point x="74.0" y="722"/>
      <point x="74.0" y="595" type="curve" smooth="yes"/>
      <point x="74.0" y="470" type="line"/>
      <point x="31.0" y="454"/>
      <point x="10.0" y="426"/>
      <point x="10.0" y="376" type="curve" smooth="yes"/>
      <point x="10.0" y="341" type="line"/>
      <point x="10.0" y="291"/>
      <point x="31.0" y="262"/>
      <point x="74.0" y="246" type="curve"/>
      <point x="74.0" y="124" type="line" smooth="yes"/>
      <point x="74.0" y="-2"/>
      <point x="132.0" y="-90"/>
    </contour>
  </outline>
</glyph>
<glyph name="bar" format="2">
  <advance width="347"/>
  <unicode hex="007C"/>
  <outline>
    <contour>
      <point x="246.0" y="820" type="curve" smooth="yes"/>
      <point x="101.0" y="820" type="line" smooth="yes"/>
      <point x="69.0" y="820"/>
      <point x="55.0" y="806"/>
      <point x="55.0" y="774" type="curve" smooth="yes"/>
      <point x="55.0" y="-54" type="line" smooth="yes"/>
      <point x="55.0" y="-86"/>
      <point x="69.0" y="-100"/>
      <point x="101.0" y="-100" type="curve" smooth="yes"/>
      <point x="246.0" y="-100" type="line" smooth="yes"/>
      <point x="278.0" y="-100"/>
      <point x="292.0" y="-86"/>
      <point x="292.0" y="-54" type="curve" smooth="yes"/>
      <point x="292.0" y="774" type="line" smooth="yes"/>
      <point x="292.0" y="806"/>
      <point x="278.0" y="820"/>
    </contour>
  </outline>
</glyph>
<glyph name="braceright" format="1">
  <advance width="455"/>
  <unicode hex="007D"/>
  <outline>
    <contour>
      <point x="81.0" y="-90" type="curve" smooth="yes"/>
      <point x="125.0" y="-90" type="line" smooth="yes"/>
      <point x="323.0" y="-90"/>
      <point x="381.0" y="-2"/>
      <point x="381.0" y="124" type="curve" smooth="yes"/>
      <point x="381.0" y="246" type="line"/>
      <point x="424.0" y="262"/>
      <point x="445.0" y="291"/>
      <point x="445.0" y="341" type="curve" smooth="yes"/>
      <point x="445.0" y="376" type="line" smooth="yes"/>
      <point x="445.0" y="426"/>
      <point x="424.0" y="454"/>
      <point x="381.0" y="470" type="curve"/>
      <point x="381.0" y="595" type="line" smooth="yes"/>
      <point x="381.0" y="722"/>
      <point x="323.0" y="810"/>
      <point x="125.0" y="810" type="curve" smooth="yes"/>
      <point x="81.0" y="810" type="line" smooth="yes"/>
      <point x="49.0" y="810"/>
      <point x="35.0" y="796"/>
      <point x="35.0" y="764" type="curve" smooth="yes"/>
      <point x="35.0" y="643" type="line" smooth="yes"/>
      <point x="35.0" y="611"/>
      <point x="49.0" y="597"/>
      <point x="81.0" y="597" type="curve" smooth="yes"/>
      <point x="102.0" y="597" type="line" smooth="yes"/>
      <point x="128.0" y="597"/>
      <point x="133.0" y="583"/>
      <point x="133.0" y="557" type="curve" smooth="yes"/>
      <point x="133.0" y="440" type="line" smooth="yes"/>
      <point x="133.0" y="393"/>
      <point x="146.0" y="375"/>
      <point x="186.0" y="368" type="curve" smooth="yes"/>
      <point x="219.0" y="362" type="line"/>
      <point x="220.0" y="362" type="line" smooth="yes"/>
      <point x="223.0" y="362"/>
      <point x="224.0" y="361"/>
      <point x="224.0" y="358" type="curve" smooth="yes"/>
      <point x="224.0" y="355"/>
      <point x="222.0" y="354"/>
      <point x="219.0" y="354" type="curve" smooth="yes"/>
      <point x="186.0" y="348" type="line" smooth="yes"/>
      <point x="146.0" y="341"/>
      <point x="133.0" y="323"/>
      <point x="133.0" y="276" type="curve" smooth="yes"/>
      <point x="133.0" y="161" type="line" smooth="yes"/>
      <point x="133.0" y="135"/>
      <point x="128.0" y="121"/>
      <point x="102.0" y="121" type="curve" smooth="yes"/>
      <point x="81.0" y="121" type="line" smooth="yes"/>
      <point x="49.0" y="121"/>
      <point x="35.0" y="107"/>
      <point x="35.0" y="75" type="curve" smooth="yes"/>
      <point x="35.0" y="-44" type="line" smooth="yes"/>
      <point x="35.0" y="-76"/>
      <point x="49.0" y="-90"/>
    </contour>
  </outline>
</glyph>
<glyph name="exclamdown" format="2">
  <advance width="423"/>
  <unicode hex="00A1"/>
  <outline>
    <contour>
      <point x="304.0" y="710" type="curve" smooth="yes"/>
      <point x="120.0" y="710" type="line" smooth="yes"/>
      <point x="102.0" y="710"/>
      <point x="94.0" y="702"/>
      <point x="94.0" y="684" type="curve" smooth="yes"/>
      <point x="94.0" y="553" type="line" smooth="yes"/>
      <point x="94.0" y="534"/>
      <point x="102.0" y="527"/>
      <point x="120.0" y="527" type="curve" smooth="yes"/>
      <point x="304.0" y="527" type="line" smooth="yes"/>
      <point x="322.0" y="527"/>
      <point x="330.0" y="534"/>
      <point x="330.0" y="553" type="curve" smooth="yes"/>
      <point x="330.0" y="684" type="line" smooth="yes"/>
      <point x="330.0" y="702"/>
      <point x="322.0" y="710"/>
    </contour>
    <contour>
      <point x="289.0" y="448" type="curve" smooth="yes"/>
      <point x="134.0" y="448" type="line" smooth="yes"/>
      <point x="116.0" y="448"/>
      <point x="108.0" y="440"/>
      <point x="107.0" y="422" type="curve" smooth="yes"/>
      <point x="92.0" y="36" type="line" smooth="yes"/>
      <point x="91.0" y="18"/>
      <point x="98.0" y="10"/>
      <point x="116.0" y="10" type="curve" smooth="yes"/>
      <point x="307.0" y="10" type="line" smooth="yes"/>
      <point x="325.0" y="10"/>
      <point x="332.0" y="18"/>
      <point x="331.0" y="36" type="curve" smooth="yes"/>
      <point x="317.0" y="422" type="line" smooth="yes"/>
      <point x="316.0" y="440"/>
      <point x="307.0" y="448"/>
    </contour>
  </outline>
</glyph>
<glyph name="cent" format="1">
  <advance width="628"/>
  <unicode hex="00A2"/>
  <outline>
    <contour>
      <point x="290.0" y="-60" type="curve" smooth="yes"/>
      <point x="435.0" y="-60" type="line" smooth="yes"/>
      <point x="467.0" y="-60"/>
      <point x="481.0" y="-46"/>
      <point x="481.0" y="-14" type="curve" smooth="yes"/>
      <point x="481.0" y="30" type="line"/>
      <point x="548.0" y="30" type="line" smooth="yes"/>
      <point x="580.0" y="30"/>
      <point x="594.0" y="44"/>
      <point x="594.0" y="76" type="curve" smooth="yes"/>
      <point x="594.0" y="195" type="line" smooth="yes"/>
      <point x="594.0" y="227"/>
      <point x="580.0" y="241"/>
      <point x="548.0" y="241" type="curve" smooth="yes"/>
      <point x="347.0" y="241" type="line" smooth="yes"/>
      <point x="306.0" y="241"/>
      <point x="296.0" y="256"/>
      <point x="296.0" y="279" type="curve" smooth="yes"/>
      <point x="296.0" y="437" type="line" smooth="yes"/>
      <point x="296.0" y="459"/>
      <point x="305.0" y="477"/>
      <point x="347.0" y="477" type="curve" smooth="yes"/>
      <point x="548.0" y="477" type="line" smooth="yes"/>
      <point x="580.0" y="477"/>
      <point x="594.0" y="491"/>
      <point x="594.0" y="523" type="curve" smooth="yes"/>
      <point x="594.0" y="644" type="line" smooth="yes"/>
      <point x="594.0" y="676"/>
      <point x="580.0" y="690"/>
      <point x="548.0" y="690" type="curve" smooth="yes"/>
      <point x="481.0" y="690" type="line"/>
      <point x="481.0" y="734" type="line" smooth="yes"/>
      <point x="481.0" y="766"/>
      <point x="467.0" y="780"/>
      <point x="435.0" y="780" type="curve" smooth="yes"/>
      <point x="290.0" y="780" type="line" smooth="yes"/>
      <point x="258.0" y="780"/>
      <point x="244.0" y="766"/>
      <point x="244.0" y="734" type="curve" smooth="yes"/>
      <point x="244.0" y="687" type="line"/>
      <point x="94.0" y="670"/>
      <point x="48.0" y="588"/>
      <point x="48.0" y="475" type="curve" smooth="yes"/>
      <point x="48.0" y="244" type="line" smooth="yes"/>
      <point x="48.0" y="132"/>
      <point x="94.0" y="50"/>
      <point x="244.0" y="33" type="curve"/>
      <point x="244.0" y="-14" type="line" smooth="yes"/>
      <point x="244.0" y="-46"/>
      <point x="258.0" y="-60"/>
    </contour>
  </outline>
</glyph>
<glyph name="sterling" format="1">
  <advance width="695"/>
  <unicode hex="00A3"/>
  <outline>
    <contour>
      <point x="105.0" y="-10" type="curve" smooth="yes"/>
      <point x="614.0" y="-10" type="line" smooth="yes"/>
      <point x="646.0" y="-10"/>
      <point x="660.0" y="4"/>
      <point x="660.0" y="36" type="curve" smooth="yes"/>
      <point x="660.0" y="291" type="line" smooth="yes"/>
      <point x="660.0" y="323"/>
      <point x="646.0" y="337"/>
      <point x="614.0" y="337" type="curve" smooth="yes"/>
      <point x="469.0" y="337" type="line" smooth="yes"/>
      <point x="437.0" y="337"/>
      <point x="423.0" y="323"/>
      <point x="423.0" y="291" type="curve" smooth="yes"/>
      <point x="423.0" y="199" type="line"/>
      <point x="306.0" y="199" type="line"/>
      <point x="306.0" y="255" type="line"/>
      <point x="344.0" y="255" type="line" smooth="yes"/>
      <point x="376.0" y="255"/>
      <point x="390.0" y="268"/>
      <point x="390.0" y="301" type="curve" smooth="yes"/>
      <point x="390.0" y="408" type="line" smooth="yes"/>
      <point x="390.0" y="441"/>
      <point x="376.0" y="454"/>
      <point x="344.0" y="454" type="curve" smooth="yes"/>
      <point x="306.0" y="454" type="line"/>
      <point x="306.0" y="477" type="line" smooth="yes"/>
      <point x="306.0" y="499"/>
      <point x="315.0" y="517"/>
      <point x="357.0" y="517" type="curve" smooth="yes"/>
      <point x="505.0" y="517" type="line" smooth="yes"/>
      <point x="537.0" y="517"/>
      <point x="551.0" y="531"/>
      <point x="551.0" y="563" type="curve" smooth="yes"/>
      <point x="551.0" y="684" type="line" smooth="yes"/>
      <point x="551.0" y="716"/>
      <point x="537.0" y="730"/>
      <point x="505.0" y="730" type="curve" smooth="yes"/>
      <point x="315.0" y="730" type="line" smooth="yes"/>
      <point x="117.0" y="730"/>
      <point x="59.0" y="642"/>
      <point x="59.0" y="516" type="curve" smooth="yes"/>
      <point x="59.0" y="454" type="line"/>
      <point x="56.0" y="454" type="line" smooth="yes"/>
      <point x="24.0" y="454"/>
      <point x="10.0" y="440"/>
      <point x="10.0" y="408" type="curve" smooth="yes"/>
      <point x="10.0" y="301" type="line"/>
      <point x="10.0" y="268"/>
      <point x="24.0" y="255"/>
      <point x="56.0" y="255" type="curve" smooth="yes"/>
      <point x="59.0" y="255" type="line"/>
      <point x="59.0" y="36" type="line" smooth="yes"/>
      <point x="59.0" y="4"/>
      <point x="73.0" y="-10"/>
    </contour>
  </outline>
</glyph>
<glyph name="currency" format="1">
  <advance width="821"/>
  <unicode hex="00A4"/>
  <outline>
    <contour>
      <point x="343.0" y="430" type="line" smooth="yes"/>
      <point x="343.0" y="452"/>
      <point x="360.0" y="464"/>
      <point x="413.0" y="464" type="curve" smooth="yes"/>
      <point x="466.0" y="464"/>
      <point x="483.0" y="452"/>
      <point x="483.0" y="430" type="curve" smooth="yes"/>
      <point x="483.0" y="289" type="line" smooth="yes"/>
      <point x="483.0" y="266"/>
      <point x="467.0" y="254"/>
      <point x="413.0" y="254" type="curve" smooth="yes"/>
      <point x="360.0" y="254"/>
      <point x="343.0" y="266"/>
      <point x="343.0" y="289" type="curve" smooth="yes"/>
    </contour>
    <contour>
      <point x="191.0" y="1" type="curve" smooth="yes"/>
      <point x="272.0" y="82" type="line"/>
      <point x="308.0" y="71"/>
      <point x="355.0" y="66"/>
      <point x="413.0" y="66" type="curve" smooth="yes"/>
      <point x="470.0" y="66"/>
      <point x="515.0" y="71"/>
      <point x="551.0" y="81" type="curve"/>
      <point x="631.0" y="1" type="line" smooth="yes"/>
      <point x="651.0" y="-21"/>
      <point x="670.0" y="-23"/>
      <point x="693.0" y="1" type="curve" smooth="yes"/>
      <point x="769.0" y="77" type="line" smooth="yes"/>
      <point x="794.0" y="102"/>
      <point x="792.0" y="120"/>
      <point x="769.0" y="140" type="curve"/>
      <point x="682.0" y="227" type="line"/>
      <point x="684.0" y="237"/>
      <point x="684.0" y="248"/>
      <point x="684.0" y="260" type="curve" smooth="yes"/>
      <point x="684.0" y="459" type="line" smooth="yes"/>
      <point x="684.0" y="471"/>
      <point x="683.0" y="482"/>
      <point x="682.0" y="493" type="curve"/>
      <point x="769.0" y="580" type="line"/>
      <point x="792.0" y="600"/>
      <point x="794.0" y="619"/>
      <point x="769.0" y="642" type="curve" smooth="yes"/>
      <point x="693.0" y="718" type="line" smooth="yes"/>
      <point x="670.0" y="743"/>
      <point x="651.0" y="741"/>
      <point x="631.0" y="718" type="curve"/>
      <point x="552.0" y="639" type="line"/>
      <point x="516.0" y="649"/>
      <point x="470.0" y="654"/>
      <point x="413.0" y="654" type="curve" smooth="yes"/>
      <point x="354.0" y="654"/>
      <point x="308.0" y="648"/>
      <point x="271.0" y="638" type="curve"/>
      <point x="191.0" y="718" type="line"/>
      <point x="171.0" y="741"/>
      <point x="151.0" y="742"/>
      <point x="128.0" y="718" type="curve" smooth="yes"/>
      <point x="52.0" y="642" type="line" smooth="yes"/>
      <point x="28.0" y="619"/>
      <point x="30.0" y="600"/>
      <point x="52.0" y="580" type="curve" smooth="yes"/>
      <point x="142.0" y="490" type="line"/>
      <point x="141.0" y="480"/>
      <point x="141.0" y="470"/>
      <point x="141.0" y="459" type="curve" smooth="yes"/>
      <point x="141.0" y="260" type="line" smooth="yes"/>
      <point x="141.0" y="250"/>
      <point x="141.0" y="240"/>
      <point x="142.0" y="230" type="curve"/>
      <point x="52.0" y="140" type="line" smooth="yes"/>
      <point x="30.0" y="120"/>
      <point x="30.0" y="100"/>
      <point x="52.0" y="77" type="curve" smooth="yes"/>
      <point x="128.0" y="1" type="line" smooth="yes"/>
      <point x="153.0" y="-23"/>
      <point x="171.0" y="-21"/>
    </contour>
  </outline>
</glyph>
<glyph name="yen" format="1">
  <advance width="703"/>
  <unicode hex="00A5"/>
  <outline>
    <contour>
      <point x="276.0" y="-10" type="curve" smooth="yes"/>
      <point x="428.0" y="-10" type="line" smooth="yes"/>
      <point x="460.0" y="-10"/>
      <point x="474.0" y="4"/>
      <point x="474.0" y="36" type="curve" smooth="yes"/>
      <point x="474.0" y="120" type="line"/>
      <point x="573.0" y="120" type="line" smooth="yes"/>
      <point x="605.0" y="120"/>
      <point x="619.0" y="133"/>
      <point x="619.0" y="166" type="curve" smooth="yes"/>
      <point x="619.0" y="263" type="line" smooth="yes"/>
      <point x="619.0" y="296"/>
      <point x="605.0" y="309"/>
      <point x="573.0" y="309" type="curve" smooth="yes"/>
      <point x="541.0" y="309" type="line"/>
      <point x="638.0" y="435" type="line" smooth="yes"/>
      <point x="667.0" y="475"/>
      <point x="669.0" y="518"/>
      <point x="669.0" y="571" type="curve" smooth="yes"/>
      <point x="669.0" y="684" type="line" smooth="yes"/>
      <point x="669.0" y="716"/>
      <point x="655.0" y="730"/>
      <point x="623.0" y="730" type="curve" smooth="yes"/>
      <point x="476.0" y="730" type="line" smooth="yes"/>
      <point x="443.0" y="730"/>
      <point x="430.0" y="716"/>
      <point x="430.0" y="684" type="curve" smooth="yes"/>
      <point x="430.0" y="539" type="line" smooth="yes"/>
      <point x="430.0" y="527"/>
      <point x="431.0" y="516"/>
      <point x="424.0" y="503" type="curve" smooth="yes"/>
      <point x="381.0" y="440" type="line" smooth="yes"/>
      <point x="375.0" y="431"/>
      <point x="371.0" y="427"/>
      <point x="363.0" y="427" type="curve" smooth="yes"/>
      <point x="351.0" y="427" type="line" smooth="yes"/>
      <point x="343.0" y="427"/>
      <point x="339.0" y="432"/>
      <point x="333.0" y="440" type="curve" smooth="yes"/>
      <point x="287.0" y="504" type="line"/>
      <point x="282.0" y="518"/>
      <point x="281.0" y="527"/>
      <point x="281.0" y="540" type="curve" smooth="yes"/>
      <point x="281.0" y="684" type="line" smooth="yes"/>
      <point x="281.0" y="716"/>
      <point x="267.0" y="730"/>
      <point x="235.0" y="730" type="curve" smooth="yes"/>
      <point x="80.0" y="730" type="line" smooth="yes"/>
      <point x="48.0" y="730"/>
      <point x="34.0" y="716"/>
      <point x="34.0" y="684" type="curve" smooth="yes"/>
      <point x="34.0" y="572" type="line" smooth="yes"/>
      <point x="34.0" y="518"/>
      <point x="35.0" y="476"/>
      <point x="65.0" y="436" type="curve" smooth="yes"/>
      <point x="164.0" y="309" type="line"/>
      <point x="131.0" y="309" type="line" smooth="yes"/>
      <point x="99.0" y="309"/>
      <point x="85.0" y="295"/>
      <point x="85.0" y="263" type="curve" smooth="yes"/>
      <point x="85.0" y="166" type="line" smooth="yes"/>
      <point x="85.0" y="133"/>
      <point x="99.0" y="120"/>
      <point x="131.0" y="120" type="curve" smooth="yes"/>
      <point x="230.0" y="120" type="line"/>
      <point x="230.0" y="36" type="line" smooth="yes"/>
      <point x="230.0" y="4"/>
      <point x="243.0" y="-10"/>
    </contour>
  </outline>
</glyph>
<glyph name="brokenbar" format="2">
  <advance width="347"/>
  <unicode hex="00A6"/>
  <outline>
    <contour>
      <point x="246.0" y="820" type="curve" smooth="yes"/>
      <point x="101.0" y="820" type="line" smooth="yes"/>
      <point x="69.0" y="820"/>
      <point x="55.0" y="806"/>
      <point x="55.0" y="774" type="curve" smooth="yes"/>
      <point x="55.0" y="436" type="line" smooth="yes"/>
      <point x="55.0" y="404"/>
      <point x="69.0" y="390"/>
      <point x="101.0" y="390" type="curve" smooth="yes"/>
      <point x="246.0" y="390" type="line" smooth="yes"/>
      <point x="278.0" y="390"/>
      <point x="292.0" y="404"/>
      <point x="292.0" y="436" type="curve" smooth="yes"/>
      <point x="292.0" y="774" type="line" smooth="yes"/>
      <point x="292.0" y="806"/>
      <point x="278.0" y="820"/>
    </contour>
    <contour>
      <point x="246.0" y="330" type="curve" smooth="yes"/>
      <point x="101.0" y="330" type="line" smooth="yes"/>
      <point x="69.0" y="330"/>
      <point x="55.0" y="316"/>
      <point x="55.0" y="284" type="curve" smooth="yes"/>
      <point x="55.0" y="-54" type="line" smooth="yes"/>
      <point x="55.0" y="-86"/>
      <point x="69.0" y="-100"/>
      <point x="101.0" y="-100" type="curve" smooth="yes"/>
      <point x="246.0" y="-100" type="line" smooth="yes"/>
      <point x="278.0" y="-100"/>
      <point x="292.0" y="-86"/>
      <point x="292.0" y="-54" type="curve" smooth="yes"/>
      <point x="292.0" y="284" type="line" smooth="yes"/>
      <point x="292.0" y="316"/>
      <point x="278.0" y="330"/>
    </contour>
  </outline>
</glyph>
<glyph name="dieresis" format="1">
  <advance width="500"/>
  <unicode hex="00A8"/>
  <outline>
    <contour>
      <point x="489.0" y="793" type="curve" smooth="yes"/>
      <point x="489.0" y="914" type="line" smooth="yes"/>
      <point x="489.0" y="944"/>
      <point x="476.0" y="957"/>
      <point x="446.0" y="957" type="curve" smooth="yes"/>
      <point x="308.0" y="957" type="line" smooth="yes"/>
      <point x="278.0" y="957"/>
      <point x="265.0" y="944"/>
      <point x="265.0" y="914" type="curve" smooth="yes"/>
      <point x="265.0" y="793" type="line" smooth="yes"/>
      <point x="265.0" y="763"/>
      <point x="278.0" y="750"/>
      <point x="308.0" y="750" type="curve" smooth="yes"/>
      <point x="446.0" y="750" type="line" smooth="yes"/>
      <point x="476.0" y="750"/>
      <point x="489.0" y="763"/>
    </contour>
    <contour>
      <point x="231.0" y="793" type="curve" smooth="yes"/>
      <point x="231.0" y="914" type="line" smooth="yes"/>
      <point x="231.0" y="944"/>
      <point x="218.0" y="957"/>
      <point x="188.0" y="957" type="curve" smooth="yes"/>
      <point x="50.0" y="957" type="line" smooth="yes"/>
      <point x="20.0" y="957"/>
      <point x="6.0" y="944"/>
      <point x="6.0" y="914" type="curve"/>
      <point x="6.0" y="793" type="line"/>
      <point x="6.0" y="763"/>
      <point x="20.0" y="750"/>
      <point x="50.0" y="750" type="curve" smooth="yes"/>
      <point x="188.0" y="750" type="line" smooth="yes"/>
      <point x="218.0" y="750"/>
      <point x="231.0" y="763"/>
    </contour>
    <contour>
      <point x="250.0" y="747.0" type="move" name="_top"/>
    </contour>
    <contour>
      <point x="250.0" y="0.0" type="move" name="_bottom"/>
    </contour>
  </outline>
</glyph>
<glyph name="copyright" format="1">
  <advance width="867"/>
  <unicode hex="00A9"/>
  <outline>
    <contour>
      <point x="817.0" y="564" type="line" smooth="yes"/>
      <point x="817.0" y="715"/>
      <point x="747.0" y="821"/>
      <point x="434.0" y="821" type="curve" smooth="yes"/>
      <point x="122.0" y="821"/>
      <point x="50.0" y="715"/>
      <point x="50.0" y="564" type="curve" smooth="yes"/>
      <point x="50.0" y="154" type="line" smooth="yes"/>
      <point x="50.0" y="4"/>
      <point x="122.0" y="-101"/>
      <point x="434.0" y="-101" type="curve" smooth="yes"/>
      <point x="747.0" y="-101"/>
      <point x="817.0" y="4"/>
      <point x="817.0" y="154" type="curve" smooth="yes"/>
    </contour>
    <contour>
      <point x="434.0" y="15" type="curve" smooth="yes"/>
      <point x="229.0" y="15"/>
      <point x="170.0" y="67"/>
      <point x="170.0" y="150" type="curve" smooth="yes"/>
      <point x="170.0" y="568" type="line" smooth="yes"/>
      <point x="170.0" y="652"/>
      <point x="229.0" y="705"/>
      <point x="434.0" y="705" type="curve" smooth="yes"/>
      <point x="639.0" y="705"/>
      <point x="697.0" y="652"/>
      <point x="697.0" y="568" type="curve" smooth="yes"/>
      <point x="697.0" y="150" type="line" smooth="yes"/>
      <point x="697.0" y="67"/>
      <point x="639.0" y="15"/>
    </contour>
    <contour>
      <point x="625.0" y="136" type="curve" smooth="yes"/>
      <point x="625.0" y="221" type="line" smooth="yes"/>
      <point x="625.0" y="246"/>
      <point x="614.0" y="257"/>
      <point x="589.0" y="257" type="curve" smooth="yes"/>
      <point x="445.0" y="257" type="line" smooth="yes"/>
      <point x="418.0" y="257"/>
      <point x="411.0" y="266"/>
      <point x="411.0" y="281" type="curve" smooth="yes"/>
      <point x="411.0" y="452" type="line" smooth="yes"/>
      <point x="411.0" y="466"/>
      <point x="418.0" y="478"/>
      <point x="445.0" y="478" type="curve" smooth="yes"/>
      <point x="589.0" y="478" type="line" smooth="yes"/>
      <point x="614.0" y="478"/>
      <point x="625.0" y="489"/>
      <point x="625.0" y="513" type="curve" smooth="yes"/>
      <point x="625.0" y="600" type="line" smooth="yes"/>
      <point x="625.0" y="625"/>
      <point x="614.0" y="636"/>
      <point x="589.0" y="636" type="curve" smooth="yes"/>
      <point x="414.0" y="636" type="line" smooth="yes"/>
      <point x="269.0" y="636"/>
      <point x="228.0" y="571"/>
      <point x="228.0" y="479" type="curve" smooth="yes"/>
      <point x="228.0" y="256" type="line" smooth="yes"/>
      <point x="228.0" y="165"/>
      <point x="269.0" y="100"/>
      <point x="414.0" y="100" type="curve" smooth="yes"/>
      <point x="589.0" y="100" type="line" smooth="yes"/>
      <point x="614.0" y="100"/>
      <point x="625.0" y="111"/>
    </contour>
  </outline>
</glyph>
<glyph name="ordfeminine" format="1">
  <advance width="520"/>
  <unicode hex="00AA"/>
  <outline>
    <contour>
      <point x="253.0" y="565" type="line"/>
      <point x="253.0" y="566" type="line"/>
      <point x="253.0" y="565"/>
      <point x="250.0" y="568"/>
      <point x="251.0" y="568" type="curve" smooth="yes"/>
      <point x="264.0" y="568" type="line" smooth="yes"/>
      <point x="265.0" y="568"/>
      <point x="264.0" y="564"/>
      <point x="264.0" y="564" type="curve"/>
      <point x="293.0" y="473" type="line"/>
      <point x="222.0" y="473" type="line"/>
    </contour>
    <contour>
      <point x="66.0" y="192" type="curve" smooth="yes"/>
      <point x="169.0" y="192" type="line" smooth="yes"/>
      <point x="197.0" y="192"/>
      <point x="209.0" y="205"/>
      <point x="209.0" y="232" type="curve" smooth="yes"/>
      <point x="209.0" y="317" type="line"/>
      <point x="306.0" y="317" type="line"/>
      <point x="306.0" y="232" type="line" smooth="yes"/>
      <point x="306.0" y="205"/>
      <point x="319.0" y="192"/>
      <point x="346.0" y="192" type="curve" smooth="yes"/>
      <point x="454.0" y="192" type="line" smooth="yes"/>
      <point x="483.0" y="192"/>
      <point x="494.0" y="205"/>
      <point x="494.0" y="232" type="curve" smooth="yes"/>
      <point x="494.0" y="411" type="line" smooth="yes"/>
      <point x="494.0" y="452"/>
      <point x="485.0" y="490"/>
      <point x="473.0" y="522" type="curve" smooth="yes"/>
      <point x="411.0" y="691" type="line"/>
      <point x="399.0" y="719"/>
      <point x="386.0" y="730"/>
      <point x="355.0" y="730" type="curve" smooth="yes"/>
      <point x="166.0" y="730" type="line" smooth="yes"/>
      <point x="134.0" y="730"/>
      <point x="121.0" y="719"/>
      <point x="109.0" y="692" type="curve"/>
      <point x="90.0" y="637"/>
      <point x="67.0" y="577"/>
      <point x="48.0" y="522" type="curve" smooth="yes"/>
      <point x="35.0" y="491"/>
      <point x="26.0" y="452"/>
      <point x="26.0" y="411" type="curve" smooth="yes"/>
      <point x="26.0" y="232" type="line"/>
      <point x="26.0" y="205"/>
      <point x="39.0" y="192"/>
    </contour>
    <contour>
      <point x="448.0" y="-10" type="line" smooth="yes"/>
      <point x="480.0" y="-10"/>
      <point x="494.0" y="3"/>
      <point x="494.0" y="36" type="curve" smooth="yes"/>
      <point x="494.0" y="103" type="line" smooth="yes"/>
      <point x="494.0" y="136"/>
      <point x="480.0" y="149"/>
      <point x="448.0" y="149" type="curve" smooth="yes"/>
      <point x="72.0" y="149" type="line" smooth="yes"/>
      <point x="40.0" y="149"/>
      <point x="26.0" y="135"/>
      <point x="26.0" y="103" type="curve" smooth="yes"/>
      <point x="26.0" y="36" type="line"/>
      <point x="26.0" y="3"/>
      <point x="40.0" y="-10"/>
      <point x="72.0" y="-10" type="curve" smooth="yes"/>
    </contour>
    <contour>
      <point x="263.0" y="745.0" type="move" name="top"/>
    </contour>
    <contour>
      <point x="263.0" y="207.0" type="move" name="bottom"/>
    </contour>
  </outline>
</glyph>
<glyph name="guillemotleft" format="1">
  <advance width="812"/>
  <unicode hex="00AB"/>
  <outline>
    <contour>
      <point x="762.0" y="140" type="curve" smooth="yes"/>
      <point x="762.0" y="254" type="line" smooth="yes"/>
      <point x="762.0" y="285"/>
      <point x="748.0" y="304"/>
      <point x="719.0" y="313" type="curve" smooth="yes"/>
      <point x="624.0" y="340" type="line" smooth="yes"/>
      <point x="617.0" y="342"/>
      <point x="614.0" y="342"/>
      <point x="614.0" y="349" type="curve" smooth="yes"/>
      <point x="614.0" y="356"/>
      <point x="617.0" y="356"/>
      <point x="624.0" y="358" type="curve" smooth="yes"/>
      <point x="719.0" y="386" type="line"/>
      <point x="719.0" y="387" type="line"/>
      <point x="720.0" y="387" type="line" smooth="yes"/>
      <point x="747.0" y="397"/>
      <point x="762.0" y="414"/>
      <point x="762.0" y="445" type="curve" smooth="yes"/>
      <point x="762.0" y="559" type="line" smooth="yes"/>
      <point x="762.0" y="591"/>
      <point x="743.0" y="609"/>
      <point x="713.0" y="600" type="curve" smooth="yes"/>
      <point x="544.0" y="551" type="line" smooth="yes"/>
      <point x="455.0" y="525"/>
      <point x="410.0" y="491"/>
      <point x="410.0" y="386" type="curve" smooth="yes"/>
      <point x="410.0" y="312" type="line" smooth="yes"/>
      <point x="410.0" y="207"/>
      <point x="456.0" y="173"/>
      <point x="544.0" y="147" type="curve" smooth="yes"/>
      <point x="713.0" y="99" type="line"/>
      <point x="745.0" y="90"/>
      <point x="762.0" y="107"/>
    </contour>
    <contour>
      <point x="402.0" y="137" type="curve" smooth="yes"/>
      <point x="402.0" y="254" type="line" smooth="yes"/>
      <point x="402.0" y="285"/>
      <point x="388.0" y="304"/>
      <point x="359.0" y="313" type="curve" smooth="yes"/>
      <point x="264.0" y="340" type="line"/>
      <point x="257.0" y="342"/>
      <point x="254.0" y="342"/>
      <point x="254.0" y="349" type="curve" smooth="yes"/>
      <point x="254.0" y="356"/>
      <point x="258.0" y="356"/>
      <point x="265.0" y="359" type="curve"/>
      <point x="264.0" y="358" type="line"/>
      <point x="359.0" y="387" type="line"/>
      <point x="360.0" y="387" type="line" smooth="yes"/>
      <point x="387.0" y="397"/>
      <point x="402.0" y="414"/>
      <point x="402.0" y="445" type="curve" smooth="yes"/>
      <point x="402.0" y="562" type="line" smooth="yes"/>
      <point x="402.0" y="598"/>
      <point x="381.0" y="610"/>
      <point x="353.0" y="603" type="curve" smooth="yes"/>
      <point x="174.0" y="551" type="line" smooth="yes"/>
      <point x="86.0" y="524"/>
      <point x="40.0" y="491"/>
      <point x="40.0" y="386" type="curve" smooth="yes"/>
      <point x="40.0" y="312" type="line" smooth="yes"/>
      <point x="40.0" y="207"/>
      <point x="86.0" y="173"/>
      <point x="174.0" y="147" type="curve" smooth="yes"/>
      <point x="353.0" y="96" type="line"/>
      <point x="385.0" y="87"/>
      <point x="402.0" y="104"/>
    </contour>
  </outline>
</glyph>
<glyph name="logicalnot" format="2">
  <advance width="734"/>
  <unicode hex="00AC"/>
  <outline>
    <contour>
      <point x="504.0" y="53" type="curve" smooth="yes"/>
      <point x="628.0" y="53" type="line" smooth="yes"/>
      <point x="661.0" y="53"/>
      <point x="674.0" y="67"/>
      <point x="674.0" y="99" type="curve" smooth="yes"/>
      <point x="674.0" y="457" type="line" smooth="yes"/>
      <point x="674.0" y="490"/>
      <point x="660.0" y="503"/>
      <point x="628.0" y="503" type="curve" smooth="yes"/>
      <point x="106.0" y="503" type="line" smooth="yes"/>
      <point x="74.0" y="503"/>
      <point x="60.0" y="489"/>
      <point x="60.0" y="457" type="curve" smooth="yes"/>
      <point x="60.0" y="343" type="line" smooth="yes"/>
      <point x="60.0" y="310"/>
      <point x="74.0" y="297"/>
      <point x="106.0" y="297" type="curve" smooth="yes"/>
      <point x="458.0" y="297" type="line"/>
      <point x="458.0" y="99" type="line" smooth="yes"/>
      <point x="458.0" y="67"/>
      <point x="471.0" y="53"/>
    </contour>
  </outline>
</glyph>
<glyph name="registered" format="1">
  <advance width="560"/>
  <unicode hex="00AE"/>
  <outline>
    <contour>
      <point x="514.0" y="591" type="line" smooth="yes"/>
      <point x="514.0" y="684"/>
      <point x="473.0" y="750"/>
      <point x="280.0" y="750" type="curve" smooth="yes"/>
      <point x="88.0" y="750"/>
      <point x="46.0" y="684"/>
      <point x="46.0" y="591" type="curve" smooth="yes"/>
      <point x="46.0" y="345" type="line" smooth="yes"/>
      <point x="46.0" y="254"/>
      <point x="88.0" y="188"/>
      <point x="280.0" y="188" type="curve" smooth="yes"/>
      <point x="473.0" y="188"/>
      <point x="514.0" y="254"/>
      <point x="514.0" y="345" type="curve" smooth="yes"/>
    </contour>
    <contour>
      <point x="280.0" y="266" type="curve" smooth="yes"/>
      <point x="163.0" y="266"/>
      <point x="126.0" y="294"/>
      <point x="126.0" y="343" type="curve" smooth="yes"/>
      <point x="126.0" y="594" type="line" smooth="yes"/>
      <point x="126.0" y="643"/>
      <point x="163.0" y="672"/>
      <point x="280.0" y="672" type="curve" smooth="yes"/>
      <point x="397.0" y="672"/>
      <point x="434.0" y="643"/>
      <point x="434.0" y="594" type="curve" smooth="yes"/>
      <point x="434.0" y="343" type="line" smooth="yes"/>
      <point x="434.0" y="294"/>
      <point x="397.0" y="266"/>
    </contour>
    <contour>
      <point x="279.0" y="538" type="line" smooth="yes"/>
      <point x="287.0" y="538"/>
      <point x="287.0" y="533"/>
      <point x="287.0" y="528" type="curve" smooth="yes"/>
      <point x="287.0" y="515" type="line" smooth="yes"/>
      <point x="287.0" y="510"/>
      <point x="287.0" y="505"/>
      <point x="279.0" y="505" type="curve" smooth="yes"/>
      <point x="258.0" y="505" type="line"/>
      <point x="258.0" y="538" type="line"/>
    </contour>
    <contour>
      <point x="234.0" y="316" type="line" smooth="yes"/>
      <point x="251.0" y="316"/>
      <point x="258.0" y="324"/>
      <point x="258.0" y="341" type="curve" smooth="yes"/>
      <point x="258.0" y="414" type="line"/>
      <point x="306.0" y="414" type="line" smooth="yes"/>
      <point x="311.0" y="414"/>
      <point x="311.0" y="411"/>
      <point x="311.0" y="407" type="curve" smooth="yes"/>
      <point x="311.0" y="341" type="line" smooth="yes"/>
      <point x="311.0" y="324"/>
      <point x="319.0" y="316"/>
      <point x="336.0" y="316" type="curve" smooth="yes"/>
      <point x="400.0" y="316" type="line" smooth="yes"/>
      <point x="417.0" y="316"/>
      <point x="424.0" y="324"/>
      <point x="424.0" y="341" type="curve" smooth="yes"/>
      <point x="424.0" y="428" type="line" smooth="yes"/>
      <point x="424.0" y="459"/>
      <point x="409.0" y="481"/>
      <point x="386.0" y="492" type="curve"/>
      <point x="394.0" y="502"/>
      <point x="398.0" y="516"/>
      <point x="398.0" y="534" type="curve" smooth="yes"/>
      <point x="398.0" y="553" type="line" smooth="yes"/>
      <point x="398.0" y="599"/>
      <point x="378.0" y="631"/>
      <point x="307.0" y="631" type="curve" smooth="yes"/>
      <point x="171.0" y="631" type="line" smooth="yes"/>
      <point x="153.0" y="631"/>
      <point x="146.0" y="624"/>
      <point x="146.0" y="606" type="curve" smooth="yes"/>
      <point x="146.0" y="341" type="line" smooth="yes"/>
      <point x="146.0" y="324"/>
      <point x="153.0" y="316"/>
      <point x="171.0" y="316" type="curve" smooth="yes"/>
    </contour>
  </outline>
</glyph>
<glyph name="degree" format="1">
  <advance width="483"/>
  <unicode hex="00B0"/>
  <outline>
    <contour>
      <point x="448.0" y="609" type="line" smooth="yes"/>
      <point x="448.0" y="682"/>
      <point x="414.0" y="735"/>
      <point x="242.0" y="735" type="curve" smooth="yes"/>
      <point x="70.0" y="735"/>
      <point x="35.0" y="682"/>
      <point x="35.0" y="609" type="curve" smooth="yes"/>
      <point x="35.0" y="425" type="line" smooth="yes"/>
      <point x="35.0" y="352"/>
      <point x="70.0" y="299"/>
      <point x="242.0" y="299" type="curve" smooth="yes"/>
      <point x="414.0" y="299"/>
      <point x="448.0" y="352"/>
      <point x="448.0" y="425" type="curve" smooth="yes"/>
    </contour>
    <contour>
      <point x="202.0" y="559" type="line" smooth="yes"/>
      <point x="202.0" y="571"/>
      <point x="215.0" y="577"/>
      <point x="242.0" y="577" type="curve" smooth="yes"/>
      <point x="270.0" y="577"/>
      <point x="282.0" y="571"/>
      <point x="282.0" y="559" type="curve" smooth="yes"/>
      <point x="282.0" y="474" type="line" smooth="yes"/>
      <point x="282.0" y="461"/>
      <point x="268.0" y="457"/>
      <point x="242.0" y="457" type="curve" smooth="yes"/>
      <point x="216.0" y="457"/>
      <point x="202.0" y="461"/>
      <point x="202.0" y="474" type="curve" smooth="yes"/>
    </contour>
  </outline>
</glyph>
<glyph name="threesuperior" format="1">
  <advance width="484"/>
  <unicode hex="00B3"/>
  <outline>
    <contour>
      <point x="75.0" y="192" type="curve" smooth="yes"/>
      <point x="303.0" y="192" type="line" smooth="yes"/>
      <point x="403.0" y="192"/>
      <point x="453.0" y="242"/>
      <point x="453.0" y="321" type="curve" smooth="yes"/>
      <point x="453.0" y="393" type="line" smooth="yes"/>
      <point x="453.0" y="454"/>
      <point x="434.0" y="489"/>
      <point x="379.0" y="503" type="curve"/>
      <point x="397.0" y="520"/>
      <point x="404.0" y="545"/>
      <point x="404.0" y="575" type="curve" smooth="yes"/>
      <point x="404.0" y="617" type="line" smooth="yes"/>
      <point x="404.0" y="686"/>
      <point x="364.0" y="730"/>
      <point x="276.0" y="730" type="curve" smooth="yes"/>
      <point x="75.0" y="730" type="line" smooth="yes"/>
      <point x="50.0" y="730"/>
      <point x="39.0" y="719"/>
      <point x="39.0" y="694" type="curve" smooth="yes"/>
      <point x="39.0" y="609" type="line" smooth="yes"/>
      <point x="39.0" y="584"/>
      <point x="50.0" y="573"/>
      <point x="75.0" y="573" type="curve" smooth="yes"/>
      <point x="209.0" y="573" type="line" smooth="yes"/>
      <point x="222.0" y="573"/>
      <point x="227.0" y="569"/>
      <point x="227.0" y="561" type="curve" smooth="yes"/>
      <point x="227.0" y="550" type="line" smooth="yes"/>
      <point x="227.0" y="543"/>
      <point x="221.0" y="539"/>
      <point x="209.0" y="539" type="curve" smooth="yes"/>
      <point x="134.0" y="539" type="line" smooth="yes"/>
      <point x="109.0" y="539"/>
      <point x="98.0" y="528"/>
      <point x="98.0" y="503" type="curve" smooth="yes"/>
      <point x="98.0" y="426" type="line" smooth="yes"/>
      <point x="98.0" y="401"/>
      <point x="109.0" y="390"/>
      <point x="134.0" y="390" type="curve" smooth="yes"/>
      <point x="256.0" y="390" type="line" smooth="yes"/>
      <point x="268.0" y="390"/>
      <point x="273.0" y="386"/>
      <point x="273.0" y="379" type="curve" smooth="yes"/>
      <point x="273.0" y="359" type="line" smooth="yes"/>
      <point x="273.0" y="352"/>
      <point x="268.0" y="348"/>
      <point x="256.0" y="348" type="curve" smooth="yes"/>
      <point x="75.0" y="348" type="line" smooth="yes"/>
      <point x="50.0" y="348"/>
      <point x="39.0" y="337"/>
      <point x="39.0" y="312" type="curve" smooth="yes"/>
      <point x="39.0" y="228" type="line" smooth="yes"/>
      <point x="39.0" y="203"/>
      <point x="50.0" y="192"/>
    </contour>
  </outline>
</glyph>
<glyph name="mu" format="1">
  <advance width="713"/>
  <unicode hex="00B5"/>
  <unicode hex="03BC"/>
  <outline>
    <contour>
      <point x="252.0" y="-100" type="line" smooth="yes"/>
      <point x="284.0" y="-100"/>
      <point x="298.0" y="-86"/>
      <point x="298.0" y="-54" type="curve" smooth="yes"/>
      <point x="298.0" y="-19" type="line"/>
      <point x="322.0" y="-23"/>
      <point x="348.0" y="-25"/>
      <point x="378.0" y="-25" type="curve" smooth="yes"/>
      <point x="613.0" y="-25"/>
      <point x="667.0" y="63"/>
      <point x="667.0" y="189" type="curve" smooth="yes"/>
      <point x="667.0" y="534" type="line" smooth="yes"/>
      <point x="667.0" y="566"/>
      <point x="653.0" y="580"/>
      <point x="621.0" y="580" type="curve" smooth="yes"/>
      <point x="469.0" y="580" type="line" smooth="yes"/>
      <point x="436.0" y="580"/>
      <point x="423.0" y="566"/>
      <point x="423.0" y="534" type="curve" smooth="yes"/>
      <point x="423.0" y="218" type="line" smooth="yes"/>
      <point x="423.0" y="195"/>
      <point x="409.0" y="181"/>
      <point x="360.0" y="181" type="curve" smooth="yes"/>
      <point x="312.0" y="181"/>
      <point x="298.0" y="195"/>
      <point x="298.0" y="218" type="curve" smooth="yes"/>
      <point x="298.0" y="544" type="line"/>
      <point x="297.0" y="544" type="line"/>
      <point x="294.0" y="569"/>
      <point x="280.0" y="580"/>
      <point x="252.0" y="580" type="curve" smooth="yes"/>
      <point x="97.0" y="580" type="line" smooth="yes"/>
      <point x="65.0" y="580"/>
      <point x="51.0" y="566"/>
      <point x="51.0" y="534" type="curve" smooth="yes"/>
      <point x="51.0" y="-54" type="line" smooth="yes"/>
      <point x="51.0" y="-86"/>
      <point x="65.0" y="-100"/>
      <point x="97.0" y="-100" type="curve" smooth="yes"/>
    </contour>
  </outline>
</glyph>
<glyph name="paragraph" format="1">
  <advance width="682"/>
  <unicode hex="00B6"/>
  <outline>
    <contour>
      <point x="188.0" y="272" type="line"/>
      <point x="198.0" y="282" type="line"/>
      <point x="198.0" y="272" type="line"/>
    </contour>
    <contour>
      <point x="365.0" y="282" type="line"/>
      <point x="375.0" y="272" type="line"/>
      <point x="365.0" y="272" type="line"/>
    </contour>
    <contour>
      <point x="365.0" y="36" type="curve" smooth="yes"/>
      <point x="365.0" y="212" type="line"/>
      <point x="436.0" y="212" type="line"/>
      <point x="436.0" y="36" type="line" smooth="yes"/>
      <point x="436.0" y="18"/>
      <point x="444.0" y="10"/>
      <point x="462.0" y="10" type="curve" smooth="yes"/>
      <point x="577.0" y="10" type="line" smooth="yes"/>
      <point x="595.0" y="10"/>
      <point x="603.0" y="18"/>
      <point x="603.0" y="36" type="curve" smooth="yes"/>
      <point x="603.0" y="684" type="line" smooth="yes"/>
      <point x="603.0" y="702"/>
      <point x="595.0" y="710"/>
      <point x="577.0" y="710" type="curve" smooth="yes"/>
      <point x="271.0" y="710" type="line" smooth="yes"/>
      <point x="98.0" y="710"/>
      <point x="45.0" y="636"/>
      <point x="45.0" y="525" type="curve" smooth="yes"/>
      <point x="45.0" y="397" type="line" smooth="yes"/>
      <point x="45.0" y="303"/>
      <point x="83.0" y="236"/>
      <point x="198.0" y="217" type="curve"/>
      <point x="198.0" y="36" type="line" smooth="yes"/>
      <point x="198.0" y="18"/>
      <point x="206.0" y="10"/>
      <point x="224.0" y="10" type="curve" smooth="yes"/>
      <point x="339.0" y="10" type="line" smooth="yes"/>
      <point x="357.0" y="10"/>
      <point x="365.0" y="18"/>
    </contour>
  </outline>
</glyph>
<glyph name="cedilla" format="1">
  <advance width="500"/>
  <unicode hex="00B8"/>
  <outline>
    <contour>
      <point x="319.0" y="-99" type="curve" smooth="yes"/>
      <point x="382.0" y="78" type="line" smooth="yes"/>
      <point x="392.0" y="102"/>
      <point x="386.0" y="120"/>
      <point x="356.0" y="130" type="curve" smooth="yes"/>
      <point x="240.0" y="173" type="line" smooth="yes"/>
      <point x="209.0" y="185"/>
      <point x="194.0" y="176"/>
      <point x="184.0" y="147" type="curve" smooth="yes"/>
      <point x="99.0" y="-83" type="line" smooth="yes"/>
      <point x="87.0" y="-114"/>
      <point x="92.0" y="-136"/>
      <point x="138.0" y="-136" type="curve" smooth="yes"/>
      <point x="264.0" y="-136" type="line" smooth="yes"/>
      <point x="296.0" y="-136"/>
      <point x="311.0" y="-124"/>
    </contour>
    <contour>
      <point x="250.0" y="747.0" type="move" name="_top"/>
    </contour>
    <contour>
      <point x="250.0" y="0.0" type="move" name="_bottom"/>
    </contour>
  </outline>
</glyph>
<glyph name="onesuperior" format="2">
  <advance width="457"/>
  <unicode hex="00B9"/>
  <outline>
    <contour>
      <point x="74.0" y="192" type="curve" smooth="yes"/>
      <point x="392.0" y="192" type="line" smooth="yes"/>
      <point x="417.0" y="192"/>
      <point x="428.0" y="203"/>
      <point x="428.0" y="228" type="curve" smooth="yes"/>
      <point x="428.0" y="315" type="line" smooth="yes"/>
      <point x="428.0" y="340"/>
      <point x="417.0" y="351"/>
      <point x="392.0" y="351" type="curve" smooth="yes"/>
      <point x="333.0" y="351" type="line"/>
      <point x="333.0" y="694" type="line" smooth="yes"/>
      <point x="333.0" y="719"/>
      <point x="322.0" y="730"/>
      <point x="297.0" y="730" type="curve" smooth="yes"/>
      <point x="88.0" y="730" type="line" smooth="yes"/>
      <point x="63.0" y="730"/>
      <point x="52.0" y="719"/>
      <point x="52.0" y="694" type="curve" smooth="yes"/>
      <point x="52.0" y="607" type="line" smooth="yes"/>
      <point x="52.0" y="582"/>
      <point x="63.0" y="571"/>
      <point x="88.0" y="571" type="curve" smooth="yes"/>
      <point x="145.0" y="571" type="line"/>
      <point x="145.0" y="351" type="line"/>
      <point x="74.0" y="351" type="line" smooth="yes"/>
      <point x="49.0" y="351"/>
      <point x="38.0" y="340"/>
      <point x="38.0" y="315" type="curve" smooth="yes"/>
      <point x="38.0" y="228" type="line" smooth="yes"/>
      <point x="38.0" y="203"/>
      <point x="49.0" y="192"/>
    </contour>
  </outline>
</glyph>
<glyph name="ordmasculine" format="1">
  <advance width="525"/>
  <unicode hex="00BA"/>
  <outline>
    <contour>
      <point x="496.0" y="581" type="line" smooth="yes"/>
      <point x="496.0" y="674"/>
      <point x="455.0" y="740"/>
      <point x="263.0" y="740" type="curve" smooth="yes"/>
      <point x="71.0" y="740"/>
      <point x="29.0" y="674"/>
      <point x="29.0" y="581" type="curve" smooth="yes"/>
      <point x="29.0" y="340" type="line"/>
      <point x="29.0" y="248"/>
      <point x="71.0" y="182"/>
      <point x="263.0" y="182" type="curve" smooth="yes"/>
      <point x="455.0" y="182"/>
      <point x="496.0" y="248"/>
      <point x="496.0" y="340" type="curve" smooth="yes"/>
    </contour>
    <contour>
      <point x="218.0" y="555" type="line" smooth="yes"/>
      <point x="218.0" y="568"/>
      <point x="232.0" y="574"/>
      <point x="263.0" y="574" type="curve" smooth="yes"/>
      <point x="294.0" y="574"/>
      <point x="308.0" y="568"/>
      <point x="308.0" y="555" type="curve" smooth="yes"/>
      <point x="308.0" y="365" type="line" smooth="yes"/>
      <point x="308.0" y="352"/>
      <point x="294.0" y="347"/>
      <point x="263.0" y="347" type="curve" smooth="yes"/>
      <point x="233.0" y="347"/>
      <point x="218.0" y="352"/>
      <point x="218.0" y="365" type="curve" smooth="yes"/>
    </contour>
    <contour>
      <point x="450.0" y="-10" type="line" smooth="yes"/>
      <point x="482.0" y="-10"/>
      <point x="496.0" y="3"/>
      <point x="496.0" y="36" type="curve" smooth="yes"/>
      <point x="496.0" y="103" type="line" smooth="yes"/>
      <point x="496.0" y="136"/>
      <point x="482.0" y="149"/>
      <point x="450.0" y="149" type="curve" smooth="yes"/>
      <point x="75.0" y="149" type="line" smooth="yes"/>
      <point x="43.0" y="149"/>
      <point x="29.0" y="135"/>
      <point x="29.0" y="103" type="curve" smooth="yes"/>
      <point x="29.0" y="36" type="line"/>
      <point x="29.0" y="3"/>
      <point x="43.0" y="-10"/>
      <point x="75.0" y="-10" type="curve" smooth="yes"/>
    </contour>
    <contour>
      <point x="265.0" y="745.0" type="move" name="top"/>
    </contour>
    <contour>
      <point x="265.0" y="207.0" type="move" name="bottom"/>
    </contour>
  </outline>
</glyph>
<glyph name="questiondown" format="1">
  <advance width="656"/>
  <unicode hex="00BF"/>
  <outline>
    <contour>
      <point x="266.0" y="684" type="curve" smooth="yes"/>
      <point x="266.0" y="553" type="line" smooth="yes"/>
      <point x="266.0" y="520"/>
      <point x="280.0" y="507"/>
      <point x="312.0" y="507" type="curve" smooth="yes"/>
      <point x="495.0" y="507" type="line" smooth="yes"/>
      <point x="528.0" y="507"/>
      <point x="541.0" y="520"/>
      <point x="541.0" y="553" type="curve" smooth="yes"/>
      <point x="541.0" y="684" type="line" smooth="yes"/>
      <point x="541.0" y="716"/>
      <point x="528.0" y="730"/>
      <point x="495.0" y="730" type="curve" smooth="yes"/>
      <point x="312.0" y="730" type="line" smooth="yes"/>
      <point x="280.0" y="730"/>
      <point x="266.0" y="716"/>
    </contour>
    <contour>
      <point x="252.0" y="-10" type="curve" smooth="yes"/>
      <point x="575.0" y="-10" type="line" smooth="yes"/>
      <point x="607.0" y="-10"/>
      <point x="621.0" y="4"/>
      <point x="621.0" y="36" type="curve" smooth="yes"/>
      <point x="621.0" y="157" type="line" smooth="yes"/>
      <point x="621.0" y="190"/>
      <point x="607.0" y="203"/>
      <point x="575.0" y="203" type="curve" smooth="yes"/>
      <point x="299.0" y="203" type="line" smooth="yes"/>
      <point x="288.0" y="203"/>
      <point x="282.0" y="209"/>
      <point x="282.0" y="221" type="curve" smooth="yes"/>
      <point x="282.0" y="235"/>
      <point x="287.0" y="240"/>
      <point x="300.0" y="242" type="curve" smooth="yes"/>
      <point x="499.0" y="270" type="line" smooth="yes"/>
      <point x="531.0" y="274"/>
      <point x="546.0" y="290"/>
      <point x="541.0" y="323" type="curve" smooth="yes"/>
      <point x="520.0" y="455" type="line" smooth="yes"/>
      <point x="515.0" y="487"/>
      <point x="502.0" y="498"/>
      <point x="470.0" y="494" type="curve" smooth="yes"/>
      <point x="199.0" y="457" type="line" smooth="yes"/>
      <point x="98.0" y="443"/>
      <point x="35.0" y="399"/>
      <point x="35.0" y="281" type="curve" smooth="yes"/>
      <point x="35.0" y="176" type="line" smooth="yes"/>
      <point x="35.0" y="56"/>
      <point x="115.0" y="-10"/>
    </contour>
  </outline>
</glyph>
<glyph name="Aring" format="1">
  <advance width="730"/>
  <unicode hex="00C5"/>
  <outline>
    <contour>
      <point x="366.0" y="731" type="curve" smooth="yes"/>
      <point x="328.0" y="731"/>
      <point x="319.0" y="740"/>
      <point x="319.0" y="764" type="curve" smooth="yes"/>
      <point x="319.0" y="799" type="line" smooth="yes"/>
      <point x="319.0" y="820"/>
      <point x="329.0" y="829"/>
      <point x="366.0" y="829" type="curve" smooth="yes"/>
      <point x="404.0" y="829"/>
      <point x="415.0" y="821"/>
      <point x="415.0" y="799" type="curve" smooth="yes"/>
      <point x="415.0" y="764" type="line" smooth="yes"/>
      <point x="415.0" y="740"/>
      <point x="404.0" y="731"/>
    </contour>
    <contour>
      <point x="340.0" y="507" type="line"/>
      <point x="339.0" y="507" type="line"/>
      <point x="341.0" y="513"/>
      <point x="344.0" y="517"/>
      <point x="349.0" y="517" type="curve" smooth="yes"/>
      <point x="374.0" y="517" type="line" smooth="yes"/>
      <point x="379.0" y="517"/>
      <point x="382.0" y="513"/>
      <point x="384.0" y="507" type="curve" smooth="yes"/>
      <point x="426.0" y="368" type="line"/>
      <point x="297.0" y="368" type="line"/>
    </contour>
    <contour>
      <point x="90.0" y="-10" type="curve" smooth="yes"/>
      <point x="237.0" y="-10" type="line" smooth="yes"/>
      <point x="269.0" y="-10"/>
      <point x="283.0" y="4"/>
      <point x="283.0" y="36" type="curve" smooth="yes"/>
      <point x="283.0" y="166" type="line"/>
      <point x="440.0" y="166" type="line"/>
      <point x="440.0" y="36" type="line" smooth="yes"/>
      <point x="440.0" y="5"/>
      <point x="455.0" y="-10"/>
      <point x="489.0" y="-10" type="curve" smooth="yes"/>
      <point x="640.0" y="-10" type="line" smooth="yes"/>
      <point x="672.0" y="-10"/>
      <point x="686.0" y="4"/>
      <point x="686.0" y="36" type="curve" smooth="yes"/>
      <point x="686.0" y="300" type="line" smooth="yes"/>
      <point x="686.0" y="341"/>
      <point x="674.0" y="392"/>
      <point x="646.0" y="464" type="curve" smooth="yes"/>
      <point x="564.0" y="677" type="line"/>
      <point x="585.0" y="702"/>
      <point x="592.0" y="735"/>
      <point x="592.0" y="771" type="curve" smooth="yes"/>
      <point x="592.0" y="829" type="line" smooth="yes"/>
      <point x="592.0" y="918"/>
      <point x="551.0" y="982"/>
      <point x="365.0" y="982" type="curve" smooth="yes"/>
      <point x="179.0" y="982"/>
      <point x="138.0" y="918"/>
      <point x="138.0" y="829" type="curve" smooth="yes"/>
      <point x="138.0" y="771" type="line" smooth="yes"/>
      <point x="138.0" y="734"/>
      <point x="145.0" y="702"/>
      <point x="166.0" y="677" type="curve"/>
      <point x="84.0" y="464" type="line" smooth="yes"/>
      <point x="56.0" y="392"/>
      <point x="44.0" y="341"/>
      <point x="44.0" y="300" type="curve" smooth="yes"/>
      <point x="44.0" y="36" type="line" smooth="yes"/>
      <point x="44.0" y="4"/>
      <point x="58.0" y="-10"/>
    </contour>
  </outline>
</glyph>
<glyph name="AE" format="1">
  <advance width="1005"/>
  <unicode hex="00C6"/>
  <outline>
    <contour>
      <point x="343.0" y="511" type="line" smooth="yes"/>
      <point x="346.0" y="517"/>
      <point x="347.0" y="521"/>
      <point x="353.0" y="521" type="curve" smooth="yes"/>
      <point x="430.0" y="521" type="line"/>
      <point x="430.0" y="368" type="line"/>
      <point x="295.0" y="368" type="line"/>
    </contour>
    <contour>
      <point x="90.0" y="-10" type="curve" smooth="yes"/>
      <point x="236.0" y="-10" type="line" smooth="yes"/>
      <point x="268.0" y="-10"/>
      <point x="282.0" y="4"/>
      <point x="282.0" y="36" type="curve" smooth="yes"/>
      <point x="282.0" y="166" type="line"/>
      <point x="430.0" y="166" type="line"/>
      <point x="430.0" y="36" type="line" smooth="yes"/>
      <point x="430.0" y="4"/>
      <point x="444.0" y="-10"/>
      <point x="476.0" y="-10" type="curve" smooth="yes"/>
      <point x="920.0" y="-10" type="line" smooth="yes"/>
      <point x="952.0" y="-10"/>
      <point x="966.0" y="4"/>
      <point x="966.0" y="36" type="curve" smooth="yes"/>
      <point x="966.0" y="153" type="line" smooth="yes"/>
      <point x="966.0" y="185"/>
      <point x="952.0" y="199"/>
      <point x="920.0" y="199" type="curve" smooth="yes"/>
      <point x="677.0" y="199" type="line"/>
      <point x="677.0" y="265" type="line"/>
      <point x="839.0" y="265" type="line" smooth="yes"/>
      <point x="871.0" y="265"/>
      <point x="885.0" y="279"/>
      <point x="885.0" y="311" type="curve" smooth="yes"/>
      <point x="885.0" y="418" type="line" smooth="yes"/>
      <point x="885.0" y="451"/>
      <point x="871.0" y="464"/>
      <point x="839.0" y="464" type="curve" smooth="yes"/>
      <point x="677.0" y="464" type="line"/>
      <point x="677.0" y="521" type="line"/>
      <point x="920.0" y="521" type="line" smooth="yes"/>
      <point x="952.0" y="521"/>
      <point x="966.0" y="535"/>
      <point x="966.0" y="567" type="curve" smooth="yes"/>
      <point x="966.0" y="684" type="line" smooth="yes"/>
      <point x="966.0" y="716"/>
      <point x="952.0" y="730"/>
      <point x="920.0" y="730" type="curve" smooth="yes"/>
      <point x="232.0" y="730" type="line" smooth="yes"/>
      <point x="193.0" y="730"/>
      <point x="173.0" y="718"/>
      <point x="161.0" y="682" type="curve" smooth="yes"/>
      <point x="74.0" y="443" type="line" smooth="yes"/>
      <point x="54.0" y="392"/>
      <point x="44.0" y="350"/>
      <point x="44.0" y="290" type="curve" smooth="yes"/>
      <point x="44.0" y="36" type="line" smooth="yes"/>
      <point x="44.0" y="4"/>
      <point x="58.0" y="-10"/>
    </contour>
  </outline>
</glyph>
<glyph name="Eth" format="2">
  <advance width="756"/>
  <unicode hex="00D0"/>
  <outline>
    <contour>
      <point x="344.0" y="255" type="line" smooth="yes"/>
      <point x="376.0" y="255"/>
      <point x="390.0" y="268"/>
      <point x="390.0" y="301" type="curve" smooth="yes"/>
      <point x="390.0" y="408" type="line" smooth="yes"/>
      <point x="390.0" y="441"/>
      <point x="376.0" y="454"/>
      <point x="344.0" y="454" type="curve" smooth="yes"/>
      <point x="313.0" y="454" type="line"/>
      <point x="313.0" y="519" type="line"/>
      <point x="425.0" y="519" type="line" smooth="yes"/>
      <point x="457.0" y="519"/>
      <point x="462.0" y="501"/>
      <point x="462.0" y="481" type="curve" smooth="yes"/>
      <point x="462.0" y="238" type="line" smooth="yes"/>
      <point x="462.0" y="217"/>
      <point x="457.0" y="199"/>
      <point x="425.0" y="199" type="curve" smooth="yes"/>
      <point x="313.0" y="199" type="line"/>
      <point x="313.0" y="255" type="line"/>
    </contour>
    <contour>
      <point x="115.0" y="-10" type="curve" smooth="yes"/>
      <point x="452.0" y="-10" type="line" smooth="yes"/>
      <point x="650.0" y="-10"/>
      <point x="708.0" y="78"/>
      <point x="708.0" y="204" type="curve" smooth="yes"/>
      <point x="708.0" y="516" type="line" smooth="yes"/>
      <point x="708.0" y="642"/>
      <point x="650.0" y="730"/>
      <point x="452.0" y="730" type="curve" smooth="yes"/>
      <point x="115.0" y="730" type="line" smooth="yes"/>
      <point x="83.0" y="730"/>
      <point x="69.0" y="716"/>
      <point x="69.0" y="684" type="curve" smooth="yes"/>
      <point x="69.0" y="454" type="line"/>
      <point x="56.0" y="454" type="line" smooth="yes"/>
      <point x="24.0" y="454"/>
      <point x="10.0" y="440"/>
      <point x="10.0" y="408" type="curve" smooth="yes"/>
      <point x="10.0" y="301" type="line"/>
      <point x="10.0" y="268"/>
      <point x="24.0" y="255"/>
      <point x="56.0" y="255" type="curve" smooth="yes"/>
      <point x="69.0" y="255" type="line"/>
      <point x="69.0" y="36" type="line" smooth="yes"/>
      <point x="69.0" y="4"/>
      <point x="83.0" y="-10"/>
    </contour>
  </outline>
</glyph>
<glyph name="Eth" format="1">
  <advance width="756"/>
  <unicode hex="00D0"/>
  <outline>
    <contour>
      <point x="344.0" y="255" type="line" smooth="yes"/>
      <point x="376.0" y="255"/>
      <point x="390.0" y="268"/>
      <point x="390.0" y="301" type="curve" smooth="yes"/>
      <point x="390.0" y="408" type="line" smooth="yes"/>
      <point x="390.0" y="441"/>
      <point x="376.0" y="454"/>
      <point x="344.0" y="454" type="curve" smooth="yes"/>
      <point x="313.0" y="454" type="line"/>
      <point x="313.0" y="519" type="line"/>
      <point x="425.0" y="519" type="line" smooth="yes"/>
      <point x="457.0" y="519"/>
      <point x="462.0" y="501"/>
      <point x="462.0" y="481" type="curve" smooth="yes"/>
      <point x="462.0" y="238" type="line" smooth="yes"/>
      <point x="462.0" y="217"/>
      <point x="457.0" y="199"/>
      <point x="425.0" y="199" type="curve" smooth="yes"/>
      <point x="313.0" y="199" type="line"/>
      <point x="313.0" y="255" type="line"/>
    </contour>
    <contour>
      <point x="115.0" y="-10" type="curve" smooth="yes"/>
      <point x="452.0" y="-10" type="line" smooth="yes"/>
      <point x="650.0" y="-10"/>
      <point x="708.0" y="78"/>
      <point x="708.0" y="204" type="curve" smooth="yes"/>
      <point x="708.0" y="516" type="line" smooth="yes"/>
      <point x="708.0" y="642"/>
      <point x="650.0" y="730"/>
      <point x="452.0" y="730" type="curve" smooth="yes"/>
      <point x="115.0" y="730" type="line" smooth="yes"/>
      <point x="83.0" y="730"/>
      <point x="69.0" y="716"/>
      <point x="69.0" y="684" type="curve" smooth="yes"/>
      <point x="69.0" y="454" type="line"/>
      <point x="56.0" y="454" type="line" smooth="yes"/>
      <point x="24.0" y="454"/>
      <point x="10.0" y="440"/>
      <point x="10.0" y="408" type="curve" smooth="yes"/>
      <point x="10.0" y="301" type="line"/>
      <point x="10.0" y="268"/>
      <point x="24.0" y="255"/>
      <point x="56.0" y="255" type="curve" smooth="yes"/>
      <point x="69.0" y="255" type="line"/>
      <point x="69.0" y="36" type="line" smooth="yes"/>
      <point x="69.0" y="4"/>
      <point x="83.0" y="-10"/>
    </contour>
  </outline>
</glyph>
<glyph name="multiply" format="2">
  <advance width="734"/>
  <unicode hex="00D7"/>
  <outline>
    <contour>
      <point x="564.0" y="83" type="curve" smooth="yes"/>
      <point x="644.0" y="163" type="line" smooth="yes"/>
      <point x="668.0" y="187"/>
      <point x="667.0" y="207"/>
      <point x="644.0" y="228" type="curve" smooth="yes"/>
      <point x="512.0" y="360" type="line"/>
      <point x="644.0" y="492" type="line" smooth="yes"/>
      <point x="667.0" y="513"/>
      <point x="668.0" y="533"/>
      <point x="644.0" y="557" type="curve" smooth="yes"/>
      <point x="564.0" y="637" type="line" smooth="yes"/>
      <point x="540.0" y="661"/>
      <point x="520.0" y="660"/>
      <point x="499.0" y="637" type="curve" smooth="yes"/>
      <point x="367.0" y="505" type="line"/>
      <point x="235.0" y="637" type="line" smooth="yes"/>
      <point x="214.0" y="660"/>
      <point x="193.0" y="660"/>
      <point x="170.0" y="637" type="curve" smooth="yes"/>
      <point x="90.0" y="557" type="line" smooth="yes"/>
      <point x="66.0" y="533"/>
      <point x="67.0" y="513"/>
      <point x="90.0" y="492" type="curve"/>
      <point x="222.0" y="360" type="line"/>
      <point x="90.0" y="228" type="line" smooth="yes"/>
      <point x="67.0" y="207"/>
      <point x="67.0" y="186"/>
      <point x="90.0" y="163" type="curve" smooth="yes"/>
      <point x="170.0" y="83" type="line" smooth="yes"/>
      <point x="194.0" y="59"/>
      <point x="214.0" y="60"/>
      <point x="235.0" y="83" type="curve"/>
      <point x="367.0" y="215" type="line"/>
      <point x="499.0" y="83" type="line" smooth="yes"/>
      <point x="520.0" y="60"/>
      <point x="540.0" y="59"/>
    </contour>
  </outline>
</glyph>
<glyph name="Oslash" format="2">
  <advance width="737"/>
  <unicode hex="00D8"/>
  <outline>
    <contour>
      <point x="275" y="494" type="curve" smooth="yes"/>
      <point x="275" y="325" type="line"/>
      <point x="366" y="540" type="line"/>
      <point x="294" y="540"/>
      <point x="275" y="523"/>
    </contour>
    <contour>
      <point x="463" y="225" type="curve" smooth="yes"/>
      <point x="463" y="398" type="line"/>
      <point x="370" y="178" type="line"/>
      <point x="444" y="178"/>
      <point x="463" y="195"/>
    </contour>
    <contour>
      <point x="134.0" y="-80" type="line" smooth="yes"/>
      <point x="98.0" y="-80"/>
      <point x="83.0" y="-59"/>
      <point x="99.0" y="-29" type="curve"/>
      <point x="99.0" y="-30" type="line"/>
      <point x="123.0" y="26" type="line"/>
      <point x="65.0" y="64"/>
      <point x="48.0" y="121"/>
      <point x="48.0" y="189" type="curve" smooth="yes"/>
      <point x="48.0" y="530" type="line" smooth="yes"/>
      <point x="48.0" y="656"/>
      <point x="107.0" y="745"/>
      <point x="369.0" y="745" type="curve" smooth="yes"/>
      <point x="389.0" y="745"/>
      <point x="409.0" y="744"/>
      <point x="427.0" y="743" type="curve"/>
      <point x="433.0" y="758" type="line"/>
      <point x="433.0" y="759" type="line" smooth="yes"/>
      <point x="448.0" y="785"/>
      <point x="459.0" y="800"/>
      <point x="488.0" y="800" type="curve" smooth="yes"/>
      <point x="603.0" y="800" type="line" smooth="yes"/>
      <point x="639.0" y="800"/>
      <point x="654.0" y="779"/>
      <point x="638.0" y="749" type="curve"/>
      <point x="638.0" y="750" type="line"/>
      <point x="614.0" y="694" type="line"/>
      <point x="672.0" y="656"/>
      <point x="689.0" y="598"/>
      <point x="689.0" y="530" type="curve" smooth="yes"/>
      <point x="689.0" y="189" type="line" smooth="yes"/>
      <point x="689.0" y="63"/>
      <point x="631.0" y="-25"/>
      <point x="369.0" y="-25" type="curve" smooth="yes"/>
      <point x="348.0" y="-25"/>
      <point x="329.0" y="-24"/>
      <point x="310.0" y="-23" type="curve"/>
      <point x="304.0" y="-38" type="line"/>
      <point x="304.0" y="-39" type="line" smooth="yes"/>
      <point x="289.0" y="-65"/>
      <point x="278.0" y="-80"/>
      <point x="249.0" y="-80" type="curve" smooth="yes"/>
    </contour>
  </outline>
</glyph>
<glyph name="Thorn" format="1">
  <advance width="692"/>
  <unicode hex="00DE"/>
  <outline>
    <contour>
      <point x="105.0" y="-10" type="curve" smooth="yes"/>
      <point x="260.0" y="-10" type="line" smooth="yes"/>
      <point x="292.0" y="-10"/>
      <point x="306.0" y="4"/>
      <point x="306.0" y="36" type="curve" smooth="yes"/>
      <point x="306.0" y="92" type="line"/>
      <point x="411.0" y="92" type="line" smooth="yes"/>
      <point x="602.0" y="92"/>
      <point x="657.0" y="176"/>
      <point x="657.0" y="297" type="curve" smooth="yes"/>
      <point x="657.0" y="425" type="line" smooth="yes"/>
      <point x="657.0" y="546"/>
      <point x="602.0" y="630"/>
      <point x="411.0" y="630" type="curve" smooth="yes"/>
      <point x="306.0" y="630" type="line"/>
      <point x="306.0" y="684" type="line" smooth="yes"/>
      <point x="306.0" y="716"/>
      <point x="292.0" y="730"/>
      <point x="260.0" y="730" type="curve" smooth="yes"/>
      <point x="105.0" y="730" type="line" smooth="yes"/>
      <point x="73.0" y="730"/>
      <point x="59.0" y="716"/>
      <point x="59.0" y="684" type="curve" smooth="yes"/>
      <point x="59.0" y="36" type="line" smooth="yes"/>
      <point x="59.0" y="4"/>
      <point x="73.0" y="-10"/>
    </contour>
    <contour>
      <point x="384.0" y="423" type="line" smooth="yes"/>
      <point x="415.0" y="423"/>
      <point x="421.0" y="404"/>
      <point x="421.0" y="384" type="curve" smooth="yes"/>
      <point x="421.0" y="331" type="line" smooth="yes"/>
      <point x="421.0" y="311"/>
      <point x="415.0" y="292"/>
      <point x="384.0" y="292" type="curve" smooth="yes"/>
      <point x="304.0" y="292" type="line"/>
      <point x="304.0" y="423" type="line"/>
    </contour>
  </outline>
</glyph>
<glyph name="divide" format="1">
  <advance width="734"/>
  <unicode hex="00F7"/>
  <outline>
    <contour>
      <point x="494.0" y="519" type="curve" smooth="yes"/>
      <point x="494.0" y="642" type="line" smooth="yes"/>
      <point x="494.0" y="675"/>
      <point x="480.0" y="688"/>
      <point x="448.0" y="688" type="curve" smooth="yes"/>
      <point x="286.0" y="688" type="line" smooth="yes"/>
      <point x="254.0" y="688"/>
      <point x="240.0" y="675"/>
      <point x="240.0" y="642" type="curve" smooth="yes"/>
      <point x="240.0" y="519" type="line" smooth="yes"/>
      <point x="240.0" y="487"/>
      <point x="254.0" y="473"/>
      <point x="286.0" y="473" type="curve" smooth="yes"/>
      <point x="448.0" y="473" type="line" smooth="yes"/>
      <point x="480.0" y="473"/>
      <point x="494.0" y="487"/>
    </contour>
    <contour>
      <point x="628.0" y="267" type="line" smooth="yes"/>
      <point x="660.0" y="267"/>
      <point x="674.0" y="280"/>
      <point x="674.0" y="313" type="curve" smooth="yes"/>
      <point x="674.0" y="407" type="line" smooth="yes"/>
      <point x="674.0" y="440"/>
      <point x="660.0" y="453"/>
      <point x="628.0" y="453" type="curve" smooth="yes"/>
      <point x="106.0" y="453" type="line" smooth="yes"/>
      <point x="74.0" y="453"/>
      <point x="60.0" y="439"/>
      <point x="60.0" y="407" type="curve" smooth="yes"/>
      <point x="60.0" y="313" type="line" smooth="yes"/>
      <point x="60.0" y="280"/>
      <point x="74.0" y="267"/>
      <point x="106.0" y="267" type="curve" smooth="yes"/>
    </contour>
    <contour>
      <point x="494.0" y="78" type="curve" smooth="yes"/>
      <point x="494.0" y="201" type="line" smooth="yes"/>
      <point x="494.0" y="234"/>
      <point x="480.0" y="247"/>
      <point x="448.0" y="247" type="curve" smooth="yes"/>
      <point x="286.0" y="247" type="line" smooth="yes"/>
      <point x="254.0" y="247"/>
      <point x="240.0" y="234"/>
      <point x="240.0" y="201" type="curve" smooth="yes"/>
      <point x="240.0" y="78" type="line" smooth="yes"/>
      <point x="240.0" y="46"/>
      <point x="254.0" y="32"/>
      <point x="286.0" y="32" type="curve" smooth="yes"/>
      <point x="448.0" y="32" type="line" smooth="yes"/>
      <point x="480.0" y="32"/>
      <point x="494.0" y="46"/>
    </contour>
  </outline>
</glyph>
<glyph name="Hbar" format="1">
  <advance width="779"/>
  <unicode hex="0126"/>
  <outline>
    <contour>
      <point x="466.0" y="415" type="line"/>
      <point x="466.0" y="357" type="line"/>
      <point x="313.0" y="357" type="line"/>
      <point x="313.0" y="415" type="line"/>
    </contour>
    <contour>
      <point x="115.0" y="-10" type="curve" smooth="yes"/>
      <point x="267.0" y="-10" type="line" smooth="yes"/>
      <point x="299.0" y="-10"/>
      <point x="313.0" y="4"/>
      <point x="313.0" y="36" type="curve" smooth="yes"/>
      <point x="313.0" y="138" type="line"/>
      <point x="466.0" y="138" type="line"/>
      <point x="466.0" y="36" type="line" smooth="yes"/>
      <point x="466.0" y="4"/>
      <point x="480.0" y="-10"/>
      <point x="512.0" y="-10" type="curve" smooth="yes"/>
      <point x="664.0" y="-10" type="line" smooth="yes"/>
      <point x="696.0" y="-10"/>
      <point x="710.0" y="4"/>
      <point x="710.0" y="36" type="curve" smooth="yes"/>
      <point x="710.0" y="415" type="line"/>
      <point x="713.0" y="415" type="line" smooth="yes"/>
      <point x="745.0" y="415"/>
      <point x="759.0" y="428"/>
      <point x="759.0" y="461" type="curve" smooth="yes"/>
      <point x="759.0" y="558" type="line" smooth="yes"/>
      <point x="759.0" y="591"/>
      <point x="745.0" y="604"/>
      <point x="713.0" y="604" type="curve" smooth="yes"/>
      <point x="710.0" y="604" type="line"/>
      <point x="710.0" y="684" type="line" smooth="yes"/>
      <point x="710.0" y="716"/>
      <point x="696.0" y="730"/>
      <point x="664.0" y="730" type="curve" smooth="yes"/>
      <point x="512.0" y="730" type="line" smooth="yes"/>
      <point x="480.0" y="730"/>
      <point x="466.0" y="716"/>
      <point x="466.0" y="684" type="curve" smooth="yes"/>
      <point x="466.0" y="604" type="line"/>
      <point x="313.0" y="604" type="line"/>
      <point x="313.0" y="684" type="line" smooth="yes"/>
      <point x="313.0" y="716"/>
      <point x="299.0" y="730"/>
      <point x="267.0" y="730" type="curve" smooth="yes"/>
      <point x="115.0" y="730" type="line" smooth="yes"/>
      <point x="83.0" y="730"/>
      <point x="69.0" y="716"/>
      <point x="69.0" y="684" type="curve" smooth="yes"/>
      <point x="69.0" y="604" type="line"/>
      <point x="66.0" y="604" type="line" smooth="yes"/>
      <point x="34.0" y="604"/>
      <point x="20.0" y="590"/>
      <point x="20.0" y="558" type="curve" smooth="yes"/>
      <point x="20.0" y="461" type="line"/>
      <point x="20.0" y="428"/>
      <point x="34.0" y="415"/>
      <point x="66.0" y="415" type="curve" smooth="yes"/>
      <point x="69.0" y="415" type="line"/>
      <point x="69.0" y="36" type="line" smooth="yes"/>
      <point x="69.0" y="4"/>
      <point x="83.0" y="-10"/>
    </contour>
  </outline>
</glyph>
<glyph name="IJ" format="1">
  <advance width="744.0"/>
  <unicode hex="0132"/>
  <outline>
    <contour>
      <point x="306.0" y="346" type="curve" smooth="yes"/>
      <point x="306.0" y="684" type="line" smooth="yes"/>
      <point x="306.0" y="716"/>
      <point x="292.0" y="730"/>
      <point x="260.0" y="730" type="curve" smooth="yes"/>
      <point x="105.0" y="730" type="line" smooth="yes"/>
      <point x="73.0" y="730"/>
      <point x="59.0" y="716"/>
      <point x="59.0" y="684" type="curve" smooth="yes"/>
      <point x="59.0" y="346" type="line" smooth="yes"/>
      <point x="59.0" y="314"/>
      <point x="73.0" y="300"/>
      <point x="105.0" y="300" type="curve" smooth="yes"/>
      <point x="260.0" y="300" type="line" smooth="yes"/>
      <point x="292.0" y="300"/>
      <point x="306.0" y="314"/>
    </contour>
    <contour>
      <point x="105.0" y="-10" type="curve" smooth="yes"/>
      <point x="467.0" y="-10" type="line" smooth="yes"/>
      <point x="605.0" y="-10"/>
      <point x="690.0" y="72"/>
      <point x="690.0" y="210" type="curve" smooth="yes"/>
      <point x="690.0" y="684" type="line" smooth="yes"/>
      <point x="690.0" y="716"/>
      <point x="676.0" y="730"/>
      <point x="644.0" y="730" type="curve" smooth="yes"/>
      <point x="489.0" y="730" type="line" smooth="yes"/>
      <point x="457.0" y="730"/>
      <point x="443.0" y="716"/>
      <point x="443.0" y="684" type="curve" smooth="yes"/>
      <point x="443.0" y="260" type="line" smooth="yes"/>
      <point x="443.0" y="219"/>
      <point x="421.0" y="203"/>
      <point x="380.0" y="203" type="curve" smooth="yes"/>
      <point x="105.0" y="203" type="line" smooth="yes"/>
      <point x="73.0" y="203"/>
      <point x="59.0" y="189"/>
      <point x="59.0" y="157" type="curve" smooth="yes"/>
      <point x="59.0" y="36" type="line" smooth="yes"/>
      <point x="59.0" y="4"/>
      <point x="73.0" y="-10"/>
    </contour>
  </outline>
</glyph>
<glyph name="Ldot" format="1">
  <advance width="695"/>
  <unicode hex="013F"/>
  <outline>
    <contour>
      <point x="105.0" y="-10" type="curve" smooth="yes"/>
      <point x="614.0" y="-10" type="line" smooth="yes"/>
      <point x="646.0" y="-10"/>
      <point x="660.0" y="4"/>
      <point x="660.0" y="36" type="curve" smooth="yes"/>
      <point x="660.0" y="271" type="line" smooth="yes"/>
      <point x="660.0" y="303"/>
      <point x="646.0" y="317"/>
      <point x="614.0" y="317" type="curve" smooth="yes"/>
      <point x="469.0" y="317" type="line" smooth="yes"/>
      <point x="437.0" y="317"/>
      <point x="423.0" y="303"/>
      <point x="423.0" y="271" type="curve" smooth="yes"/>
      <point x="423.0" y="199" type="line"/>
      <point x="306.0" y="199" type="line"/>
      <point x="306.0" y="684" type="line" smooth="yes"/>
      <point x="306.0" y="716"/>
      <point x="292.0" y="730"/>
      <point x="260.0" y="730" type="curve" smooth="yes"/>
      <point x="105.0" y="730" type="line" smooth="yes"/>
      <point x="73.0" y="730"/>
      <point x="59.0" y="716"/>
      <point x="59.0" y="684" type="curve" smooth="yes"/>
      <point x="59.0" y="36" type="line" smooth="yes"/>
      <point x="59.0" y="4"/>
      <point x="73.0" y="-10"/>
    </contour>
    <contour>
      <point x="650.0" y="408" type="curve" smooth="yes"/>
      <point x="650.0" y="535" type="line" smooth="yes"/>
      <point x="650.0" y="567"/>
      <point x="636.0" y="581"/>
      <point x="604.0" y="581" type="curve" smooth="yes"/>
      <point x="459.0" y="581" type="line" smooth="yes"/>
      <point x="427.0" y="581"/>
      <point x="413.0" y="567"/>
      <point x="413.0" y="535" type="curve" smooth="yes"/>
      <point x="413.0" y="408" type="line" smooth="yes"/>
      <point x="413.0" y="376"/>
      <point x="427.0" y="362"/>
      <point x="459.0" y="362" type="curve" smooth="yes"/>
      <point x="604.0" y="362" type="line" smooth="yes"/>
      <point x="636.0" y="362"/>
      <point x="650.0" y="376"/>
    </contour>
  </outline>
</glyph>
<glyph name="Eng" format="1">
  <advance width="746"/>
  <unicode hex="014A"/>
  <outline>
    <contour>
      <point x="54.0" y="36" type="line" smooth="yes"/>
      <point x="54.0" y="4"/>
      <point x="68.0" y="-10"/>
      <point x="100.0" y="-10" type="curve" smooth="yes"/>
      <point x="252.0" y="-10" type="line" smooth="yes"/>
      <point x="285.0" y="-10"/>
      <point x="298.0" y="4"/>
      <point x="298.0" y="36" type="curve" smooth="yes"/>
      <point x="298.0" y="492" type="line" smooth="yes"/>
      <point x="298.0" y="516"/>
      <point x="315.0" y="529"/>
      <point x="371.0" y="529" type="curve" smooth="yes"/>
      <point x="426.0" y="529"/>
      <point x="443.0" y="516"/>
      <point x="443.0" y="492" type="curve" smooth="yes"/>
      <point x="443.0" y="149" type="line" smooth="yes"/>
      <point x="443.0" y="128"/>
      <point x="440.0" y="111"/>
      <point x="412.0" y="111" type="curve" smooth="yes"/>
      <point x="391.0" y="111" type="line" smooth="yes"/>
      <point x="359.0" y="111"/>
      <point x="345.0" y="97"/>
      <point x="345.0" y="65" type="curve" smooth="yes"/>
      <point x="345.0" y="-54" type="line" smooth="yes"/>
      <point x="345.0" y="-86"/>
      <point x="359.0" y="-100"/>
      <point x="391.0" y="-100" type="curve" smooth="yes"/>
      <point x="436.0" y="-100" type="line" smooth="yes"/>
      <point x="634.0" y="-100"/>
      <point x="692.0" y="-12"/>
      <point x="692.0" y="114" type="curve" smooth="yes"/>
      <point x="692.0" y="531" type="line" smooth="yes"/>
      <point x="692.0" y="657"/>
      <point x="633.0" y="745"/>
      <point x="373.0" y="745" type="curve" smooth="yes"/>
      <point x="113.0" y="745"/>
      <point x="54.0" y="657"/>
      <point x="54.0" y="531" type="curve" smooth="yes"/>
    </contour>
  </outline>
</glyph>
<glyph name="OE" format="1">
  <advance width="1015"/>
  <unicode hex="0152"/>
  <outline>
    <contour>
      <point x="304.0" y="-10" type="curve" smooth="yes"/>
      <point x="930.0" y="-10" type="line" smooth="yes"/>
      <point x="962.0" y="-10"/>
      <point x="976.0" y="4"/>
      <point x="976.0" y="36" type="curve" smooth="yes"/>
      <point x="976.0" y="153" type="line" smooth="yes"/>
      <point x="976.0" y="185"/>
      <point x="962.0" y="199"/>
      <point x="930.0" y="199" type="curve" smooth="yes"/>
      <point x="677.0" y="199" type="line"/>
      <point x="677.0" y="265" type="line"/>
      <point x="849.0" y="265" type="line" smooth="yes"/>
      <point x="881.0" y="265"/>
      <point x="895.0" y="279"/>
      <point x="895.0" y="311" type="curve" smooth="yes"/>
      <point x="895.0" y="418" type="line" smooth="yes"/>
      <point x="895.0" y="451"/>
      <point x="881.0" y="464"/>
      <point x="849.0" y="464" type="curve" smooth="yes"/>
      <point x="677.0" y="464" type="line"/>
      <point x="677.0" y="521" type="line"/>
      <point x="930.0" y="521" type="line" smooth="yes"/>
      <point x="962.0" y="521"/>
      <point x="976.0" y="535"/>
      <point x="976.0" y="567" type="curve" smooth="yes"/>
      <point x="976.0" y="684" type="line" smooth="yes"/>
      <point x="976.0" y="716"/>
      <point x="962.0" y="730"/>
      <point x="930.0" y="730" type="curve" smooth="yes"/>
      <point x="304.0" y="730" type="line" smooth="yes"/>
      <point x="106.0" y="730"/>
      <point x="48.0" y="642"/>
      <point x="48.0" y="516" type="curve" smooth="yes"/>
      <point x="48.0" y="204" type="line" smooth="yes"/>
      <point x="48.0" y="78"/>
      <point x="106.0" y="-10"/>
    </contour>
    <contour>
      <point x="331.0" y="199" type="curve" smooth="yes"/>
      <point x="430.0" y="199" type="line"/>
      <point x="430.0" y="519" type="line"/>
      <point x="331.0" y="519" type="line" smooth="yes"/>
      <point x="299.0" y="519"/>
      <point x="294.0" y="501"/>
      <point x="294.0" y="481" type="curve" smooth="yes"/>
      <point x="294.0" y="238" type="line" smooth="yes"/>
      <point x="294.0" y="217"/>
      <point x="299.0" y="199"/>
    </contour>
  </outline>
</glyph>
<glyph name="Tbar" format="2">
  <advance width="656"/>
  <unicode hex="0166"/>
  <outline>
    <contour>
      <point x="567.0" y="258" type="curve" smooth="yes"/>
      <point x="567.0" y="365" type="line" smooth="yes"/>
      <point x="567.0" y="397"/>
      <point x="553.0" y="411"/>
      <point x="521.0" y="411" type="curve" smooth="yes"/>
      <point x="134.0" y="411" type="line" smooth="yes"/>
      <point x="102.0" y="411"/>
      <point x="88.0" y="397"/>
      <point x="88.0" y="365" type="curve" smooth="yes"/>
      <point x="88.0" y="258" type="line" smooth="yes"/>
      <point x="88.0" y="226"/>
      <point x="102.0" y="212"/>
      <point x="134.0" y="212" type="curve" smooth="yes"/>
      <point x="521.0" y="212" type="line" smooth="yes"/>
      <point x="553.0" y="212"/>
      <point x="567.0" y="226"/>
    </contour>
    <component base="T"/>
  </outline>
</glyph>
<glyph name="Schwa" format="1">
  <advance width="715"/>
  <unicode hex="018F"/>
  <outline>
    <contour>
      <point x="364.0" y="-25" type="curve" smooth="yes"/>
      <point x="620.0" y="-25"/>
      <point x="676.0" y="63"/>
      <point x="676.0" y="189" type="curve" smooth="yes"/>
      <point x="676.0" y="516" type="line" smooth="yes"/>
      <point x="676.0" y="642"/>
      <point x="618.0" y="730"/>
      <point x="420.0" y="730" type="curve" smooth="yes"/>
      <point x="166.0" y="730" type="line" smooth="yes"/>
      <point x="134.0" y="730"/>
      <point x="120.0" y="716"/>
      <point x="120.0" y="684" type="curve" smooth="yes"/>
      <point x="120.0" y="567" type="line" smooth="yes"/>
      <point x="120.0" y="535"/>
      <point x="134.0" y="521"/>
      <point x="166.0" y="521" type="curve" smooth="yes"/>
      <point x="387.0" y="521" type="line" smooth="yes"/>
      <point x="428.0" y="521"/>
      <point x="438.0" y="506"/>
      <point x="438.0" y="483" type="curve" smooth="yes"/>
      <point x="438.0" y="455" type="line"/>
      <point x="89.0" y="455" type="line" smooth="yes"/>
      <point x="57.0" y="455"/>
      <point x="43.0" y="441"/>
      <point x="43.0" y="409" type="curve" smooth="yes"/>
      <point x="43.0" y="189" type="line" smooth="yes"/>
      <point x="43.0" y="63"/>
      <point x="102.0" y="-25"/>
    </contour>
    <contour>
      <point x="364.0" y="188" type="curve" smooth="yes"/>
      <point x="307.0" y="188"/>
      <point x="290.0" y="201"/>
      <point x="290.0" y="225" type="curve" smooth="yes"/>
      <point x="290.0" y="256" type="line"/>
      <point x="438.0" y="256" type="line"/>
      <point x="438.0" y="225" type="line" smooth="yes"/>
      <point x="438.0" y="201"/>
      <point x="421.0" y="188"/>
    </contour>
  </outline>
</glyph>
<glyph name="florin" format="1">
  <advance width="574"/>
  <unicode hex="0192"/>
  <outline>
    <contour>
      <point x="81.0" y="-10" type="curve" smooth="yes"/>
      <point x="155.0" y="-10" type="line" smooth="yes"/>
      <point x="353.0" y="-10"/>
      <point x="411.0" y="78"/>
      <point x="411.0" y="205" type="curve" smooth="yes"/>
      <point x="411.0" y="260" type="line"/>
      <point x="493.0" y="260" type="line" smooth="yes"/>
      <point x="525.0" y="260"/>
      <point x="539.0" y="273"/>
      <point x="539.0" y="306" type="curve" smooth="yes"/>
      <point x="539.0" y="413" type="line" smooth="yes"/>
      <point x="539.0" y="446"/>
      <point x="525.0" y="459"/>
      <point x="493.0" y="459" type="curve" smooth="yes"/>
      <point x="411.0" y="459" type="line"/>
      <point x="411.0" y="477" type="line" smooth="yes"/>
      <point x="411.0" y="497"/>
      <point x="414.0" y="517"/>
      <point x="442.0" y="517" type="curve" smooth="yes"/>
      <point x="493.0" y="517" type="line" smooth="yes"/>
      <point x="525.0" y="517"/>
      <point x="539.0" y="531"/>
      <point x="539.0" y="563" type="curve" smooth="yes"/>
      <point x="539.0" y="684" type="line" smooth="yes"/>
      <point x="539.0" y="716"/>
      <point x="525.0" y="730"/>
      <point x="493.0" y="730" type="curve" smooth="yes"/>
      <point x="419.0" y="730" type="line" smooth="yes"/>
      <point x="221.0" y="730"/>
      <point x="163.0" y="642"/>
      <point x="163.0" y="515" type="curve" smooth="yes"/>
      <point x="163.0" y="459" type="line"/>
      <point x="81.0" y="459" type="line" smooth="yes"/>
      <point x="49.0" y="459"/>
      <point x="35.0" y="445"/>
      <point x="35.0" y="413" type="curve" smooth="yes"/>
      <point x="35.0" y="306" type="line" smooth="yes"/>
      <point x="35.0" y="273"/>
      <point x="49.0" y="260"/>
      <point x="81.0" y="260" type="curve" smooth="yes"/>
      <point x="163.0" y="260" type="line"/>
      <point x="163.0" y="243" type="line" smooth="yes"/>
      <point x="163.0" y="223"/>
      <point x="160.0" y="203"/>
      <point x="132.0" y="203" type="curve" smooth="yes"/>
      <point x="81.0" y="203" type="line" smooth="yes"/>
      <point x="49.0" y="203"/>
      <point x="35.0" y="189"/>
      <point x="35.0" y="157" type="curve" smooth="yes"/>
      <point x="35.0" y="36" type="line" smooth="yes"/>
      <point x="35.0" y="4"/>
      <point x="49.0" y="-10"/>
    </contour>
  </outline>
</glyph>
<glyph name="ascript" format="1">
  <advance width="746"/>
  <unicode hex="0251"/>
  <outline>
    <contour>
      <point x="304.0" y="-10" type="curve" smooth="yes"/>
      <point x="641.0" y="-10" type="line" smooth="yes"/>
      <point x="673.0" y="-10"/>
      <point x="687.0" y="4"/>
      <point x="687.0" y="36" type="curve" smooth="yes"/>
      <point x="685.0" y="530" type="line"/>
      <point x="685.0" y="656"/>
      <point x="627.0" y="745"/>
      <point x="366.0" y="745" type="curve" smooth="yes"/>
      <point x="107.0" y="745"/>
      <point x="48.0" y="656"/>
      <point x="48.0" y="530" type="curve" smooth="yes"/>
      <point x="48.0" y="204" type="line" smooth="yes"/>
      <point x="48.0" y="59"/>
      <point x="128.0" y="-10"/>
    </contour>
    <contour>
      <point x="331.0" y="201" type="line" smooth="yes"/>
      <point x="306.0" y="201"/>
      <point x="294.0" y="211"/>
      <point x="294.0" y="238" type="curve" smooth="yes"/>
      <point x="294.0" y="494" type="line" smooth="yes"/>
      <point x="294.0" y="517"/>
      <point x="311.0" y="530"/>
      <point x="366.0" y="530" type="curve" smooth="yes"/>
      <point x="422.0" y="530"/>
      <point x="440.0" y="519"/>
      <point x="440.0" y="496" type="curve" smooth="yes"/>
      <point x="440.0" y="201" type="line"/>
    </contour>
  </outline>
</glyph>
<glyph name="gscript" format="2">
  <advance width="715"/>
  <unicode hex="0261"/>
  <outline>
    <contour>
      <point x="167.0" y="-71" type="curve" smooth="yes"/>
      <point x="421.0" y="-71" type="line" smooth="yes"/>
      <point x="619.0" y="-71"/>
      <point x="677.0" y="17"/>
      <point x="677.0" y="143" type="curve" smooth="yes"/>
      <point x="677.0" y="530" type="line" smooth="yes"/>
      <point x="677.0" y="656"/>
      <point x="619.0" y="745"/>
      <point x="358.0" y="745" type="curve" smooth="yes"/>
      <point x="99.0" y="745"/>
      <point x="40.0" y="656"/>
      <point x="40.0" y="530" type="curve" smooth="yes"/>
      <point x="40.0" y="414" type="line" smooth="yes"/>
      <point x="40.0" y="269"/>
      <point x="118.0" y="200"/>
      <point x="294.0" y="200" type="curve" smooth="yes"/>
      <point x="429.0" y="200" type="line"/>
      <point x="429.0" y="176" type="line" smooth="yes"/>
      <point x="429.0" y="153"/>
      <point x="419.0" y="138"/>
      <point x="378.0" y="138" type="curve" smooth="yes"/>
      <point x="167.0" y="138" type="line" smooth="yes"/>
      <point x="135.0" y="138"/>
      <point x="121.0" y="124"/>
      <point x="121.0" y="92" type="curve" smooth="yes"/>
      <point x="121.0" y="-25" type="line" smooth="yes"/>
      <point x="121.0" y="-57"/>
      <point x="135.0" y="-71"/>
    </contour>
    <contour>
      <point x="323.0" y="409" type="line" smooth="yes"/>
      <point x="298.0" y="409"/>
      <point x="286.0" y="421"/>
      <point x="286.0" y="448" type="curve" smooth="yes"/>
      <point x="286.0" y="494" type="line" smooth="yes"/>
      <point x="286.0" y="517"/>
      <point x="303.0" y="530"/>
      <point x="358.0" y="530" type="curve" smooth="yes"/>
      <point x="414.0" y="530"/>
      <point x="430.0" y="519"/>
      <point x="430.0" y="496" type="curve" smooth="yes"/>
      <point x="430.0" y="409" type="line"/>
    </contour>
  </outline>
</glyph>
<glyph name="commaturnedmod" format="1">
  <advance width="500"/>
  <unicode hex="02BB"/>
  <outline>
    <contour>
      <point x="171.0" y="391" type="curve" smooth="yes"/>
      <point x="329.0" y="391" type="line" smooth="yes"/>
      <point x="364.0" y="391"/>
      <point x="376.0" y="402"/>
      <point x="376.0" y="440" type="curve" smooth="yes"/>
      <point x="376.0" y="549" type="line" smooth="yes"/>
      <point x="376.0" y="587"/>
      <point x="364.0" y="598"/>
      <point x="329.0" y="598" type="curve" smooth="yes"/>
      <point x="253.0" y="598" type="line"/>
      <point x="253.0" y="601" type="line" smooth="yes"/>
      <point x="253.0" y="609"/>
      <point x="257.0" y="615"/>
      <point x="266.0" y="615" type="curve" smooth="yes"/>
      <point x="325.0" y="615" type="line" smooth="yes"/>
      <point x="353.0" y="615"/>
      <point x="365.0" y="627"/>
      <point x="365.0" y="655" type="curve" smooth="yes"/>
      <point x="365.0" y="689" type="line" smooth="yes"/>
      <point x="365.0" y="718"/>
      <point x="353.0" y="730"/>
      <point x="325.0" y="730" type="curve" smooth="yes"/>
      <point x="259.0" y="730" type="line" smooth="yes"/>
      <point x="177.0" y="730"/>
      <point x="124.0" y="685"/>
      <point x="124.0" y="592" type="curve" smooth="yes"/>
      <point x="124.0" y="440" type="line" smooth="yes"/>
      <point x="124.0" y="402"/>
      <point x="136.0" y="391"/>
    </contour>
  </outline>
</glyph>
<glyph name="ringhalfright" format="1">
  <advance width="312"/>
  <unicode hex="02BE"/>
  <outline>
    <contour>
      <point x="164.0" y="373" type="line" smooth="yes"/>
      <point x="250.0" y="373"/>
      <point x="289.0" y="407"/>
      <point x="289.0" y="478" type="curve" smooth="yes"/>
      <point x="289.0" y="624" type="line" smooth="yes"/>
      <point x="289.0" y="695"/>
      <point x="250.0" y="730"/>
      <point x="164.0" y="730" type="curve" smooth="yes"/>
      <point x="55.0" y="730" type="line" smooth="yes"/>
      <point x="32.0" y="730"/>
      <point x="23.0" y="718"/>
      <point x="23.0" y="698" type="curve" smooth="yes"/>
      <point x="23.0" y="621" type="line"/>
      <point x="23.0" y="601"/>
      <point x="32.0" y="589"/>
      <point x="55.0" y="589" type="curve" smooth="yes"/>
      <point x="104.0" y="589" type="line" smooth="yes"/>
      <point x="115.0" y="589"/>
      <point x="122.0" y="586"/>
      <point x="122.0" y="576" type="curve" smooth="yes"/>
      <point x="122.0" y="525" type="line" smooth="yes"/>
      <point x="122.0" y="515"/>
      <point x="115.0" y="512"/>
      <point x="104.0" y="512" type="curve" smooth="yes"/>
      <point x="55.0" y="512" type="line" smooth="yes"/>
      <point x="32.0" y="512"/>
      <point x="23.0" y="503"/>
      <point x="23.0" y="480" type="curve" smooth="yes"/>
      <point x="23.0" y="405" type="line"/>
      <point x="23.0" y="382"/>
      <point x="32.0" y="373"/>
      <point x="55.0" y="373" type="curve" smooth="yes"/>
    </contour>
  </outline>
</glyph>
<glyph name="ringhalfleft" format="1">
  <advance width="312"/>
  <unicode hex="02BF"/>
  <outline>
    <contour>
      <point x="289.0" y="405" type="curve"/>
      <point x="289.0" y="480" type="line" smooth="yes"/>
      <point x="289.0" y="503"/>
      <point x="280.0" y="512"/>
      <point x="257.0" y="512" type="curve" smooth="yes"/>
      <point x="208.0" y="512" type="line" smooth="yes"/>
      <point x="197.0" y="512"/>
      <point x="190.0" y="515"/>
      <point x="190.0" y="525" type="curve" smooth="yes"/>
      <point x="190.0" y="576" type="line" smooth="yes"/>
      <point x="190.0" y="586"/>
      <point x="197.0" y="589"/>
      <point x="208.0" y="589" type="curve" smooth="yes"/>
      <point x="257.0" y="589" type="line" smooth="yes"/>
      <point x="280.0" y="589"/>
      <point x="289.0" y="601"/>
      <point x="289.0" y="621" type="curve"/>
      <point x="289.0" y="698" type="line" smooth="yes"/>
      <point x="289.0" y="718"/>
      <point x="280.0" y="730"/>
      <point x="257.0" y="730" type="curve" smooth="yes"/>
      <point x="148.0" y="730" type="line" smooth="yes"/>
      <point x="62.0" y="730"/>
      <point x="23.0" y="695"/>
      <point x="23.0" y="624" type="curve" smooth="yes"/>
      <point x="23.0" y="478" type="line" smooth="yes"/>
      <point x="23.0" y="407"/>
      <point x="62.0" y="373"/>
      <point x="148.0" y="373" type="curve" smooth="yes"/>
      <point x="257.0" y="373" type="line" smooth="yes"/>
      <point x="280.0" y="373"/>
      <point x="289.0" y="382"/>
    </contour>
  </outline>
</glyph>
<glyph name="verticallinemod" format="1">
  <advance width="356"/>
  <unicode hex="02C8"/>
  <outline>
    <contour>
      <point x="305.0" y="386" type="curve" smooth="yes"/>
      <point x="305.0" y="679" type="line" smooth="yes"/>
      <point x="305.0" y="723"/>
      <point x="298.0" y="730"/>
      <point x="256.0" y="730" type="curve" smooth="yes"/>
      <point x="101.0" y="730" type="line" smooth="yes"/>
      <point x="57.0" y="730"/>
      <point x="51.0" y="723"/>
      <point x="51.0" y="679" type="curve" smooth="yes"/>
      <point x="51.0" y="386" type="line" smooth="yes"/>
      <point x="51.0" y="343"/>
      <point x="59.0" y="335"/>
      <point x="103.0" y="335" type="curve" smooth="yes"/>
      <point x="253.0" y="335" type="line" smooth="yes"/>
      <point x="297.0" y="335"/>
      <point x="305.0" y="343"/>
    </contour>
  </outline>
</glyph>
<glyph name="breve" format="1">
  <advance width="500"/>
  <unicode hex="02D8"/>
  <outline>
    <contour>
      <point x="477.0" y="941" type="line" smooth="yes"/>
      <point x="477.0" y="973"/>
      <point x="463.0" y="987"/>
      <point x="431.0" y="987" type="curve" smooth="yes"/>
      <point x="340.0" y="987" type="line" smooth="yes"/>
      <point x="310.0" y="987"/>
      <point x="300.0" y="978"/>
      <point x="300.0" y="946" type="curve" smooth="yes"/>
      <point x="300.0" y="925" type="line" smooth="yes"/>
      <point x="300.0" y="909"/>
      <point x="286.0" y="902"/>
      <point x="251.0" y="902" type="curve" smooth="yes"/>
      <point x="217.0" y="902"/>
      <point x="204.0" y="909"/>
      <point x="204.0" y="925" type="curve" smooth="yes"/>
      <point x="204.0" y="946" type="line" smooth="yes"/>
      <point x="204.0" y="978"/>
      <point x="193.0" y="987"/>
      <point x="165.0" y="987" type="curve" smooth="yes"/>
      <point x="69.0" y="987" type="line" smooth="yes"/>
      <point x="37.0" y="987"/>
      <point x="23.0" y="973"/>
      <point x="23.0" y="941" type="curve" smooth="yes"/>
      <point x="23.0" y="897" type="line"/>
      <point x="23.0" y="808"/>
      <point x="64.0" y="744"/>
      <point x="250.0" y="744" type="curve" smooth="yes"/>
      <point x="436.0" y="744"/>
      <point x="477.0" y="808"/>
      <point x="477.0" y="897" type="curve" smooth="yes"/>
    </contour>
    <contour>
      <point x="250.0" y="747.0" type="move" name="_top"/>
    </contour>
    <contour>
      <point x="250.0" y="0.0" type="move" name="_bottom"/>
    </contour>
  </outline>
</glyph>
<glyph name="ring" format="2">
  <advance width="500"/>
  <unicode hex="02DA"/>
  <anchor x="250.0" y="747.0" name="_top"/>
  <anchor x="250.0" y="0.0" name="_bottom"/>
  <outline>
    <contour>
      <point x="250.0" y="1148" type="curve" smooth="yes"/>
      <point x="64.0" y="1148"/>
      <point x="23.0" y="1084"/>
      <point x="23.0" y="995" type="curve" smooth="yes"/>
      <point x="23.0" y="897" type="line"/>
      <point x="23.0" y="808"/>
      <point x="64.0" y="744"/>
      <point x="250.0" y="744" type="curve" smooth="yes"/>
      <point x="436.0" y="744"/>
      <point x="477.0" y="808"/>
      <point x="477.0" y="897" type="curve" smooth="yes"/>
      <point x="477.0" y="995" type="line" smooth="yes"/>
      <point x="477.0" y="1084"/>
      <point x="436.0" y="1148"/>
    </contour>
    <contour>
      <point x="251.0" y="897" type="curve" smooth="yes"/>
      <point x="213.0" y="897"/>
      <point x="204.0" y="906"/>
      <point x="204.0" y="930" type="curve" smooth="yes"/>
      <point x="204.0" y="965" type="line" smooth="yes"/>
      <point x="204.0" y="986"/>
      <point x="214.0" y="995"/>
      <point x="251.0" y="995" type="curve" smooth="yes"/>
      <point x="289.0" y="995"/>
      <point x="300.0" y="987"/>
      <point x="300.0" y="965" type="curve" smooth="yes"/>
      <point x="300.0" y="930" type="line" smooth="yes"/>
      <point x="300.0" y="906"/>
      <point x="289.0" y="897"/>
    </contour>
  </outline>
</glyph>
<glyph name="ogonek" format="2">
  <advance width="500"/>
  <unicode hex="02DB"/>
  <anchor x="250.0" y="747.0" name="_top"/>
  <anchor x="250.0" y="0.0" name="_bottom"/>
  <outline>
    <contour>
      <point x="234.0" y="-196" type="curve" smooth="yes"/>
      <point x="345.0" y="-196" type="line" smooth="yes"/>
      <point x="379.0" y="-196"/>
      <point x="388.0" y="-186"/>
      <point x="388.0" y="-152" type="curve" smooth="yes"/>
      <point x="388.0" y="-80" type="line" smooth="yes"/>
      <point x="388.0" y="-47"/>
      <point x="378.0" y="-36"/>
      <point x="342.0" y="-36" type="curve" smooth="yes"/>
      <point x="313.0" y="-36" type="line"/>
      <point x="329.0" y="77" type="line"/>
      <point x="146.0" y="77" type="line"/>
      <point x="123.0" y="-49" type="line" smooth="yes"/>
      <point x="108.0" y="-152"/>
      <point x="141.0" y="-196"/>
    </contour>
  </outline>
</glyph>
<glyph name="tilde" format="1">
  <advance width="500"/>
  <unicode hex="02DC"/>
  <outline>
    <contour>
      <point x="425.0" y="757" type="curve" smooth="yes"/>
      <point x="425.0" y="758" type="line"/>
      <point x="426.0" y="758" type="line" smooth="yes"/>
      <point x="454.0" y="769"/>
      <point x="468.0" y="778"/>
      <point x="468.0" y="808" type="curve" smooth="yes"/>
      <point x="468.0" y="909" type="line" smooth="yes"/>
      <point x="468.0" y="943"/>
      <point x="452.0" y="954"/>
      <point x="419.0" y="945" type="curve" smooth="yes"/>
      <point x="362.0" y="927"/>
      <point x="358.0" y="924"/>
      <point x="272.0" y="937" type="curve" smooth="yes"/>
      <point x="250.0" y="940" type="line"/>
      <point x="233.0" y="942" type="line" smooth="yes"/>
      <point x="151.0" y="954"/>
      <point x="138.0" y="956"/>
      <point x="73.0" y="937" type="curve" smooth="yes"/>
      <point x="73.0" y="936" type="line"/>
      <point x="72.0" y="936" type="line" smooth="yes"/>
      <point x="44.0" y="925"/>
      <point x="30.0" y="916"/>
      <point x="30.0" y="886" type="curve" smooth="yes"/>
      <point x="30.0" y="785" type="line"/>
      <point x="30.0" y="751"/>
      <point x="46.0" y="740"/>
      <point x="79.0" y="749" type="curve" smooth="yes"/>
      <point x="130.0" y="765"/>
      <point x="146.0" y="769"/>
      <point x="220.0" y="758" type="curve" smooth="yes"/>
      <point x="248.0" y="754" type="line"/>
      <point x="264.0" y="752" type="line" smooth="yes"/>
      <point x="346.0" y="740"/>
      <point x="360.0" y="738"/>
    </contour>
    <contour>
      <point x="250.0" y="747.0" type="move" name="_top"/>
    </contour>
    <contour>
      <point x="250.0" y="0.0" type="move" name="_bottom"/>
    </contour>
  </outline>
</glyph>
<glyph name="hungarumlaut" format="1">
  <advance width="500"/>
  <unicode hex="02DD"/>
  <outline>
    <contour>
      <point x="288.0" y="750" type="curve" smooth="yes"/>
      <point x="394.0" y="750" type="line" smooth="yes"/>
      <point x="425.0" y="750"/>
      <point x="432.0" y="763"/>
      <point x="440.0" y="794" type="curve" smooth="yes"/>
      <point x="493.0" y="1001" type="line" smooth="yes"/>
      <point x="500.0" y="1029"/>
      <point x="482.0" y="1047"/>
      <point x="450.0" y="1047" type="curve" smooth="yes"/>
      <point x="344.0" y="1047" type="line" smooth="yes"/>
      <point x="313.0" y="1047"/>
      <point x="306.0" y="1034"/>
      <point x="298.0" y="1003" type="curve" smooth="yes"/>
      <point x="245.0" y="796" type="line"/>
      <point x="245.0" y="797" type="line"/>
      <point x="238.0" y="768"/>
      <point x="256.0" y="750"/>
    </contour>
    <contour>
      <point x="28.0" y="750" type="curve" smooth="yes"/>
      <point x="134.0" y="750" type="line" smooth="yes"/>
      <point x="165.0" y="750"/>
      <point x="172.0" y="763"/>
      <point x="180.0" y="794" type="curve" smooth="yes"/>
      <point x="233.0" y="1001" type="line" smooth="yes"/>
      <point x="240.0" y="1029"/>
      <point x="222.0" y="1047"/>
      <point x="190.0" y="1047" type="curve" smooth="yes"/>
      <point x="84.0" y="1047" type="line" smooth="yes"/>
      <point x="53.0" y="1047"/>
      <point x="46.0" y="1034"/>
      <point x="38.0" y="1003" type="curve" smooth="yes"/>
      <point x="-15.0" y="796" type="line"/>
      <point x="-15.0" y="797" type="line"/>
      <point x="-22.0" y="768"/>
      <point x="-4.0" y="750"/>
    </contour>
  </outline>
</glyph>
